<mxfile host="app.diagrams.net" agent="Mozilla/5.0 (Macintosh; Intel Mac OS X 10_15_7) AppleWebKit/537.36 (KHTML, like Gecko) Chrome/127.0.0.0 Safari/537.36" version="24.7.6">
  <diagram name="Page-1" id="0f05z5kEMS8AYJpxGbQV">
    <mxGraphModel dx="1434" dy="820" grid="0" gridSize="10" guides="1" tooltips="1" connect="1" arrows="1" fold="1" page="1" pageScale="1" pageWidth="850" pageHeight="1100" math="0" shadow="0">
      <root>
        <mxCell id="0" />
        <mxCell id="1" parent="0" />
        <mxCell id="Cq7W1oHklH4ihJ6Y_qpz-15" style="edgeStyle=orthogonalEdgeStyle;rounded=1;orthogonalLoop=1;jettySize=auto;html=1;exitX=1;exitY=0.5;exitDx=0;exitDy=0;curved=0;" edge="1" parent="1" source="Cq7W1oHklH4ihJ6Y_qpz-2" target="Cq7W1oHklH4ihJ6Y_qpz-14">
          <mxGeometry relative="1" as="geometry" />
        </mxCell>
        <mxCell id="Cq7W1oHklH4ihJ6Y_qpz-2" value="React Mobile/App" style="shape=image;verticalLabelPosition=bottom;labelBackgroundColor=default;verticalAlign=top;aspect=fixed;imageAspect=0;image=data:image/svg+xml,PHN2ZyB4bWxucz0iaHR0cDovL3d3dy53My5vcmcvMjAwMC9zdmciIHZpZXdCb3g9Ii0xMSAtMTAuMTMgMjIgMjAuMjciIGZpbGw9Im5vbmUiPiYjeGE7ICA8Y2lyY2xlIGZpbGw9IiMwODdlYTQiIHI9IjIiLz4mI3hhOyAgPGcgc3Ryb2tlPSIjMDg3ZWE0Ij4mI3hhOyAgICA8ZWxsaXBzZSByeT0iNC41IiByeD0iMTAiLz4mI3hhOyAgICA8ZWxsaXBzZSB0cmFuc2Zvcm09InJvdGF0ZSg2MCkiIHJ5PSI0LjUiIHJ4PSIxMCIvPiYjeGE7ICAgIDxlbGxpcHNlIHRyYW5zZm9ybT0icm90YXRlKDEyMCkiIHJ5PSI0LjUiIHJ4PSIxMCIvPiYjeGE7ICA8L2c+JiN4YTs8L3N2Zz4=;" vertex="1" parent="1">
          <mxGeometry x="83" y="212.87" width="151" height="137.27" as="geometry" />
        </mxCell>
        <mxCell id="Cq7W1oHklH4ihJ6Y_qpz-34" value="" style="edgeStyle=orthogonalEdgeStyle;rounded=0;orthogonalLoop=1;jettySize=auto;html=1;" edge="1" parent="1" source="Cq7W1oHklH4ihJ6Y_qpz-13" target="Cq7W1oHklH4ihJ6Y_qpz-33">
          <mxGeometry relative="1" as="geometry" />
        </mxCell>
        <mxCell id="Cq7W1oHklH4ihJ6Y_qpz-38" value="" style="edgeStyle=orthogonalEdgeStyle;rounded=0;orthogonalLoop=1;jettySize=auto;html=1;" edge="1" parent="1" source="Cq7W1oHklH4ihJ6Y_qpz-13" target="Cq7W1oHklH4ihJ6Y_qpz-31">
          <mxGeometry relative="1" as="geometry">
            <mxPoint x="537" y="522.5" as="targetPoint" />
          </mxGeometry>
        </mxCell>
        <mxCell id="Cq7W1oHklH4ihJ6Y_qpz-13" value="Artifact Storage Service" style="sketch=0;outlineConnect=0;fontColor=#232F3E;gradientColor=none;fillColor=#ED7100;strokeColor=none;dashed=0;verticalLabelPosition=bottom;verticalAlign=top;align=center;html=1;fontSize=12;fontStyle=0;aspect=fixed;pointerEvents=1;shape=mxgraph.aws4.ec2_aws_microservice_extractor_for_net;" vertex="1" parent="1">
          <mxGeometry x="617" y="466" width="113" height="113" as="geometry" />
        </mxCell>
        <mxCell id="Cq7W1oHklH4ihJ6Y_qpz-20" value="" style="edgeStyle=orthogonalEdgeStyle;rounded=1;orthogonalLoop=1;jettySize=auto;html=1;entryX=0;entryY=0.5;entryDx=0;entryDy=0;curved=0;" edge="1" parent="1" source="Cq7W1oHklH4ihJ6Y_qpz-14" target="Cq7W1oHklH4ihJ6Y_qpz-18">
          <mxGeometry relative="1" as="geometry">
            <mxPoint x="411.5" y="144.98330681818175" as="targetPoint" />
          </mxGeometry>
        </mxCell>
        <mxCell id="Cq7W1oHklH4ihJ6Y_qpz-22" value="" style="edgeStyle=orthogonalEdgeStyle;rounded=1;orthogonalLoop=1;jettySize=auto;html=1;curved=0;" edge="1" parent="1" source="Cq7W1oHklH4ihJ6Y_qpz-14" target="Cq7W1oHklH4ihJ6Y_qpz-21">
          <mxGeometry relative="1" as="geometry" />
        </mxCell>
        <mxCell id="Cq7W1oHklH4ihJ6Y_qpz-14" value="Authentication Service" style="sketch=0;outlineConnect=0;fontColor=#232F3E;gradientColor=none;fillColor=#ED7100;strokeColor=none;dashed=0;verticalLabelPosition=bottom;verticalAlign=top;align=center;html=1;fontSize=12;fontStyle=0;aspect=fixed;pointerEvents=1;shape=mxgraph.aws4.ec2_aws_microservice_extractor_for_net;" vertex="1" parent="1">
          <mxGeometry x="355" y="225" width="113" height="113" as="geometry" />
        </mxCell>
        <mxCell id="Cq7W1oHklH4ihJ6Y_qpz-18" value="Auth0" style="shape=image;verticalLabelPosition=bottom;labelBackgroundColor=default;verticalAlign=top;aspect=fixed;imageAspect=0;image=data:image/png,iVBORw0KGgoAAAANSUhEUgAABygAAAgACAYAAAB91WTSAAAABGdBTUEAALGPC/xhBQAAACBjSFJNAAB6JgAAgIQAAPoAAACA6AAAdTAAAOpgAAA6mAAAF3CculE8AAAAB3RJTUUH5QEeCRcRZxm2ZgAAAAZiS0dEAAAAAAAA+UO7fwABkDtJREFUeNrs3fe/bVdZ6P9Tkpw0kkBCIKFk7vWM0EF6kSIiKkSQtfcYmxK9NohcFaMooqhcaVakWSmCShHEAhdiRyOgtChFpBpQQgnMZ+6zSEg/5X5/CPq9eCkp45yzy/vzer3/gbXm3ONZY5a9bZukTd3a8mznVOPMbOX/AABAR1dmiz/yOQAA0FWNv5hq3NDOriRJG7ipxg2yxssMNwAA9DTW8rfZZt+UrVzh8wAAoKPF2Ga3srMrSdLGvkB5i2zlAoMNAAA9TTUenzVumTXe6/MAAKCv+CE7u5IkbewLlM1AAwBAZ2PWuNNU44bZygt9HgAAdH7N67l2diVJ2sBli5cbagAA6OyN2cpNpho7ssVjspUrfSYAAHS0e1wdTrO7K0nSBmxteXZytnKRgQYAgI72ZYuzx9Vh17Zt27aNNe6SrbzT5wIAQEdXTjV+yg6vJEkbsKnGd2UrlxtoAADo6IKs8Y3/18x5o2zlt6++cOnzAQCgi/1jjb8aV4ej7PJKkrTByhq/l63sNdAAANDR66Y6G75k7mzx2GxlzWcDAEBH/5Zt9vV2eSVJ2lhPTw7Zyj8bZAAA6OiKrPGz4+pwxH+7Me4eZk8AADpbZCtPtNMrSdIGaqzxmGzlMwYZAAA6+vhU49u/zM1xR2aLV3nNKwAAHe3LVn5/MR+OtdsrSdLGeHry8Kzx29nKHoMMAACd7M9WzhlXh5O/wg1yj81WJp8TAAAd/VO22b3s+EqStAHKGl+XrfyjAQYAgI4uzRrP/Co3yd0mWznf5wQAQEcXZys/sJgPO+36SpK0/i9QPjpb+ZwBBgCAjj411fiWrzSDLubDEdnKn33xSUufFwAAncSLpjo7ya6vJEnruKnGcdnKr6b//wMAQN+NoXdnKyd8jRvlHm8OBQCgs/eNrdzFzq8kSeu4scZts5W3GFwAAOho/1jjBV9rFl1bnt0sW9nr8wIAoKOrphqP9ppXSZLW68XJ1WF71nhItnKZwQUAgI72TDXu97Xm0cV82J4tzvF5AQDQ+W0ev5ttdrwdYEmS1mHZZkdli58zsAAA0HlD6N+u6Uw61XiszwsAgM4uzBq3tAMsSdJ6vEBZ4+Ss8U4DCwAAXdV47rW4QHmbbOUzPjcAAHqaapxhB1iSpHXY2Gb39HpXAAA6uzJbPOBa3DR3YrZ4tc8NAIDOb/V4oR1gSZLWYVONXzCoAADQeSPoXWONm13TmXRteXZ41vJ4nxsAAJ19ZjEfjrYLLEnSenp6cnU4bKzxEYMKAACdPWuqccw1nUsX82HbWMs3ZCsX+OwAAOjoimkl5naCJUlaR2Wb3TdbudygAgBAR5dkKw+9DrPpzbPFH/r8AADoaG+2eNliPuy0GyxJ0nq5QFnjuVcv0oYVAAC6eWvWuMO1nU0X8+GIrOUp2coVPkMAADr6wNrKbLAbLEnSOmgxH47NVv4hW9lvSAEAoKNfX1uZHX9dZtSxxkOyFf+CAACAnj6bNb7DjrAkSevh6cmrX+/6MQMKAAAdfS5bfPdiPmy/LjPq2srSTbOVP/c5AgDQ0Z5s5UWL+XCEXWFJkg7t05Pbx1aeka1cakABAKCjf5xW4o7Xa06t5lQAALo7d6pxazvDkiQdwtZWlk7JVs4xmAAA0PnO9Jdc3zvTv/imj3/3eQIA0NEnxxrNzrAkSYewscW3pv/tAwBA79e7dvjfPl/8X+lvTv8rHQCAfvZmjWdNNY62OyxJ0iFoMR+OyFZ+Mlu5wmACAEBHH1pbmZ3WY2bNWn45W9nnMwUAoKO/zhq3skMsSdIhKNvs5tniNQYSAAA62p+tvGYxH3b2mVmXvj5bucrnCgBAR1PWeJAdYkmSDv7Tk9vGVr4hW/mkgQQAgI72ZJud2WtuHVeHnVnjoz5XAAA631T3rKnGMXaKJUk6iO1eXjpiqnG2YQQAgM4Wi/lwYs/Zdarxiz5XAAC6qvGuscZN7RRLknQQyxo3zBavNowAANDTWMvrus+ubXbvbOUyny8AAB1dkTXub6dYkqSD2FTjVtnKZw0iAAD0NNXZYw7AzXU3zRrv9PkCANB3do1n2SmWJOngXqD8XkMIAACdXZg1Tj8AT1AenS1+zucLAEDft3/EP9kpliTpILWYD9uzxTmGEAAA+oqXZpud0Ht+HVeH7Vnjm7OVNZ8xAAAdXT6uLt3WjrEkSQehteXZzbOVKw0gAAB0dOVU48zFfNh5gN4Acuts5W98zgAAdLQ3azzTjrEkSQehrPH4bGWPAQQAgI4+MNZyjwM1w041jstWnpOt7PNZAwDQyf6xxlvG1eFYu8aSJB3AFvPhiGzlnGxlvwEEAICOXpEtTjmgN9q1ODNb+ZzPGgCAjj4x1dmD7BxLknQAm1biztnK+QYPAAA6ujxr/Pi4Ohx2gN8E8nXZytt83gAAdHTpWOPpdo4lSTqAjTXOylYmgwcAAB19aKrx4AN+s12Nw7LFC9O/KwAAoONrXrOVN46rSzexeyxJ0oHZ0Dkya7w8/d8eAAC6bujEa8fV4YYH6Ya7x2Qrn/W5AwDQ0flZ42F2kCVJOgBljXtkK+cZOAAA6OjirPGUg3jT3WnZynt97gAAdHRJtvJji/mB/ZcFkiRt1QuU35utrBk4AADo6GPZZvc5qHNti5dkK3t99gAA9BMvn+rspnaRJUnqe6f5jbKV3/J6VwAAur7etcbfjKvDUQf5xrvlbOUKnz8AAB19eGzl3naSJUnq2FjjztnKuwwaAAB0dNVU4ycP9my7e3npRtnKxT5/AAA62jvVeNzu5eFwu8mSJPV5enJH1niUu8wBAOjsC9nKbQ7FjJstXunzBwCg82teX5stTrKjLElSj82bGidkKy8xYAAA0HkD592H8Ca8R/r8AQDobMwad7CjLElSh8YatxhrfMCAAQBAVzWefggvUA7Zyid8DwAAdL4J7yw7ypIk9bhA2Wbf6PWuAAB0dnm2uMshvEB5XNZ4me8BAICexlb+xo6yJEl9Nm9+y3ABAEDnpyffPNZD9/95di8v7ZxqfEe2st/3AQBAR5ftni/dwK6yJEnX5+nJ1eHIscZnDBYAAHS0L1s8eapx5KGcdbPFnbKV83wfAAD0nHWnGt9pZ1mSpOu1aTN7cLay12ABAEA/cWG2uN8hf1PISpyYtbzQ9wEAQEf7s8UfLubDYXaXJUm6rhcoa7zQa68AAOjsnKwxO9Sz7mI+7MhanpCtXOo7AQCgo/OnlbiV3WVJkq5D4+pwcrbyHgMFAACdPW2qsWt9vDEkHpitvN93AgBAR1O2eKwdZkmSrkNTjUdmK58zUAAA0NGnskVbLzPv2srSidnKn/heAADoaF+28qrFfNhll1mSpGvRYj7sHK9+vetVBgoAADp607QSp6+n2Xes5SeylYt8NwAAdPTPU4172mmWJOlaPT25dIts5U0GCQAAOroyW3n+Yj4cvr5m39nds5WP+H4AAOhoLVs8fjEfdthtliTpmt5F3uIR2cq/GyQAAOj6etcadb3Nvov5cHTW8hfZyn7fEQAAHf3WVOMEu82SJF2zDZpd2crTvd4VAIDO3ru2PDt1Pc7A2eJHspUrfEcAAHT0lrHGHew4S5J0jTZnZkvZ4vUGCAAAOtqTLX59vb7iam1lKbKVL/ieAADo6PNZ44yphk1nSZK+xtOT28dWzshW0gABAEBHl04r8cB1faNejfN8TwAAdPZrWeN4O8+SJH2Vprp0dLb4GYMDAACd/ftiPhy5vmfheIrvCQCArmq8b6xxmp1nSZK+SmOLU7OVcw0PAAD0FS9e77NwttmdspVLfFcAAHR0VdY4Y8d2e8+SJH21u8bvY1MGAIDepjp72AaYhW+UNd7i+wIAoPNTlC86cqcrlJIkfbVNmScaGgAA6Gms5ZNZ4+br/wnKpV3Z4km+MwAAOl+g/Mxxh++w+SxJ0pdrMR92ZIu3GRoAAOj8etfnZpsds97n4XF12JY1vj5rXOg7AwCg7xtF4gw70JIkfZnWlmdhWAAAoLPLpxrLi/mwIW4Zn2qcli1e53sDAKDzU5TPsQMtSdKXKb3eFQCA/t411rjDRpmJx9VhV7Z4crZype8OAICObxU5b1wdTrALLUnS/9ViPuzKVv7eoAAAQOeNmBdMdWlDbcSMNR6RrVzguwMAoKMLveZVkqT/1rQS97QJAwBAZ58fa/m+jfJ61/8sa9w2WznX9wcAQEeXjzV+1U60JEn//9OT27PFU7OVSwwKAAB09I5s5e4b7ua9Gtuzxa94zSsAAJ2dm23pNDvSkiRt27ZtbXl2UrbyVwYEAAA62pctfm9cHY7biDPyWGM5W/mk7xEAgI4uyBqrdqQlSdq2bVvWeGC28gEDAgAAHS2yxo9u1Bl5qnFKtvL2bGW/7xIAgE6uHFs8a1wdjrQrLUlygbLGD2UrnzcgAADQ0Qezze66kefkscbzs5WrfJcAAHT0F1ON0+1KS5K2dFONk7OV33VnOAAAXV/vWuMN4+pwxAa/ke+h2coXfJ8AAHT0ibGVb7IzLUna0o017pOt/KvBAACAji6bajx+E9zMtyNbfNj3CQBAR/unGj+2e3lpl91pSdJWfXrysKzx2GzlSoMBAAAdXTiuDqdukhv6nuP7BACgr3hjtjjFDrUkaUuWNW6crbzSQAAAQFc1ztk0N/WtxEN9pwAAdLZ7qnGPxXywSS1J2pIXKE/PGp8wEAAA0Nn3b5oLlDVumq38m+8UAIDOT1E+caqz7XapJUlbqqnG9qnG92Yr+wwDAAB03Gi5LFvMNtHcfHTW+E3fKwAAPY2tvH1sZaedaknSlmqssWOscY5hAACArhstNf5srHHcZpmbdy8v7ZhqPCxbucr3CwBAR/vWVpZOt1MtSdpaFyhXl44fa0wGAQAAem6yZIsfmmocvplm52xx62zlH3y/AAB0fvvIT9qpliRtqbLNHmEAAACg8wbLBdni7pttdp5W4vis5bm+XwAAOvuHxXw43G61JGnrXKCs8UoDAAAAnf1x1rj5ZpudF/NhR7b4jmwlfccAAHR0wbQSd7BbLUnaEo2rwynZyocNAAAAdHRVtnjiZnu96389RVnjzl7zCgBAZ5/PFk+wYy1J2hJNNR6XrSwMAAAAdPTBscaDNusMvXu+dFy28nvZyn7fNQAAnezPVt64e3npWLvWkqTN/vTkrrHGK7KVPQYAAAA6+pOpximbepau5YeylTXfNQAAHf3rVOP+dq4lSZu6bLOvy1bOs/ADANDRZdnK0zf7LD3V2R2zlX/xfQMA0NFF2eKJi/mww+61JGnzXqC8+vWuaeEHAKCjf88a37bZZ+nFfDgya/mTbGWf7xwAgI5eMa3ETexeS5I264bKUVnjOTZUAADo7B1ry7Mbb4kb/lqcla1c6jsHAKCj92aLe9vBliRt0s2U2W2zxZss+AAAdHRFtnjmYj5s3woz9e7l4WbZymd97wAAdLQ3W/n+3ctLh9nFliRttqcnd2QrLVvZbcEHAKCjxbQS99lKs/V49WteffcAAPT0kqxxop1sSdKmaqpLN8gWP2+hBwCgs3cv5sOurTVbz1Z97wAAdFXjQ1njdDvZkqTNdZd3iyFbebvFHgCAzhspT9tqs/XayuwW2cpFvn8AADrakzVWpxrb7WZLkjZFi/mwfarxoGzlcgs9AAA9TStx1602X081bpA1/tr3DwBA55v/Xj7W8H8oJUmbo2yzndni2RZ5AAA6e0+2csJWm6/H1aXDssVZ2cp+xwAAAB0vUK5ljWPtaEuSNkVrK7MbjK18wiIPAEBf8axss11bccbOGnfJGmZsAAB6X6Q80462JGmzXKC8t8UdAIDOLplqfOtiPmzJ/5Ez1dkp2eIPHAcAAHS+QPkaO9qSpM1yd/f/srgDANDZW8cap2/VGXtcHQ7PFj+c/s87AAB9fWyqMdjVliRt6Bbz4chs5Z8s7AAAdH696y+urSzdYCvP2lONb8pWPuxYAACgo91TjcfY2ZYkbexNk5X4xmzlcxZ2AAA6GsdaHrlVX+/6n2VbOjlbeY3jAQCAjq4aa7xoXB122N2WJG3Upyd3ZItf9topAAA6++tss1uZuLdtyxo/ma18wTEBAEBHb8+2dLppW5K0IVtbmZ2SrbzZgg4AQM87urOW5y3mw5Em7m3bxhoPzVY+5rgAAKCjC7PGd5m2JUkb9W7ub7NZAgBA782SsZb/Ydq+uqnGSdni3Gxlv2MDAIBO9mSL54yrw9EmbknShmoxHw7LVp6RrVxhQQcAoKN3Z5vdxsT9JU9R/oK5GwCAzs6datzBtC1J2mh3ct88W/ljCzkAAB3tzRp/MK4OO03cXzJ7f0O2sub4AACgo7WxxvK4Ohi4JUkb6i7uB2Ur/2YhBwCgo4unGt9h2v5/yxbvcnwAANBX/Eq2peNM25KkjXIH9xFZ4+xs5SqLOAAAHX18XB1ONnF/mQuUNX7W8QEAQGfvyBph2pYkbZTNkVO93hUAgO5qvNq0/RVvErxTtnKl4wQAgI4ummo8YDEftpu4JUkb4QLlHbPGZyzgAAD0NZubtr98Y41jssU7HCMAAHR+zevPZJsdZuKWJK33O7d3fvH1rvst3gAAdHx68rPZZieauL/CHL4SR2SNX3KsAADQ09jKe7PFUSZuSdJ6v3P7yLHG31u8AQDoaarx0qnGkSbuL99iPmyfajwwW7nM8QIAQE9rK7O7mbglSev9CcrIVi63cAMA0NHebOXR2cpOE/dXLlssZSt/63gBAKDza15/3rQtSVrvFyh/0IINAEDnDZHzs8UdTdtfYxZfiWOzlmc5XgAA6Ow9i/lwrIlbkrRuG2v8bws2AACdvSJr3NS0/dVbzIft2WI5W7nQMQMAQEeZbfYAE7ckaX1enFwdTstWLrBgAwDQ0ZXZ4qyphte7XrOnKG/rNa8AAHR2xdjKsxfzwcAtSVp/ZY0nZitfsGADANDRu8ca9zFtX+OnKA/PVp6drexx7AAA0NG5a8uzG5q4JUnr7enJo8Yaf5yt7LVYAwDQyf5s5eVTjZNM3NfixsEWK9nKJxw/AAB09NGpxoNN25KkddVUZ/fMVv7FQg0AQEeLbHG2afvatbY8i2zlnY4fAAA6uiRb/MxiPvjXC5KkdfQEZY0fvnoDyWINAEA3H8ga9zVtX7sW8+GIsZZXeM0rAACd/fG0EjczcUuS1sfFydXhhGzxO198BZeFGgCAXv5mqrHLxH3tyxbfka183jEEAEBHH8wW37CYDwZuSdKhb6pxP693BQDgALxC6idM29f5KcoTs5WPO44AAOjsJ9aWZ24ilCQd8o2PHdnK/8hWLrI4AwDQ0eemlbirifu6N9byu44jAAA6+9Opes2rJOmQPz05OyFbPM/CDABAZ29ezIcjTNzXa1Z/iOMIAIDOLswW9/SaV0nSob0ru5VbZyvvtjADANBVjR83bV+/1lZmJ2Urn3E8AQDQ01Tj+6caO03ckqRD0mI+7JhqPCxbucrCDABAT2srs9NN3NevbHFEtniJ4wkAgJ7GGq8daxxl4pYkHaoNj102PAAA6C/+IlscaeK+3jcUbp9qfFu2stcxBQBAx7edXJI1TjFxS5IOSdPK7GSvjAIA4AC8MuqHpxWvjOpyU2GN22WN8x1XAAB0vkj5eNO2JOnQXKCsszMsxgAAdDZlK/dczAcDd5+Z/cbZ4qWOKwAAOl+g/DPTtiTpkDS28nsWYwAAOvuLbHFL03anmX11OCxbPDZbucyxBQBAR5+eatzKxC1JOqgt5sPR2crHLcQAAHR+vetT11aWjjZx93yKMu6Xrbzf8QUAQEdfGGv8oGlbknRwNzlW4uHZysJCDABAR58aaznD6127P0V5QrZ4Sbay3zEGAEAn+7LGG6YaR5i4JUkH6+nJndniN7KVKy3EAAD0E2/INlsycfcvazzBDYYAAHT2ganGvU3bkqSD9fTkLbOVd1qAAQDo6Iqs5RcW88Ed2Adihq+ze2Qr73OcAQDQUWaNx5u2JUkH5+7rFjVbucACDABAR/8+1niEafvANK4OR2WNP8pW9jrWAADoZG+2+O1xdTjWxC1JOqAt5sPh2cpzspU9FmAAADp6y9rK0qkm7gN4kbLGT2crlzjWAADo6G1TjbuatiVJB7RpJW6XrfythRcAgJ6vdx1rec5iPmw3cR/AWb7G3bKVTzveAADo6OKxxneNq2Z5SdKBe3py+xdf73qhhRcAgI4yW5xh4j7wZQs3GwIA0Fn8RrbZjUzbkqQD0trK7Jhs5RkWXAAAOvvAuDrY0DgYFyhr/IjjDQCArmr8S9a4vWlbknRAGmuclq2cY9EFAKDzhsaLTdsHp6nGUrZyueMOAICOrhhbzMfVYYeJW5J0IO62vkfWSAsuAAB9zR5k2j5oNx0eMdb4e8ccAAA9TTVeMtU4ysQtSep9p/URWeOpFlsAADo/PfkfWWc2Mg7eXL8ja5ydrex3/AEA0MvYyvlZw79tkCR1v9P6Blnj7RZbAAA632n9/KnGYSbug1e2uH22uNDxBwBA39l+9kDTtiSp953Wd85WrrDQAgDQ0WXZZt88rg7bTdwH8QJljVOzltc7/gAA6PsUZfyGaVuS1HsT439ZZAEA6Px613+aaoRp++C2tjI7Kmv5accgAACdfXQxH443cUuSel6gPM8CCwBAZy/IVk4wbR/cFvNhe7Z4SLZygWMQAICOPp9t9i0mbklSl6Ya989WdltgAQDo6JJs8ahsxetdD8WMvxJL2cobHIcAAHS0Z2zlxYv5sMPELUnq8fTkz2Qrl1tgAQDo6B1jjbuatg/ZU5SHZStPS/9nHgCAvs5bW1k6zcQtSbpejavDsWOLP89W9llcAQDoZF+28sKphte7HtobEc/IVs53PAIA0NGnxxaPMW1Lkq5XU53dP1v5iIUVAICOpmxxlmn70La2MjslWznX8QgAQEdXZSvPWcyHw0zckqTr/gRljSdnKxdbWAEA6Og9WePupu1D22I+7MgWv5StXOaYBACgo3OmlRhM3JKk63ZxcnXp5GzlD7OV/RZVAAA62ZstXjHV2GniPvRNK/GgbOWzjksAADr6eLY4YzF3jVKSdB3KGg/2elcAADrbPdb4HtP2unmK8oRs5f2OSwAAOvu5teXZUSZuSdK1fHpyOHxscXa2crnFFACAjj4xVa97Wlezf40XOC4BAOjsz7PGkmlbknStmurs1GzxagspAACdvdG0ve5m//s6LgEA6GzKFt+wmA/bTdySpGt+F3Urd85WPmohBQCgp6nG95u211dry0vHjLVc4PgEAKDz7P+UaSV2mbglSdeo3cvDzqnGmdnKPgspAAAdXbW2PLuJiXt9lW22I1v8quMTAIC+4q3Z4gQTtyTpGm5QxLHZ4lUWUAAAOm9QvC5b7DRxr68W82HbVOOB2coVjlEAADo/RXkXE7ck6Ro11TgtWxktoAAAdN6ceOy0Ev4HzTpsvPo3wNsdpwAAdFXjSaZtSdI1vEA5e5TFEwCAzi6YatxhMR8M3OvyN8DSsdniWY5TAAA6X6B8i2lbknTN7p5u5U8tngAA9N2YKK+aatzYtL0+W8yHHVnjkdnKJY5XAAA6mqYadzRxS5K+aruXh1O93hUAgM72ZSvfv3t56TAT93p+ijLulq28y/EKAEBHl481ftK0LUn6qmWLs7KVyyycAAB09KFs5X6m7fXduDrcIFu84IsXlB23AAD0sD9r/O1U4xgTtyTpy7aYD4eNrfyJDQkAAPqK1051dnMT9wa4YbHG92Ur6ZgFAKCj87PGg0zbkqQv27QSJVt5rwUTAICer3TKWn52MR8ON3FvgAuUbXYnr3kFAKCzL2SNp5i2JUlfYTMiviNbudCCCQBARx/JFt9q2t4YjavDrqzx+9nKHscuAADdXvPayh9PNU4xcUuSvqTdy0tHZisv9npXAAA6+8vdy0snmbg3TlONx2Urux27AAB09L6phv9LL0n6fzYh7pKtvM1CCQBAR5eMtfycaXvDPUV5SrbyIccvAAAdXTrW+IFxddhp4pYkbdu2bdu2xXzYkS2+M1tJCyUAAB19cqqze5m4N15Z4zWOXwAA+oqXZZudbNqWJF399ORKnJC1PN8CCQBAV7W8dTEfjjZxb8gLlN/nGAYAoLMPZ427mrYlSVdvPrS4bbbyjxZIAAA6e5ppe4PexFjjxtniMscwAAAdXZUtzvSaV0nStt3LSzumGg/PVq60QAIA0NH+cXXpzibujdlYY/tY488dxwAA9H3LSrx6qnGciVuStvrTkzWOzhq/YnEEAKDzxsOHs8Z2E/eGfYJy21Tje7KVfY5nAAB6GWtMY5udZuKWJHdGn5g13m1xBACgr/iFqYaBeyPfzNgissUFjmUAAPqafbdpW5LcGX1/r3cFAKCzS7LN7juuDgbujXyBssZJ2corHM8AAHT2p6ZtSfIE5bMtiAAAdH696z9ONW5u2t7wNzMeli2+L1u5ynENAEBHn1rMhxuauCVp6244bM8aH7EgAgDQ+fWuT822dLSJe1Pc0HjvbOVfHdMAAHR0WbbZI0zbkrRFyxoPzVYutSACANDRZ7PGN5u2N8lNjStxs6zl1Y5rAAA62je28prFfDjMxC1JW/Nu6BdkK3ssiAAAdPRXU41bm7Y3R4v5sDNbefLVd7k7vgEA6Ob9U1063cQtSVvtTugap2Qr77QQAgDQ0d5s5VeyFa933URljW/KVj7o+AYAoKNxbPF9pm1J2noXKL8tW/mEhRAAgI4uHGt8p2l7c7W2PLtxtvIXjm8AADrf3PiSxXxwc6MkbZXG1WHbWOPp6f9PAgDQ1zuyxp1M3JurxXzYni2emq18wTEOAEBHb802u6OJW5K2SNmWbpGt/JkFEACAjq7KFr9p2t6cTStxT29gAQCgs8XYyvcu5sN2E7ckbYULlDUelq183AIIAEBH41jj0abtTfsU5a5s5e8c5wAAdPbLayuzY03ckrTJG1eHXWOLn8pWrrT4AQDQT7x/qnGqiXtT3+j4o9nKfsc6AAAd/W3WuJVpW5I2eVON07LF6y18AAB0tH+s8WLT9uZubXl2h2xln+MdAICOPp8tHuI1r5K02Z+grHHfrPEZCx8AAB3tyxoPN21v7hbz4bCxlvMd7wAAdFXLM6eVONrELUmbtGxLu7LFT1j0AADo7OKphoF7S/ymiJ92vAMA0Fe8J1vc1LQtSZt1M6HGidnK31nwAADovKHwKtP21mhaiXtlK5c65gEA6Gmq8Y2mbUnarJsJNW6TraxZ8AAA6LyZ8CjT9tZorHFKtnKu4x4AgL6veY3nmbYlabM+Qdlmj7PYAQDQ2flTjWLa3io3PS4d5TWvAAAciN8Vi/lwpIlbkjbj3c6tvMlCBwBA3zudy+9MNW5o2t4aLebD9rGWh2Yr6fgHAKCjy6Ya9zRxS9Ima21laZatXGKhAwCgoyuzxaMX82GHiXvrlG02ZIvXO/4BAOhoz1jjF0zbkrTpNhHiR7OVqyx0AAB09M5scWfT9pZ7inJX1nhGtrLXOQAAQCf7s8bbphonmLglafNsIByVrfxltrLfQgcAQEcvmlbiRibuLXgDZI0zs5ULnQMAAHR0QdY4w7QtSZukqc7unq38mwUOAICOLspWftDrXbfoBco2u0228hbnAQAAHV2WNZ5p2pakTbN5UM7OVnZb4AAA6OhfssUDTNtbs3F1ODxrvDD9GwkAAHq+5rWVP5tq3NLELUkbvN3LS8dmK6+xuAEA0Hnj4I8W8+F4E/fWbarxyGzls84HAAA6+vhY4+GmbUna+JsG98pW/snCBgBAz9e7jrU8ybS95Z+iPDlbebfzAQCAjvZkjadONXaZuCVpg7aYDzuyxfdnKwsLGwAAHX1sqrO7mLj1xde87nNOAADQ0eunGoNpW5I26tOTK3FS1vIiCxoAAD1f7zrW8leL+XCkiVvZZg/OVvY4LwAA6Pma16xxH9O2JG3YzYL4umzlPAsaAAAd7c0WP2Ta1rZt27aNq8ORWeNTzgsAALq+5rXF48bV4XATtyRtsHYvL+3MGt/pdUsAAHR26e7l4VQTt/7rImWNVzovAADoqsY5U42TTNuStMGaapyQNX7XYgYAQN+NgvIW07b+22+PevWTtc4PAAC6WYxtdjvTtiRtsLKVm2cr/2EhAwCgr/gp07a+9LdH3DxbnO/cAACg82+Ps03bkrTx7mI+wwIGAEBnF2eb3dm0rS+5QFnj+KzxEucHAACdX/Pq7S2StNEaa7zQIgYAQOcNgr+bapxs2tZ/uzlyR7Z4ZLZypfMEAICeN0iOq8MtTdyStHE2CHZljQstYAAAdLQvW5w9ri7tMnHry9wg+XXZyrucJwAAdLRnqvEk07YkbZCyxkq2cpUFDACAjj6ZNe5v2tZXuEnyRtnKb2Qr+50rAAB0sn9s5Q2L+XCEiVuSNsYFyt+5+g53ixgAAL3En051dpppW1/xd0iL78lW1pwrAAB09NGpLt3etC1J6//O5dOylfdZuAAA6OiKbPGUcdWdy/qqN0reJ1t5t/MFAICOdo8tnmDalqR13ljjzGzlcxYuAAA6+thU42GmbX211pZnJ2Qrf+p8AQCgo33ZyisX8+FYE7ckrd+nJ3dmjRdlK3ssXAAAdPSX2cotTdz6ai3mw/ZscXa2snDOAADQ0T9lm93LxC1J6/cC5Z2ylbdZsAAA6Px612ebtnWNfpOsxJ2zlY86bwAA6OjisZUnLObDThO3JK3DskbLVj5pwQIAoKNPZ425aVvX8CnKI7KVN2Qr+507AAD0E78z1aWTTNyStM4aV4ejssXTs5WrLFYAAHTcCDhvqnFjE7euxY2Tj/e7BACAzt43tri7aVuS1llTjdPz6v8NZLECAKCXvWON55m2dW1aW57dIlu5zPkDAEBHV2YrbTEfdpi4JWn9PD25fazxLdnKZKECAKCjy6caDzRx69q0mA/bs8UbnT8AAHRVywumlTjOxC1J66RsS0dni6dZpAAA6Px61w+btnVdmmo81vkDAEBnH8wWg2lbktbLBcoap2aNd1qgAADoe4dy/IppW9fpAuVK3DFbuch5BABAT1ONbzdtS9I6aWyzr0//4wUAgP7uZ9rWdfqNUuPEbOXPnUMAAHR+y8vvmLYlab3cnVzjlyxMAAAcgNcn3dS0revS2srSrqnGjziPAADo7HOL+XC0iVuSDnGL+bBjbOW9FiYAADq/3vX500oca+LWdfydsm2s5QHZyqecTwAAdLR3WomHmbgl6dDfmXzbbGWPhQkAgI4uzRYPX8yHHSZuXdeyzW6WLV7tfAIAoKP92eJ3/VaRpEPc2OKns5V9FiYAADp6S9a4nWlb1/MpyiOylidnK1c4pwAA6OjDayuzm5m4JenQ/eA/Nlt5iwUJAIDOnre2MjvexK3rfUNljW/JVj7snAIAoKMLs8ayaVuSDlHZZvfNVj5hQQIAoKPPZYvvXMyH7SZuXd/WVpZOyVbe4LwCAKCjK7LGc03bknRonp7cPrbyjGzlUgsSAAAd/cO0EncycavT75YdWePZXvMKAEBn5041TjdxS9LBvxP5ptnKX1qIAADoaG+28uLFfDjCxK1eTTUelq1c4PwCAKCjT401HmXalqSD3NjiIdnKRy1EAAB0lNnicaZtdf3tsjrcKFv5h2xlv3MMAIBuN1fW+MWpxtEmbkk6SC3mw85s5cnZyuUWIgAAOvrgVJduZ+JW77LGc7KVPc4xAAA6elPWuI1pW5IOUtNK3DRbebkFCACAjvaNtbzO6111QC5Qttl9s5VLnWcAAHR9A0yNbzFtS9LBeXpyW7a4V7byfgsQAAAdXZFt9t0mbh2IxtXh8KzxYecZAAAd7c9WnjnVONbELUkHuLXl2eFZyw9YfAAA6GxczIeTTNw6UE01nuU8AwCgqxrnZo1TTduSdIDLGidli1dbfAAA6Gms5Y9N2zqgv2Xa7O7ZyuXONwAAOrpobLO7m7Yl6cDfdXy7bOUzFh4AAHqa6uyRpm0d4Jstb5w13ut8AwCgr/hZ07YkHfgLlGdZcAAA6OzCqcZg2tYBvkB5TNb4NecbAACdX/P6HtO2JB3AFvNhW7Y4x6IDAEBnf5itHG/i1gG+2XJ7tjjDa14BAOjsqnF1KCZuSTpAra3MbpKt7LfgAADQ0d5s8T3j6nCYiVsHurHGbbKVNzvvAADo/BTls0zbknSAyhpnukAJAEBnH88a9zRt6yA9RXlctvIr2co+5x4AAL2MNd42rg7HmLgl6cBcoHy1xQYAgL7iVdlmp5q2ddB+17R4VLbyOeceAAAdfXqqs280bUtS/zuNS7byEQsNAAAdXZ41fsTrXXWQb7y8U7byVucfAAAdXTK28lTTtiR1bqzx2GxlzUIDAEBHH5pqPNi0rYN88+Xh2eK3spW9zkEAADrZn628bjEfjjNxS1K/H/C7ssYfpP/TAgBA1x/w8Qfj6nBDE7cOwQ2YZ2Yrn3EeAgDQ0Qeyhde8SlKvssY9s5V3W2AAAOjooqzxZNO2DslNmCtx22zlX52HAAD0fM1rtvLkxdy/sJCkXhcoz/J6VwAAOjt/qvEA07YORYv5cHi28mqveQUAoK945VRnp5i4Jen63llc40bZygu93hUAgM6vd31ztnIDE7cO4W+d78pWLnM+AgDQ0YfHVu5n2pak6/+j/Y7ZylstLAAAdHTlWOPnTds6lK0tz07OVhbORwAAOtoz1ThrMR8ON3FL0nVsXB22jzVqtnKxhQUAgI4+P9W4m4lbh7LFfNiWLX7f+QgAQOfXvP5RtjjZxC1J17Fss+OyxbMtKAAAdP7Bfp5pW+uhaSWq8xEAgM7GbOX2i/lg4Jak63SBssaQNd5jQQEAoKsaTzVta11coKxxs2zlAuclAAA9TTXOnFZiu4lbkq5l4+qwbWyzb85WrrCgAADQ0RXZ4k4mbq2TC5THZo2XOS8BAOj81phXZ4sdJm5JuvY/1LdPNX7TQgIAQOcf6m8da9zQxK310O7lpcOmGt/nvAQAoLMv7F5eOs7ELUnX9gnKtnTkWOOzFhIAADr7ianGLhO31kOL+bBtrOVu2cr5zk0AADq/5vU7TdySdC3LNnugRQQAgM4uylbuZ9rWOvvtc5NsXvMKAED3t8f80WI+7DRxS9K1eoKyPMcCAgBAZ3+TNYppW+vsKcrDspYnZCuXOUcBAOjoP6aVON3ELUnX/Af6cdnKP1tAAADo7BfWVmbHmri17m7QrPGAbOVfnKMAAHS0yBZnmbYl6RqWbfagbOVCCwgAAB19OlvUxXzYbuLWemttZemkbOUPnacAAHS0L1t5zWI+7DJxS9LXfnpyx9jKC7KVKywgAAB09Ndeb6R1/Dto21jLk7KVzztXAQDo6F1TjTuZuCXpa985fIts5e8tHAAAdHRltvKcxXw43MSt9Vq22d2zlQ86XwEA6OizY43vNm1L0tdobLGcrfyHhQMAgI4uyBorpm2t86coj84af5Wt7HfOAgDQyd6s8WtTjRuYuCXpK/8g35Wt/PwX73C3eAAA0Mt5ayuzm5m4td6bajwz/bsLAAD6euvoNa+S9JXLNptlizdYMAAA6GhPtvKSxXzYYeLW+v9NtHS3bGXhvAUAoKNF1niEaVuSvvzTk9uylW/NVj5pwQAAoKOLs838GNeGaFwddmSNdzpvAQDo7NemGieYuCXpv7W2PNuVtfy4hQIAgM7+YzEfbmji1kZpqvFk5y0AAF3VeO9YI0zbkvTfyhqnZCuvt1gAANDTWONlpm1tqKco2+y22colzl8AADq6Mms8bKqx3cQtSV9sMR+2TTXulq2khQIAgJ6mOnuoiVsb7AnK47LGW5y/AAD0/W0UL5hq7DRxS9J//gBfiR1TjR+1SAAA0PfpyfLJXImbmLi1kcq2dES28O8vAADo/XaZD401DjdxS9J/3SE8OyKbO4QBAOgtnp9tdpSJWxupcXXYljXunTVG5zAAAB3tz7Z0DxO3JH2xtZXZrSwOAAB0dvlU4+GL+bDDxK0Nd5Gyxixb+WvnMQAAXdV4gWlbkr5Y1niSxQEAgM7eM9ZyO9O2NmJTjWOyxdOylb3OZQAAur3mtcV7xtXheBO3JG3bti1bebPFAQCAzn47W5xk2tYGfory27OVTzmXAQDoaJzq7AzTtiR3Bte4vR/dAAB0dmnWOGtcHXaauLVhb+SscZts5U3OZwAAOrpirPE807YkdwXXeGK2crGFAQCAjt491biPaVsb/GbOHdnil7KVK53TAAB09OZsS7cwcUvayj+4j8kar89W9lkUAADoZF+2eKn/q6JNckPnPFv5hPMaAICOLsgaq6ZtSVu2rHH/bOVfLQgAAHS0O2v8sGlbm+SmzlOzlbdmK/ud2wAAdHJ5tvJzi/lwuIlb0la9QHl2tvJ5CwIAAB29P9vsrqZtbZrfTS2e6zWvAAB09idTnXnNq6QteSfwydnKy90JDABA19e71vjTcXXYZeLWprlAuRIr2cpFzm8AADr6+NjKg03bkrZcY437Xn13u8UAAIBuLplq/KBpW5up3ctLJ2Qrn3R+AwDQ8+bOqcaP715ecnOnpC10B3ArO7PGY72mCACAzj6brRQTtzbfb6j4dec3AAB9xRuzxc1N25K2TFONk7KVl1gAAADo/AP770zb2pS/oVbiW5zfAAB0tpY17rOYD9tN3JK2xt2/NW6dNT5oAQAAoKsaP2ra1ua8yXN2YrZyvvMcAIDON3n+2FRnO03ckjZ94+qwfWyzR2QrV/njDwBAxx/Wl001lkzc2pwXKOPIrPGbznMAAHoaW/nHsRX/h1LSlvhhfUTWeKU//gAAdP1hXeMvxxrHmLi1Gdu9vLR9qvFt2cpe5zsAAB3tWVuZ3czELWnzP0HZZieONdIffgAAOtqXLX5gqnGYiVubtWxRspV/cL4DANDTVOMHTduStsCP6tmKP/oAAHR+vesns8WdTdvazK2tzE7IWp7nfAcAoLO/XMyHw03ckjb3Bcoar/EHHwCAzl6bNU41bWszt5gPO7OWx2YrX3DOAwDQ0YXTStzexC1p0zauDqdkK+f7gw8AQGc/NtVwx682/w2fLe6VrZznnAcAoKOLs8XZpm1Jm/jHdHl0trLwBx8AgI4+ni2+1bStrdDu5aXjs5WXZSv7nfsAAHSyP1v5s93LS0ebuCVtuhbz4bCxlZdmK1f5gw8AQEf/e1qJ00zc2iqNtfzPbGVy7gMA0NEHpxoPMG1L2nRNdWmWrbzDH3oAADq6PFt5xmI+HGbi1tb5bTW7Y7byHuc/AAAdXZQtnrSYDztM3JI2112+Lc7MVj7tDz0AAB19LGucYdrWVmoxH47MWl6brez1NwAAgI5eMdU4ycQtaTP9gD4qW3lutrLHH3kAADp669ry7GQTt7Za2eKsbOVifwMAAOjoXWONu5u2JW2iH8+z22Yrb/IHHgCAvq93jWct5sN2E7e2WruXl26RrXzG3wEAADq6JGucOdXwG0vSpnh6cvvYyqOyld3+wAMA0FFOK3EfE7e27I2gNf7a3wEAADp7ada4sWlb0oZvqks3yBa/5A87AACdvXcxH3aZuLV1f2vF//R3AACArmp8cKxxW9O2pI1/V2+LWf5/7N33uy1ZVej9EztnmqbJtdeY5CDhAqIgCgJiYu0151YQlHT1IohcA4ISfBUDggEUUZFLUEBEBS6KoCiIRCVJRqBBW1qgRu2zms7dJzzvD/C+ogLddM9zzg6f7/N8/oI+NWrMXlW1W3mT4Q4AQF/xdNu2tnNjW7lx+juUAAD0dUXWeMBUY5eNW9KmbTkfdk417patXGiwAwDQ01Rnd7Nxa5u/QXl81ni9eQAAQOe3KP9grOFrNZI28YF5EXunGk8y1AEA6Gms5ZxcxCk2bm3nsq3szhY/lK0cMhcAAOj4A+WY1XlL0uZ+ovfkbPFuQx0AgM6fd31qttleG7e2/Y+UNW6TNc41EwAA6PvFmniQbVvSZn6D8o6GOQAAnV081bjXcj7stHHLQ6FxdrZ4ibkAAEDntyifb9uWtJmf5v05wxwAgM7ePNaY2balHTvGtWFvtvjhbOUyswEAgI7+eVwbzrBxS9p0LefDcdnKPxnkAAB0/rzrL6wvVk6ycUtf/JGyxrdmK+eYDQAAdHT+VKPatiVtuqZFfFO2MhnkAAB0NI21NJ93lf6jrDHLVv7CfAAAoKMrxhrPHdcGC7ekTXZIbvF0nxkCAKCzN2Yrt7JtS//t/PXEbOUSMwIAgI7emW3lJrZtSZvn7ckap2YrbzLAAQDo6EC2+K1xbfB5V+m/NNb4tmzl4+YEAAAdfTZrPNS2LWnzPL37hb+B8jEDHACAjsas8T9t29KXfUj02tni9dnKIbMCAIBO9meLZ41rwwk2bkmb5QfKJ2QrFxngAAB09K5sM593lb7yW5S/4DOvAAB09qapxm1s25I2w5O7189W/sSTuwAAdP28a40Xj2vDHhu39BUfFL1ntjKaFwAAdHTe2Mp3L+eDhVvShn9q997pb58AANDXcqrxINu2dCU/UrZ4u3kBAEBPU42fW1+snGjblrSR3548Jmv8WLZyhcENAEBHHxvXhuvYuKUrfWD0yeYFAACd/U22WLFtS9q4T+vWuEG28mcGNgAAXdX4Q9u2dBUeGl3EXc0MAAA6Oz9r3HM5H3bauCVt1B8o75A1zjOwAQDo7Hts29KVt76YnZStfMjMAACgr3jSVGfH2LglbbwfJ1vZk608Ils5aFgDANDxIHxxtnKGjVu6Cm9Q1tiTNZ5hbgAA0NPYyrvHVk62cUvaiAfhE7PGqw1rAAC6HoRrvHyssdfGLV15y/mwc6pxt2zlUvMDAICe1hezO9u4JW24xja7Ybayz6AGAKCjA9niB6Yau2zc0lUrW9woW/yt+QEAQOev2zzNti1pIx6CH2pAAwDQ+QB8Tra4uW1buupNizgpa/l58wMAgM4+sJwP/g6lpA32A2WN1xjQAAB09gdZ4yzbtnTVW86Hndniu7OVz5ghAAB0tD4t4g42bkkbpnFtuGG2cp4BDQBAR5dni4dPNXbbuKWv8S3KGrfIVl5vjgAA0NEl2eLxtm1JG+nw+2PZysUGNAAAHb1nrHEX27Z0td6iPDFbeVa2ctAsAQCgo7/ft7pyqo1b0kZ4e/K4scarHHwBAOjsRVONM23c0tU8q9XykGzls2YJAAAdfWKqcW/btqSjXra4fbbyAYMZAICOLspWfsK2LV39pjq7WbbyDvMEAIC+Z7V4ynI++FMcko7yU7mt/K9sJQ1mAAA6+kjWuKdtW7r6LefDMVnLC7OV/WYKAAAdvXJaxPVt3JKO5oH3xGzld7OVA4YyAAAdvX59dXa6jVu6ZmWLB2Ur62YKAABdHyhtHiiVdFQPu7M7ZCtvM5ABAOjowmzxuOV8sHBL17B9q8NZ2crHzBUAADo6lK381L7VlWNs3JKOxtuTu7KVh2UrnzeQAQDo6LxpEXe0cUt9Gmt5nrkCAEBnL80a17NtSzriTXXl9GzxLIMYAIDO3rCcD57Elbqd3Wb3NlcAAOiqxieyxu1t25KO/FO4LW6ZrbzbMAYAoPNB97G2balf+1ZXTs1WluYLAAAd7c8aj5hq7LFxSzpiLefDrqnGPFu53CAGAKCn9cVsxcYt9XyDMvZMNf7cfAEAoPPDpS8fa5xk45Z0xMo2OyFb/I4hDABAZ2+fauy1cUv9GteGndlm35OtHDRjAADo+APl57PG9W3cko7kE7jXzlbOMYQBAOgrfjrbbJeNW+r8kGmNm2YNZzgAAHr/SPlo27akI/cD5SK+2fAFAKCzC6Ya37CcDxZuqftDprNrZYvfN2cAAOj8A+XrbNuSjtzTty1+3fAFAKCz1481bmDblvo3rg17ssVDspVLzBoAADr63FTjJjZuSYe95Xw4Plv5hMELAEBPU42fWV+sHG/jlg7XW5Rx12zl/eYNAAAdXTzVeLhtW9LhP9Qu4tuzlQsMXgAAOjpvrOXbfN5VOpxvUa6cni2em60cMnMAAOjkwFjjZePasNvGLelwvj25K1s8J1u5wuAFAKCfeGW2mV8npcNc1nh0tnK+mQMAQEcfyDa7lW1b0mFrfTG7UbbybgMXAICOLs9afn45H46xcUuH/QfKb8lWPmzuAADQ0ZQ1fti2LelwHmbXspVPG7gAAHT0r2Mt1bYtHf6mGqdni1f7zCsAAD0/85otfn9cG06ycUs6XD9Q/kK2cqmBCwBAR28e12Zh25aOTGONn8lWLjR7AADo6B1TjTvatiUdjidtZ9nKaw1aAAD6ft41njOuDbts3NIRO9vdOVs51/wBAKCj88caDx3Xhp02bkm9n7L9rmzlXwxaAAA6GqcaC9u2dGTLFn9t/gAA0Fc8J9vKtWzbkno+YXt81nhStrLfkAUAoKP3jWuDA6x0pH+grPEj5g8AAJ29J1u5jW1bUs/D60q28hoDFgCArmo8x7YtHZWHUG+UrVxmDgEA0NGFWeM7lnN/wkNSvx8o75o1RgMWAIC+ZvewbUtHvrHGzrHGm8wgAAA6f+b1l7LNjrdxS+rxZO1xX/y86yHDFQCAjm9P/tvYVvbauKWjcM5bxM4vnvPMIgAAuhlb+Wi2cpaNW1KPJ2vPyBpvN1wBAOhpqvFbU42dNm7pyLecDzumGnfMVi40jwAA6HvWm32rjVvSNS7b7Obpb5MAANDX/mzlO7IVC7d0tM56Na6bLV5jHgEA0Pkzr8+xbUvq8ANlPNZABQCg84H1I9lixbYtHb3WF7Pjs5bHm0cAAHT2yeV8OMXGLekaNdb4ewMVAIDOfi9rnG7blo5ey/mwM1vcO1s510wCAKCji7LN7mPjlnT1f5xcW7lJtrI0UAEA6OiSbLHm709KR79pEbNs5f+aSwAAdLR/bOW5y/ngzCfp6pU1npStXG6gAgDQ0dvHGrezbUsb4i3KPdnKk537AADo7F3rq7MzbdySrsbbk8OJY42/zlYOGaYAAHRyMFv57anGaTZuacM8mHq/bOVj5hMAAB2dmzW+y7Yt6WtuqrO7ZyufMEgBAOgos8XDbdvSxml9dXajbOUN5hMAAB1dmq08bTkf9ti4JX1tb1DW+Ols5QKDFACAnp/5yRp3tG1LG6flfNg71vIcn3kFAKCz106LGGzckq76j5Nrw5nZyst93hUAgI4OZSsvn2rstXFLG6tss3m28llzCgCAjs7JFt+xnPuNUtJVPpzGN2Qr7zFAAQDoaJktHmXbljbkW5SnZyvvNacAAOjsqeurs+Nt3JKuysF0d7byqGzlQsMTAICOPjUt4tY2bmljNtbyG76iAwBA78+8Zo2wbUu60qY6u3a2eK7BCQBAZ/93OR983lXauGfBu/qBEgCAzjJb3Gs5H3bauCV99admW7lDtvJBgxMAgI4OTTUeYduWNm7L+XDcWMu55hUAAJ39xFTjWBu3pK92IN091XhQtrLf0AQAoKP9+1ZXzrJxSxu7bPHr5hUAAF3V+Iuxxum2bUlf7TB6arZ4iaEJAEBf8QrbtrTxmxazu3tgFQCAzj9QXpI1bm7blvSVD6M1Ilv5nKEJAEBPU42H2ralTfDQao0bZ40Pm1sAAHT+kfIJtm1JX+UHytmDDEsAADr73FTjFrZtaRP8QNlmp2aL3zS3AADo/APlW23bkr7KYTReYFgCAND5866vzBbXtm1LG79xbdiVLdaylYvMLgAAOvr8VONWNm5J/63lfDjJ510BADgMn3d97Ppi5Vgbt7Q5mmrcIVt5p/kFAEBHV4w1HmfblvTlDqHfm61cZlACANDRJ8da7m7bljbVW5QnZ4tfy1YOmmEAAHRyKGu8aapxvI1b0pe+Pbk7W7woWzlgUAIA0PHzrn801dn1bdzS5iprPCRbGc0wAAB6PsA61biHbVvSf7w9uYjIVj5oQAIA0NGlWcsTlvNhr41b2mQ/ULbZbbOVt5tjAAB0dH7W+HHbtqQvOXzG92crnzUgAQDo6KPZ4j62bWnzNa4Nx2WN52cr+80yAAA6OZgtXjyuDafauCXtWM6HY7KV5/m8KwAAnb1mfbFylo1b2qQ/Utb40WxlaZYBANDRe6ca32jblrRjqnGHbOUdBiMAAB1dNNbyFNu2tKnPirfKVj5mngEA0NHFY43HjGvDLhu3tM3LFt+XrXzOYAQAoKNzs8U9bdvSpj8vviJbOWSmAQDQT7ww2+w6tm1pez8Re1LW+CWfdwUAoPOB8+3j2nCajVva5D9Q1ni48yIAAJ19NGvc2bYtbePGGjfLVv7WQAQAoKODU41n2LalLfFQ61nZ4gJzDQCAji7PFj8wrg17bNzS9n0a9p5ZY2kgAgDQ0f5sK3eybUtb5sHWvzTXAADo/NWdl0w1fHVH2qY/Tp6UrTzDIAQAoKsaHxrXBgu3tHXeovz+bOWg+QYAQC9jK+dmjRvbtqXt+RTs2VnjPYYhAAA9TTWeatuWttDDrS1unC3+zXwDAKDv2XG2atuWtudTsN/8hW89G4QAAHRzcbbZXWzb0hb6gbLGGVnjZeYbAAB936KMl9i2pe15yPwNQxAAgM6fd33bVOO6tm1p67S+mB2TtTzGjAMAoLPPLufD6TZuafv9QPkJAxAAgM5+MVs50bYtbZ2W82FHtrh7tnKOGQcAQEeXZ5t9t41b2k4/TraV22UrlxmAAAB09Plscd9sxcItbbGmRVw/a3mpOQcAQEcHx1ZevpwPu23c0vZ5e/KXspUDBiAAAB393VjjlrZtaUu+Rbk7W/mJbOUSsw4AgI4+sr5Y8ZSrtB0a14ZTxhZvzlYOGX4AAHRyIFs8Y6pxso1b2rIPun5LtvJB8w4AgI5ybPEI27a0DZpq3DtbOdfgAwCgo8+MNR5o25a2buuL2bWzlVebdwAAdLQ/W3nucj7stXFLW/0Nyhq/kK1cbPABANDRW7PGbWzb0tZtOR92ZYsnZisXmHkAAHT0xmkRN7VxS1u4bCs3yFZea+ABANDRFdnit6YaO23c0tZuWsQ3ZCufNPcAAOjovGzxvcv54EwpbdkfKGvcP1v5lIEHAEDnz7t+r21b2hZvUZ6Srbw1Wzlk9gEA0NGvra/OTrJxS1uwcW04dvzC53guN+wAAOjoQ1ONG9i4pW1ytqzx1GzlgNkHAEBHb8gat7BtS1vx7ck2u362eKlBBwBARwezxUts29L2aaord8hWLjP/AADoaJktvtNnXqWt+JRrK3fNVj5u0AEA0NEVU43vs21L26flfNg71vIR8w8AgK5q+cVpESfauKUt1L7VlWOmGj+c/k4IAACdn3Ldt7pyqo1b2l7lF/58iBkIAEBH8a5scX3btrS1Do9nZotXGHAAAHQ+QL7Iti1tv6bF7A7ZyiVmIAAAPU01vsW2LW2lw2ONW2crkwEHAEDnw2O1bUvbr7HGtbOVvzMHAQDo+5nX+EXbtrSl3qCcPdJwAwCgs3OmGoNtW9qOD8GuHJctHm8OAgDQ+QfK99u2pa30dGsrbzTcAADofHD8/amGvz8pbcOW82Fn1rhftnKBeQgAQEeXTTXuYOOWtkD7VldunK1cZrABANDRgazle/atruyycUvb9S3KuIXPvAIA0NnB0Wdepa1RttkPZysHDDYAADp6X7biqVZpGzeuDSdki19w3gQAoPPXev5xqnGKjVvaxC3nw55s8afZyiGDDQCAfuIFU51dx8YtbfMHYmt8b7by72YiAAAdnZc1vt22LW3ipkXcIlv5uIEGAEBHF2Utj13Ohz02bmmb/0DZZjfPVt5oLgIA0NElWeOXbNvSpj4sxg9lK+sGGgAAHb0/W3yTbVvSuDbszRrPzlauMBsBAOjkULbyF9nK2TZuaRO2b3XlxGzlj33eFQCAzgfFP963Opxm45a0Y8eOHVONB2QrnzEfAQDo6KNTjfvYtqXNeUj8+mzlPQYZAAAdnT/W8uO2bUlf8hblWdnKP5qPAAB0dOlY46fGNX9aRNpULefDrmzxw9nK0iADAKCjf57q7PY2bklfWtb4/WzlgBkJAEA/8cfZZjewbUub6e3JRZyZrTzPAAMAoOvnXWv5y+V8OM7GLem//ED5wGzlMnMSAICOzskad7dtS5vpcNjiDtnKuwwwAAA6uiJb+UnbtqT/9pBsjdOyxWhOAgDQ0f5s8chxbTjGxi1tjoPhzqxx/2zlIgMMAICOLhzXVm5h45b05RprvNicBACgqxqvnmqcZduWNsPbkzVOy1Z+2/ACAKDzwfAdtm1JX+Vh2funv0MJAEBf+8YWt7VtS5vjB8obZY0PGlwAAPQVj7NtS/qKZ9EWZ2eLc8xKAAA6n0UfbduWNscPlN+VX/j7QAYXAAC9XJBtdmvbtqSvchY9OWs817wEAKCnsZXX2balTdBY43mGFgAAnT/v+oapxrVs25K+UlONXdmiZiuXm5sAAHR04XI+OI9KG/xAuCdrjAYWAAAdHcoWP5pt5Rgbt6QreWD2ttnKu8xNAAD6nklnD7JtSxu4rLH6hYvV0AIAoNvbk5/OGne1bUu60odmF3FW1uKrPgAA9P7M618u58NeG7e0cZ9Wfb5hBQBAZ6+aatzYti3pylrOh93ZyiOzlQvNTgAAOvrkVFduaeOWNuKPk2vDGdni/QYVAAAdHchWnpytHGfjlnRVyhrfkK28x/wEAKCj5djiMbZtaQM21fjubOUzBhUAAB2dO9ZYtW1Luqqtr85Oz1Zebn4CANDRwWzlZcv5cKKNW9pYb0/uHGs8M1u5zKACAKCjv5lq3NTGLemqtpwPO7PFY7OVfWYoAAAdvTvb7E42bmkDlW1llq38nQEFAEBHl2WLX7ZtS/pamxZxu2zlI+YoAAAd7ctWHrmcDztt3NJG+YGyxvdmK582oAAA6Px51/vbtiVdjbcoj8lWXvXFT3GZpwAA9PI764vZqTZuaQM0rg3HZ4tfzFauMJwAAOjkULZ4+1TjLBu3pKv5IO0PZSuXmqcAAHT01qzxdbZtaQM01bhZtvJXBhMAAB1dMdb4Ndu2pKvb+ursZtnKBeYpAAAdXZgt1pbzYZeNWzqKLefDjrHGt2Uro8EEAEBHF001vtXGLekanFd3j7X8o3kKAEBXtTxzWoTPvEpH9YnUxcpxU43HGUoAAHT2r7ZtSde0bLNHmacAAHT2oWwRy/lg4ZaOVmOL62aL1xpIAAD0Fc+2bUu65g/Vzm7hM68AAPQ21VhdX8ws3NLRaDkfdkw17pytnG8gAQDQ+bB3Hxu3pGv8UG2N07IVD9UCAND7odrnZ42dNm7pKJRttjNb/KRBBABAZx+Zapxt45Z0zd+gXDlmqvEYcxUAgM5y3+rKiTZu6Wj8QFlj19jKuw0iAAC6qvGsaREn2LglXdOW82HHWMs3ZiufMV8BAOj85Z9vsnFLR+dJ1FsYQgAAdHbpVON+y/ngUzmS+jxc22bXyxYvNV8BAOhprPFs27Z0VA558URDCACAzv4+W9zMti2pV+PacFy2+JlsZb8ZCwBAx6//fGCqcS0bt3QEW86HE7OVtxlCAAD0PeCVX50WcYqNW1LXB2xrfHe2cq45CwBAR2PWWNi2pSP69uTsG7OV8wwgAAA62pet/IDPu0o6DGfYWbbyWnMWAICOLssaz7JtS0fu7ckd2eLHspXPG0AAAHT0D9lmd7JxS+rduDbszhpPz1YuM2sBAOjoTVONsHFLR6D11dmpnjwFAKCzg9nK/1nOhxNt3JIOR1ON78hW/sW8BQCgo/PGGg+0bUtH5lB3j2zlQwYPAAAdTWMtj7RtSzqMb1FeK1t5U7ZyyMwFAKCTA1njGVON423c0mFsOR92Z4ufyFYuMHgAAOjo/VOd3crGLelwljWeka1cbuYCANDRX081bmbblg7n25OLODtbeYmBAwBAzydOx1r+dDkfjrFxSzqsP1C22d2zlc+buwAAdPRvY41727alw3qYi7tmK+83cAAA6OjibPEw27akw924NhyTLf7V3AUAoOtnXlv82Lg2HGvjlg5D66uzvVnLjxg2AAB09pnlfLi2jVvSEfmRssazzF0AALqq8capxg1t29LheHtyEWdl9XlXAAD6Gmt5hW1b0pFqqnHPbGW/+QsAQEefH1t8/bg2WLil7j9Q1rhJ1viYQQMAQF/xUNu2pCN2tm1xerb4sNkLAEDns+2Ts8122bilvk+Y7swaD/SUKQAAnZ2fbTazcUs6gg/fHp81nmn+AgDQ+TOv780ae2zcUsfGGrvHGi81ZAAA6HyAe+1U42Qbt6Qj+gBui/tmK5eZwwAAdHTFuLZyUxu31PcAd2rWuNCAAQCgowPZ4iHj2uAJU0lH+iHcm2QrbzKHAQDoaarxC7ZtqWNZ4/sNFwAAOr89+cmscXvbtqSj8BDuKdnK07KVg+YxAAC9jK383XI+HGvjlvr9QPknhgsAAH3FH051drZtW9JROee2qNnK58xiAAA6Om+qs9vZtqU+T5ZGtnKOwQIAQEeXZotH+7yrpKP2A+Uibp+tvM08BgCgowvHVp5g25Y6NNb4n9nK0mABAKCjj0w17mnblnS0Wl+dnZytvMg8BgCgo0PZyquX8+EUG7d0TX6cXBt2jzWen63sN1gAAOh4YPuTbMXnXSUdtZbzYUe2eJjPvAIA0NmHs82+2cYtXYOyzW6erbzDQAEAoKOLs8WTbduSjnbTIm6ZrfyTuQwAQN8zb/np5XzYbeOWru4PlDUekq181kABAKCjc7LGfW3bkjbAW5R7s5UXZysHzGYAADr6o6muXNfGLV2NxrXhxGzxGz7vCgBA38+7xhumGqfbuCVtkAdzvz9budB8BgCgo4+OrdzDti1djaYat8lW3mSQAADQ0WVjjafatiVtlNZXZ2dnK6P5DABAR1dkKw/zmVfpa397cudYYy1bOd8gAQCgo2mqcRcbt6SN0nI+7MwWLzSfAQDoqpbnT4s408YtfQ1lm52aLX7NEAEAoK94u21b0kZrWkQ1nwEA6Ozj2eJWy/lg4Zau8g+UNUrWeK8BAgBA3ydI42ds25I2WuuL2Y2zlaU5DQBAT1ONB68vZrts3NJVaDkfdk41vjlbudQAAQCg8+Hs1jZuSRutscYJ2eIV5jQAAJ2/IvRHWWOvjVu6Km9PttnubPEUgwMAgM4Hs3/KFifbuCVtvDcoV3ZPNR5uTgMA0Nnn1xeza9m4pavyA2WNE8ZWPmpwAADQ+e3Jp06LOMbGLWmjtZwPO8ZabpetfNK8BgCg92debdzSVWiqszsbGgAAdHbBVOObl/Nhp41b0oZ8WLfNrp0tnmdeAwDQ+WtCr1zOh902bulKGlv8ioEBAEBnr88aK7ZtSRv4Lco9Wcsjs5VLzGwAADr69PpidmMbt/TVD2SnZCvvMzAAAOiqlp9fX8xOtHFL2tAP7Na4mzMxAACdLbPG99m2pa9Sttk9s5XRwAAAoKPzssXc510lbfTWFytnZisvNbcBAOhof9Z4nm1b+spvT+4aW3lWtnK5gQEAQEd/NS3ipjZuSZvgXLwzazwpW7nY7AYAoKN3TjVubeOWvtyToquz62UrbzYoAADo+qRoK7+6nA97bdySNkNTjXtlKx8zvwEA6OhzY42H27alL1PWuI9DGAAAh+Hzrg+0bUvaLI1rw2nZ4rXZyiEzHACATg5kjd+eapxs45a+pOV82JOtPNlnbAAA6P8Zm5Wb2LglbbIHeH8uW7nEDAcAoKO3ZI3b2balL2laxA2zlT8zIAAA6Pl517GWP/B5V0mb7gfKNvsf2Uqa4wAAdLTMGtW2Lf3H25M7ssW9spWPGxAAAHR0fraZw5ekTde4NuzOGm83xwEA6OhQtvKsqcbpNm5px44d66uz47KVxxsOAAB09onlfDjDxi1pMzbV+AlzHACArmq8LWuEbVvasWNH1rhBtvIqwwEAgJ7GWn7fti1p875FuXKTbOVi8xwAgI4uHFvcc1wbdtq4ta1bzocdU427ZCujwQAAQE9Tnd3bxi1pEz/Me0LW+EfzHACAvuJpU53ttXFrWzctYs9U48cNBAAAOr89+elpEdeycUvaxD9QHpM1ftlMBwCg82dePzTWOMHGrW3dWOO4scafGwoAAHT2/GzlWBu3pE37QG+NHdniG7LFRWY6AAAdHRjbyp1t3NruB64bZA1/UwMAgJ72Z5vVcW3YZeOWtMkf6r1xtvJX5joAAJ3fony2bVvbuqzxKMMAAIDOB61/zhq3tG1L2gIP9Z6YLZ6crRww3wEA6GWs8cFxbTjFxq3t/APlaw0DAAD6iudmm51p25a0Jc7NLb4jW/m02Q4AQEf7pjq7n21b2/VJ0FtmK+cZBAAAdHRx1njYuDbstnFL2iIP9t4sW/lr8x0AgI4uG1v5Fdu2tmVjjf+drVxkEAAA0NF7pxp3tW1L2kIP9+7JFr+UrVxhxgMA0MmhbOVv960OZ9i4td0OWCdkjb/44kVgGAAA0MPBbPF7/o6GpC34gO88W/kXcx4AgI7OyRbfbtvWtiprfFO28hEDAACAjtazxqNs25K23EO+iyjZyjvMeQAAOro0W3nqcj7stXFrOz39+SPZyj4DAACAjt4/1biLbVvSVms5H/ZkK7/nM68AAHT2qqnObmTj1vb4cXJtODlb/G62csDFDwBAJ4eyxZ9nKyfYuCVtybcoa6x50BcAgM4+ObZyX9u2tsuh6k7Zyj+68AEA6OiiscbjbduStmr7VlfOSH+HEgCAvg5kjcftWx2OtXFrq789uWus8dBs5SIXPgAAHZ031bitjVvSVi5bPNO8BwCgr/iLbOEzr9rqh6nZtbLF77jgAQDofKD6a9u2pK3etIh7mvcAAHS2nq18/XI+WLi1hX+grHGrrPEhFzwAAF3VeIxtW9JWb30xOzVb+aS5DwBAT1ONR06L2GPj1pZsXBt2jS0W2crlLngAADq+PXnpVH2ORtI2eIOyxt6s8WxzHwCAzufqV2aLE2zc2qoHqeOnGi90oQMA0NNY4/VjjWNt3JK2evtWV3ZNNVq2csj8BwCgo0vWF7Mb2ri1JcvF7MyxRrrQAQDo7JFTjd02bknbobGWm2UrHzb7AQDo/JnXH7Vta4u+QTm7l4scAIDO1rOV29q2JW2js/Xp2eK3zH8AADp/5vVvlvPB36HUFnzKs8XvuMABAOjsz7PGDWzbkrZLy/mwO2t5SLZykXsAAAAdTdMibmnj1lY7QJ2WrXzcBQ4AQFe1PGF9dXacjVvSdipb3Clbeaf7AAAAHV2cLR5r29YWOzzNvj1bOd8FDgBAR5/KFvddzoedNm5J26n1xcpp2crz3AcAAOjoULby2uV88BCwtszbk7vHVl6Yrex3gQMA0NErpkXcyMYtaTs21vJD2crkXgAAQEcfyhp3tm1rSzTVlVm28i4XNgAAHV2arfzscj7ssXFL2p5n7dltfOYVAIDO1scaj7Zta2s81dniwdnKv7uwAQDo6ONZ49ts25K2a8v5cFzW+NNs5aB7AgAAnRzMGi+Yapxm49ZmPzAdn638ps+7AgDQ2RvXV2fXsXFL2t5vUcbjs5UL3RMAAOjonWONu9i2tbkPS4uIbOW1LmgAADq6Yqzld5bzYaeNW9J2LtvKbbKV89wXAADo6IKs8WDbtjbz25M7s8X9s5V/c0EDANDR57LN7m3jlrTdG9eGHVnDQ8EAAPT2gqzhq0XanK2vzk7IVn7OhQwAQGfvX86HU23ckrRjx1TjB90XAADoqsaHxxq3sW1rU5Y1VrKV17mYAQDoaazxa7ZtSfr/3qJcuX76O5QAAPR1Rdb4vqnGbhu3NlVf/LzrN2crSxcyAAA9TXX29TZuSfr/36DckzX+xv0BAIC+Z+947lTjBBu3NtcBaRHHTjWe5CIGAKDv25PlX6bFzAFJkr5YtpVd2XzmFQCA7l8v+sRY43QbtzbZASlOzxbvdBEDANBXPDXbzCdmJOmLjWvDjqxxy6xxnnsEAAB9zb7Nxq3N9gblXVy4AAB0dslU4x7L+bDTxi1JX/IjZY3rZSuvdp8AAKCrGi+ybWtzvUFZ4ykuXgAA+h6MyruzlpltW5L+y0PCNY7LFj+RrRxwvwAAoKNzxrXBZ161qX6gfIsLFwCAzp93fWa22Wm2bUn6sm9R3itb+ZR7BQAAHV041VjYtrVZnty8XbYyuXABAOh5KMoaDxjXhl02bkn6sg8Kz3zmFQCAzvaPNZ5n29ZmeWrzKdnKZS5cAAA6eutU4+ts25L0FR8W3pktnpCtXOqeAQBAR+/JthI2bm30A9EpWeNvs5VDLloAADo5kC2eOa4NJ9m4JemrPjB832zln903AADo6LNZ46G2bW3ossa9s5VzXLAAAHT0uazxMNu2JF3pQ8NnZSuv9dAwAAAdXZ6t/NpyPhxj49ZG/oHyidnKRS5YAAA6+odss1vZtiXpKpzLWzzNZ14BAOjsdVOd+cyrNuyTmtfPVl7hSU0AADranzVeOK4Ne23cknSVzubfla18zv0DAICO/m1s5f62bW3Ixi983tXfugAAoKf1qcZDbNuSdNXaN185KVv5gPsHAAAdHcoWP79vdeUEG7c21o+Ta8OescajspVLXKgAAHR0zlTjZjZuSbrqZYunun8AANDZ32SLYtvWBjv8zM7OFi90gQIA0Ff8mW1bkr62pkXcyf0DAIDOzs8a91nOh502bm2cHyhr3CFrfNwFCgBAVzUeatuWpK+tfasrx2YrH3EfAQCg80PET5nq7DgbtzZE49qwJ1s8OFvZ7+IEAKDjwefiqcYZNm5J+hrfoKyxM2s8w30EAICexlbeNbbinK4Nc/A5JWu80sUJAEDXg0+NPxtr7LJxS9LX/AbljqnGN2Yrl7ufAADQ0cGpxq1t3NoYb1C22cpYY58LEwCAjg5MNR481fC3LSTpapQtbpAt3uh+AgBAVzWeaNvWRjn0PMJFCQBA58+7fjJbFNu2JF29pjo7JVs83f0EAIDO/mE5H/bauLUBfqAsr3JBAgDQ2Yuyxpm2bUm6ei3nw66sZS1b+bx7CgAAHV0wLeL2Nm4d7QPPtbKVf3dBAgDQ2aPXFzNPZErSNXqgOG6brbzZPQUAgI4uyxZPsG3rKB92Zg/IVi52QQIA0NFHssXdlvPBwi1J16B9q8NJ2cpvZCuH3FsAAOjoLftWV062cetovT25d2zl5dnKQRcjAAAdvXRaxPVs3JJ0zRtreXC28hn3FgAAOvrUVOM+tm0dlaa6cvNs5QMuRAAAOrooW/nJ5XzYbeOWpB5n99nNspW3uL8AAND37B4/5+yuo/MUZosfzFbShQgAQEcfyhrfYtuWpD4t58OxWcvzspUr3GMAAOjolVON69i4daQPOCdmK8/LVg64CAEA6Ogv11dnZ9i4Jalf2eJBHjAGAKCz94017m7b1hE+3Mxun628zQUIAEBHF2SLn1rOh502bknq17g2rGQrH3OfAQCgo0uyxqOmGrts3DpSb0/uHFt5eLbyeRcgAAAd/eu0iDvauCXpMDxoXOPl7jMAAHT2sqxxfdu2jkjri9nJ2cozXHgAAHT2tuV8OMbGLUn9m+rse7OVQ+41AAB09ImscSfbto7UU5c3y1be6MIDAKCnscbP2rYl6fA0rg2nZytL9xsAADranzV+cKqx18atw9pyPuzMFvfLVi504QEA0NGh9cXKrW3cknRYHzj+c/cbAAC6qvEnY41Tbds6rE2LOCFrPN1FBwBA37cny4eW82G3jVuSDuMPlG32PT7zCgBA5x8ol1njhrZtHd4fKGucna18wEUHAEBf8XjbtiQd9jcoV7LGJ91zAADo7GG2bR3uHyi/1YUGAEBnF0w17mzblqTDfaafnZ4tnuu+AwBA57coX2Hb1uF92rLFb7rYAADo7PVjjevatiXp8DauDbuzxQ9kK/vdewAA6Ogz49pwbRu3DkvL+XB8tvIpFxoAAD1NNR6/vlg53sYtSUfgR8oa35itfMz9BwCAji6dajzYtq3D0lTjbtnKxS40AAA6+uxYy32X82GnjVuSjsjZ/gbZysvcfwAA6OjgWOOPx7Vhl41bh+Mpy6f7DAwAAJ39zVTj5rZtSTpyZYvHZCsXuQcBANDRh7Ot3NK2rd5PWF4ra7wtWznkIgMAoJP92eKXxrXhBBu3JB3RB5Dvka18wH0IAICO1rPGo23b6vt0ZY3vzFbOdYEBANDReVnjAbZtSTriDyGfkS1e4SFkAAA6OpAtnj+uDSfZuNXzB8pfzFYucYEBANDRm7LNbmLblqSj8hblE7KVC9yLAADo6K3Z4uts2+r1ZOVKtvI6FxYAAB1dnjV+e1wbdtu4JemonPXvmq38i/sRAAAdjWMrD1rOBwu3ujxVOc9W/tWFBQBAR5+ZaqzatiXp6JUt/tpnXgEA6Ct+fX2xcoptW9f0icrjssbPZiv7XVQAAHT07nFtONPGLUlH9QfKJ2QrB92TAADo6C1ji1vatnVNf6BcyVZe7YICAKCjQ1nj2bZtSTrKZ/5F3NoDyQAAdHZh1rj/cj7ssnHrajf6mxQAAPR3wOddJenot5wPe7LFu9yXAADo/JnXp2WbnWjj1tX7cXJt2Jst/pfPvQAA0Pmgsm+qcbyNW5I2wFuUNZ7svgQAQE9jKx8cW7mubVtXq6xxZtZ4vYsJAICuB5Uaz7dtS9KG+YHyttnKxe5PAAD0NNXZfW3bunpvULbZrbKV811IAAB0tH+qMbdtS9IGeTi5xVnZ4jXuTwAAdP560m/btnV1Dyk/5gICAKDzAeWj2eKGtm1J2iBvUC7iuKzlce5PAAB09onlfDjWxq2v/QfKGm91AQEA0NnvZo1TbduStDFazoed2eKe2cq/uUcBANDRZdMivt7Gra+pcW1YyVYucAEBANDzcJIt6lRjl41bkjbQA8ptdpNs8Tr3KQAAOtqfLZ66nA8Wbl31phpP/MI/HhcRAADdvG2scRvbtiRtuLcoj8tanpqtHHCvAgCgo/etr86uZePWVT2YHDu28hfZyiEXDwAAPT/vOtU4w8YtSRuvsZaarZzrXgUAQEefnmp8t21bV/Htydlts5WPuXAAAOjo89niUcv54POukrQx/1/ALFv5W/crAAA6ujRbecZyPuyxcevKn5ps5bHZytKFAwBAR++danyDbVuSNmbL+bB3rOW3spXL3bMAAOjo9dMiVmzcurIDyUnZykuzlYMuGgAAOvqz9dXZKTZuSdq4ZYtFtvLv7lkAAHR0Trb4Ttu2ruwwcrds5Z9cMAAAdLSeLR65nA8Wbkna2A8tn56tvMt9CwCAzp4y1fCZV33Fg8jubOVHs5ULXSwAAHT0sWkRt7FxS9LGb6zl17OVA+5dAAB09Kqs4allffmmOjsrW/wfFwoAAB0dylZeuZwPe23ckrTxy7byLenvUAIA0Ne/Zo272bb15Z+SbOVO2coHXSgAAHS0f6rxCNu2JG2S/zewNpycNfwdSgAAejqQNf73VONYG7f+U8v5sCtbadnKFS4UAAA6umx9dXa2jVuSNk9TjZe6fwEA0FWNPx9rnGnb1n8+fCzi1Kzld10kAAD0NNbyluV8sHBL0iYq2+xb09+hBACg7w+UF2eNW9m29V+fjhyylX92kQAA0NfsUbZtSdpkP1DWuF7W+Ih7GAAAnX+kfKJtW//1B8pVFwcAAJ0tp0Xc2rYtSZvt/xHMTs4Wz3QfAwCg8w+U/2Db1n9+OrLFC1wcAAD0Fa8ea1zLti1Jm6txbdiVLRbZykXuZQAAdHRxtrJi49aOHTt27FjOhxOylcmFAQBAT1ONx6wvVo6xcUvSZnyLMr4uW3mn+xkAAB0dmGo80ratLxw6FrGWrex3YQAA0NGnxlq+cTkfLNyStDnfojw5W/xqtnLIPQ0AgE4OjTVeN64Ne2zc3p7cnS3+0IEDAIDOn3d9SbbZ9WzckrR5yxaPyFbOd08DAKCjc7LN7mDb3uatL2Y3ylY+4oIAAKCjS7OWn1zOh702bknaxD9Q1vj6bOXd7msAAHT0+azxONv2Nm+s0bKVz7ggAADo6JNZ47ts25K0uZtqnJItXpytHHRvAwCgk4PZ4mXj2nCqjXt7Pw35zGzlchcEAAAd/VW2lRvbtiVpSzzY/KPZyj73NgAAOnrfVONutu3t+yTkLbOVN7sQAADo+3nX+OVxbdhp45akLfH/Dm6b/jQMAAB9XTTWeOy4NuyycW/PpyAfkK2c50IAAKCjc6ca97NtS9LWKVv8ic+8AgDQ2Quzza5j295+T0CemDV+JVs54CIAAKCTQ9niLePacJqNW5K20A+UNR6e/jwMAAB9/dPYyv+wbW+/tydvka28wQUAAEBH+6caT7dtS9KWe8j57Gyx7j4HAEBHF2eNBy7nw24b9/Z6+vE+6Y/cAwDQ1yXZVu5s25akLfj/EVr8rfscAAB9xbOyzU6xbW+fJx9PzlZ+xT98AAC6qvEBf+Bekrbs/0t4lHsdAAA9ja18MlsJ2/b2eXvyulnj7/3jBwCgp6nGL9u2JWnL/kB5k2xl6X4HAEDf/5cwa7btbdLYZnfOVi70Dx8AgI6umGrcy7YtSVv2YefTssWfud8BAND5M69/ZNveLoeKFv+Pf/AAAHQ+ULx/rHGWbVuStmbri9kxPvMKAMBhMC3nw2k27u3wBmWN9/sHDwBAZ7+RNU6ybUvS1mw5H3Zki7tmK+e45wEA0NHBbLPvsnFv+bcnV26drez3Dx4AgI4uzBb3mWrstHFL0tZtWsT1spaXuu8BANDRoWzlBcv54P8pbOkfKGs87Yv/sf2jBwCglzeONW5m25akLf8W5e5s5bHZyqXufQAAdPTP66uzs23cW7RxbTh5rPF2/9ABAOj7KZZ42lTjZBu3JG2DB59b3DNb+bD7HwAAHX0ua3yPbXuLNtXZvbOV8/xDBwCgo89kc4iQpO3z/xZWbpitvMb9DwCAji7PVp6znA97bdxb8Q3KVp6SrVzkHzoAAB39fda4tW1bkrZHy/mwZ6zlV3zmFQCA3v9/YVrETW3cW6x9qytnZCuvTn9/EgCAfg5lKy/Yt7pyvI1bkrZP2Wb3zlY+5T4IAEBHn84WD1jOBwv31jo8xL3S34gAAKCvz2WLh9i2JWnbvUV5arby9x6CBgCgs2etr85OsnFvnYPDnmzl8dnKxf5xAwDQ0Qd9fkWStmdjjZ/PVq5wLwQAoKM3Zo1b2ba3SFOdXS9bvNQ/bAAAOjqQLV68nA97bNyStB3/X8PKHbOVC90PAQDoaF+28u227a3yVGMrd89WPuYfNgAAHV0y1fg+27Ykbc+W8+GYsZYPuB8CANDZk6YaJ9i4N3n7VodjphqPylYO+kcNAEBH077VldNt3JK0fcsWT3I/BACgqxpvGGtcz7a9+Q8L18kWr/CPGvh/2bvvd82yssD7lbqrI3RDN6AN7T7PuiW1KGF8AVGGIMFLxafOuo9pEFBkAMPwqoCMo6iDEZwZ0HmH6AQDtM6IgzCIWVBE0CEJAhKUKOx7Vz1N51TV7w8UitKhquupEz+f6/r+A2vtsM5eZ+9HkqTl1v6r1TbAzjbm7AHldyglSZK03K6q3h4w9WbBvVUt5sOuyrioMiYHtCRJkpbZ1Nvcihtgh/9TdG/nVW/vcF+UJEnSkt+i/JmyQbl1Tatt19Tb4xzMkiRJWvbnXau3u1hxA+zwDcqcnV7Zfsp9UZIkSUveoHx39bbbinvL/qHQdle2/+lgliRJ0pI/7/prle02VtwAO9u4NuyubI+ujEvdGyVJkrTErpt6u48V9xZ16MDKuZVxtQNZkiRJS+zI1NsTDh1Y2WfFDcDU290q4w3uj5IkSVpmY2/Psdreun8kPMFBLEmSpCX33rHHfa22ATj6FuUZle3HKuN690hJkiQt8TOvb62MM6y4t5jFfNhX2V7pIJYkSdKSP+/6sqnP7mDFDcBnVW+9Mj7hHilJkqQl9vGpt4dYbW+1tydX290r4+8cwJIkSVpiV1SP717MB593BeAfNyhzdrfK+AP3SUmSJC2xy6u3Z1ttb7k/DtqTK2PhAJYkSdISe3tl+0qrbQA+17g2nFrZXugzr5IkSVpiRyrjVePacK4V91Z5e7K3PZXxiso47ACWJEnSEnvFoQMr/jAA4PM3KXt7YmWM7pWSJElaYu+denuE1fZWeXuyt/tUxl86cCVJkrTELhl7PN1qG4Cb+Gfpu1bG29wvJUmStMSuGnv7oXFt2GvFvTX+a/Hb/deiJEmSltwH/Dg9ADf7D9PZ/rvPvEqSJGnJ/c/K2V2stjf/fyzetnr7BZ93lSRJ0hI7Utl+d1wbzrbiBuAmNyh7+5bKuNx9U5IkSUvsg9XbQ622N//bk19WGW90wEqSJGmJXT319mNW2wDcwj9N366yfdx9U5IkSUvs2sr23ePacKoV9+b9Q2BX9XagMi51wEqSJGmJLSpX7mXFDcAx/OP0L7tvSpIkacm9vDLuYLW9SVVv51bGCx2okiRJWmq9vdFqG4Bj/Ofprys/OyNJkqTl9onKuNdiPlhwb9L/UpxVb3/lQJUkSdIym3r7fqttAI7pn6ez3b6yfdT9U5IkSUt+NvGEqa/stuLedH8AxO7KePRnvsXrQJUkSdLSuqxydncrbgCO6flEb2dVtl91/5QkSdKSe/WYba8V9yYz9bZn6u35DlBJkiQt+fOufzT1dlsrbgCOxcEDs31Tb493D5UkSdKy/4H60IGVO1pxbzJjb/vG3j7gAJUkSdKSP6Hy76feTrPiBuBYLObDrsp2n8p4j/uoJEmSltvsW6y4N5nKlQc5MCVJkrTc2qHK9kCrbQCOx7Tazq8eL3EflSRJ0jIbM353MR/2WXFvpg3K3v6zg1OSJElL7rfH3lastgE4zrco91bGkyrjcvdSSZIkLbGPTH3lHlbcm8S4Npxb2d7uwJQkSdISu76yPXvq7QwrbgBuxT9SP6Ay/q/7qSRJkpbYJZXtqVbbm8TU22MqY3RgSpIkaZn/lTj29vVW2wDcGgcPzG5XGS93P5UkSdJy/5k6fnUxH0614t74tyd3jb29oDKudmBKkiRpif1e9XY3K24Abo3FfNhd2Z5WGYfcUyVJkrTE3jKtti+x4t7wDcqVoTL+xAEpSZKkJXZ1ZfsJq20ATkTl7IGV8R73VUmSJC2xqmxPWsyH3VbcG7rYjwOV8XcOSEmSJC2xvxt7e4zVNgAn+BblWZXxuso44t4qSZKkJfaSgwdmt7Xi3riF/qmV8eOVcZWDUZIkSUv9XEpvd7biBuBEjb39YGVc6d4qSZKkJfZn1dt9rLY3yNRnX1TZXulAlCRJ0hK7trK9aDEf9lpxA3Dizy5WvqQyDrq/SpIkaYldWtm+ZTEf9lhxb8R/IWY8wuddJUmStOxF/tTbqtU2AMuwmA/7xh5/7v4qSZKkpdbj+dNqO8eKe50dXF05fertWQ5CSZIkLbm/XcyHM624AViWytmT3V8lSZK05N5V2b7YanvdF/ftzpXttx2AkiRJWm7tBVbbACz3n6xnURmXu8dKkiRpyT1q6m23Ffc6WcyH3dXbV1TGwsEnSZKkZTattodbcQOwTGNvZ1XG69xnJUmStNzPvLYXVG/7rLjXydRneyvbMxx8kiRJWnLvnXo7z4obgGWqXDmlsn2/+6wkSZKWvEH5geptvxX3ui3s49TK+GMHnyRJkpb9n4dTb6dZcQOw1Dco14bd1dtXVcYl7reSJElaYoen3h5sxb1ODq7OvqgyjjjwJEmStMSum3p71GI++O0GAJZu6u2LKttr3W8lSZK0zMbe/ovV9vot6r/XQSdJkqQl946xxz2ttgE4SW9RnlbZfrAyrnPPlSRJ0hK/BvWeqbdzrbhPssV8OKWyvbwy/ldlvFySJElaTu27K2fnWHEDcLJUbw+sbC91z5UkSdISe2VlfJvV9sl+e3K1fVllvHvs7RcqZxdVxp0kSZKkE23q7WyfdwXgJL9Fub+yne++K0mSpCU9y3hI9fYHlfG/xrXBP12f1P82zPZ9lXFpZXy6sl089pnPcAEAAAAAALAjLObDqWNv31gZbz76EwLvnXp7uJE5SQ4dWLlNZfzO53xb93BlvL96+5apt7ONEAAAAAAAANvR2Gd7xpwNY7afroyqjCNH98uuHHv7d4v5sMconQS12h5cGe++kR8BvaoyfqYyZkYJAAAAAACA7WQxH/ZVbw+tbK+7kX2yGyrjlw+urpxvpE6C6u27KuPQTQz8kcr432PGwxfzYb/RAgAAAAAAYKurjNtXb0+qjPfexB7ZDZXxjjHbVxit5Q/+bSvjxUc/63pTg399ZbyzevveabXd3qgBAAAAAACwVVXGXSvj5yvj4M3sj332a6OP95nXJZt6u3dl/OktDP5n36ScqreXTauzC40cAAAAAAAAW8nRT7o+sjLeUBlXHMP+2A3V4wXTajvX6C3JuDbsHnv7psq45Jgm4OjblGNvHxzXZg8a++w0owgAAAAAAMBmtpgPu8feblu9PaN6O3j0xbxj3Btrb69sdzWKSzKurdymsv3scWxOfm6HKtszK+MuXmsFAAAAAABgMxrXhv3VZ18+9vaKW7kndnX19oipt91GcxkTkm2lMv74Vk7GDZVxWWW8onp7YGWcYkQBAAAAAADYLMY+O7eyPa6y/d/KuP5W74n19oLqzV7YiVrMh13V21cc3WS84QS6vjL+ojKeXBl2jgEAAAAAANhQi/mwa+rtzpXx/Mr46Anuhd0w9vbOsbfTjewJmlbbvqm3HzjRCfmcxjHjeYv54EdCAQAAAAAA2DCVcVH19sbKuGJJ+2DXjGsrFxnZE56Ydlpl+5MlblB+9hu8vz/19uDqbf9iPhhoAAAAAAAATrrFfNhdvZ1VGU+tjI9VxpEl74P9W6N8gqbeLlzypHxuH6zenjbmyp3GtcFgAwAAAAAAcNJMq+2UaXX2ZZXx0sq4/GTsf40Zb1zMh1ON9gmo3r7nJG5Q3vCZ37ZsL6uM+xhtAAAAAAAAToZDB1b2j719Y/V4fWVcdxL3vj558MDMZ15PxNjbq07yBuVn++PKWF3Mh1OMOgAAAAAAAMsyrg3njb39SGX87TrseV1avT3ZqN/6yfrCdZqoGyrjcGX8bfX2o1NvdzD6AAAAAAAAnKixz+5VGRdXxqfXcc/rNxbzYb/RvxUq47GVcck6TdZnu7oyfqsyLhrXVvaZBQAAAAAAAI5HZeyaejuzevvmynhPZVy/zvtdb516u5eZOE6L+bBvzPjvJ/kbvDf3A6IfqZw9dlpt55oNAAAAAAAAjlVlzCrjeZVx1Ubsc1XGOPb2nWbiOE19JSrjLRs0aZ+pt6l6/Ez1dtFiPuw1KwAAAAAAANyUxXzYP2Y8tDJevaF7XBnXV7YXjGvDaWblOFS2Xhkf3uDJu6Eyrqjefnvss0eMa8OpZgYAAAAAAIB/blpt50+9fU9l/NUGfNL1xvr9qc/ubmaO0WI+nFIZP10Z12yCybvh6Gdm318Zz6yMU8wQAAAAAAAAu3bt2rWYD7trddaqt5dWxlgZRzbJ/tYnx96+wQwdo6m3L6qMV22SyfvcrqyMXz24OrvT1JtPvgIAAAAAAOxglbF/zNlXjb29pzKu3WT7Wkeqt2cdOuAzr8dk7O2RlfHBTbhB+dnJfGdl9Mo422wBAAAAAADsLIv5sKcyLqiMH62MyzfpntYNle3Vle1CM3YLKuPU6u1pRz+resMm7iOV8SNjzmbj2rDbzAEAAAAAAGx/U2/7p96+qjIurowrNvl+1icr4/9ZzAcTdwuT+gWV8fJNPpmf7dLq7ZXTanuAmQMAAAAAANjeKuPUynhKZby1Mq7fCvtZU29PnVbbPrN3M8bevrR6+9AW2aC84ejB97bq7TsW82G/GQQAAAAAANh+xrXhC8eMFxx9K/GGLVNvF4+9nW4Gb8KhA8OeqbdeGYe31MRmHKmMGnv7uXFtdkFl7DGbAAAAAAAAW9tiPuyq3k6ZVtuDqrffq4yrttge1g3V28Hq7XZm8yZUttMq23/dchP7T3tjZTzq0IGVM8woAAAAAADA1jSuDburz+5YvT29Mj6+lfevpt4eb0ZvwtTb7Svjw1t8g/KGyvjI1Nv3T73d0awCAAAAAABsPZXxLyrbSyvjsi2/d9XbL5nRmzCttodtg83Jz3ZZZby4Mu67mA9+eBQAAAAAAGALWMyHUypjtTL+ZBvtW71/MR/ONrs3Yuztp7bRRN9w9DvEbxizrY1rgx8fBQAAAAAA2MSm3u5Uvf1oZXyoMo5soz2rQ5Wzh5rhf2ZcG/aMvb1xm21Q3lAZhyvb34+9/dTY27mL+bDbbAMAAAAAAGwe49rK3sq4R2X8ZmVcsQ33q66sbM82058/8feqjNqGE/653/f9g1qd3acyTjPjAAAAAAAAG29abbetnD1hzPjoNt6nOlK9/R97VP9M5ew7t8WPjN7C5I+9vasynlQZ55t1AAAAAACAjbGYD3urt3tWj5+u3i7Z5ntUN1TGOyvjvmb+c1RvL6mMa3fA5N9QGZ+sjOdPvd1jMR/2mH0AAAAAAID1M64N+8c+e1T19trKuGqH7E99ojIea/aPqowvrIw/3SGT/9kur97eMPX2cEcAAAAAAADA+qiMMyrjmZXx3sq4bgftTV1bGc9bzIdTHAWfORAeURkf2GEblDdUxuHK+HhlPOXggZWzx7Vht6MBAAAAAABg+abe9hw6sHJuZVy8A3528KZ61dTbhTv+YFjMh91jxo9UxhU79EC4oTKuGjNeMebsfmOfneoSAQAAAAAAsByL+bC7Mm5TGavV23sq48gO3pP66+rtoTv+oDi4OjunMn5pBx8In+266u3Pq7fHTquzs10uAAAAAAAATsy4NuwZc/bFlfHvK+Nj9qPiyurtXy/mw94dfWBUb/epjD9zQPxDHxt7+8nKuMBlAwAAAAAA4NYb++yrK9tv7OBPun5+Pf7jwdXZOTv8wGirlfEpB8Q/6YrKeGVlPMClAwAAAAAA4Pgs5sP+6u2JlfGuyrjO3tM/6fWVLXb6wfGDlXHYwXAjn3zNeOfU2+MOHVg5c+rN1QQAAAAAAOBmVMbuyrjL2NvzvSB3U7VLqrcHjGvDTj1IZhdWtlc5EG62q6u3F1XGXRfzYY9LCwAAAAAAwOc7uDo7ozIeWRl/bn/pFjcpv3dcWzllRx4ole3ele2DDoJj6g8r2yPHteFMlxgAAAAAAIB/NPV2x6m3Z1bGR+wpHVO/WRln7bgDZVwb9lS2x1TGtQ6CY+pIZbyvsj1r7LM7u9QAAAAAAAA73WI+7KuM+1bGiyrjKvtJx9wnK+PcHXfAVLbTKuN5DoDjblHZfmnq7V4++QoAAAAAAOxU49pwxpjtmyrj9ZVxtT2k42vq7aE77qCpjNv4BvAJ/S7leyvjMZXhCgQAAAAAAOwYi/mwa+yz24599pzK9tHKuN7e0a3aoPyJHXfwTL3d0+Qv5bOvPz5mfMFiPux1SQIAAAAAALazythfq7Mvqd7+zD7RiTVm/PliPuzbUQfQ1NtTTP5SurYyXjutzh4y9Xa6SxMAAAAAALAdVcb5lfHEsbf32B9aSgcPHpjdfWcdRL39holfWtdXxtuqt++dVmfnLeaDqxQAAAAAALAtLObD3qm3iyrjP1XGp+wLLa3Lq7cn7KQD6ZzK+LCJX3qfGjNeNq4Nd3a5AgAAAAAAtrqpt11Tb19Tvf1RZVxuL2ipXVe9/bedczCttodUxiUm/qR0dWW8aeyzB7tsAQAAAAAAW9ViPpxeGU+ujI9XxmF7QCelN41rwx13xAFV2Z5bGdeY9JPaJ6u3Z0293aky9riMAQAAAAAAW8HYZ6eOObvPmPHrR1/Msu9z8vpg5exR2/+gWhtOr95+rzKOmPST3rWV8YrKeEBl7HZJAwAAAAAANqvFfNg1rc5uW739q8p4m32edenTle2Z2/7gqmz3q4x3m/B17c1jxrcu5sOZLm8AAAAAAMBmVBl3qd7+Q2V8zN7OuvZLlXH2dj+4nlgZnzLZ697HqrfnTL1d4BIHAAAAAABsJpXxwMp45dGvQ9rXWd9eXxlfst0PsP9YGdeb7A3pssp4dfV2/8V82OtyBwAAAAAAbKTFfDi9Mp5UGe+yf7Rh/V1lfN22Pcgq48LKeLWJ3tCOVMaHx2xPHvvsHJc+AAAAAABgvR08sLK3ertb9faiyrjS/s2G7x39v5WxZ1sebJXx4Mp4p4neLLWfr97u5m1KAAAAAABgvYxrwxnV26Mq4y32ajZNL6uM87flAVe9fWtlHDLJm6Zrq7ffrd7mlXGmSyIAAAAAAHAyjX1258r2zMr4gH2aTdWbKuPu2++AWxtOq2w/VBmHTfKm6vDRi8CPVsZ5Lo0AAAAAAMCyLebDnqm3+1S2/1EZl9if2XRN1dsDt92BVzn7gsr2qyZ40/bpMeM1hw6sXOgyCQAAAAAALEtl7K3eVqu3v6qMq+3JbNYX2tq3jWvDvm128LUvrWzvNsGb/EdQe/vg1Ns3jb2dtZgPu102AQAAAACAW2MxH/aMGedVxk9UxjX2YTZ77cWVszO30wG4u3p7hF3xrfMa79jbc6vP7jauDXtdQgEAAAAAgOMx9Xb6tDp7cGX8TmVcZ+9lS2xQvrOy3W7bHIQHD8xOnXp7mondUl1V2V4zZnv02Gc2KQEAAAAAgFu0mA+7anV2h+rtuyvj7Z/5dKh9ly3SNdPqrG2bg7F6O6t6e7mJ3ZK9uzK+bzEf9rusAgAAAAAAN2dcW5mNGS+pjE/ZY9l6Tautb5+Dsbfbj7190MRu2Q5Wby+pjLu4tAIAAAAAADdm7LOHVMabP/OVRvsrW7Gxt5/fNgfkwdXZ/SvjiInd0l1fGX9ZGV879Xb6Yj640gIAAAAAwA5XGXum1dn51dszK+Pj9oO2/AblOxfzYXv89N/U2w+Y1G1TVW8/NK22C112AQAAAABg56qMvZXxoMr4tcq41h7KtuiSQwdW2nY5QF9hQrdVV1ePXx17u/9iPuxzCQYAAAAAgJ1lMR/OHDO+rTLebt9kW3X51LfB71Au5sP+yvD7k9vzk69vGnt7/Lg2nOVSDAAAAAAAO8O02mbV209Wxt/bL9l2XVsZz9v6B2lv962MT5vQbdnhz1x82nPHPruDSzIAAAAAAGxfi/mwt3p7UGW8ujIus0+yLTtSGX+wmA/7t/TBOvX2byrjKhO67XfT33x0M/oUl2gAAAAAANhexpydM+bsKZXxsaMvMNkf2b799dTbfbb0AVsZ/+3o50BN6Havt6qMb6+MO7pUAwAAAADA1reYD3sr4+6V7cX2QnZMn5x6e9yWPWgr45zKeLOJ3FFdUhkvHLPdb1wbTnXpBgAAAACArakyzqreHlMZb/Ay2o7qysp4zlY+cL+qMt5vIndcV1W2N1Rv3zitNpuUAAAAAACwxVTGHSvj2ZXxAZ903ZFdXBnnbtWD97sqYzKJO7LDlfGR6u2nF/PhdJdyAAAAAADYGg6uzu46Zrzq6FcT7XnszP6sMrbe71BWxp7KeFFlHDGJO/ttyrG33xrXZhdVxiku6wAAAAAAsPks5sPusbfTp9XWq7cP+qTrju8TlZFb7kCubCuV8dsmUEf7m8p44tTbuYv5sNulHgAAAAAANodxbdhbfXbXsbfnVcbCnoaO9sxxbdi7pQ7myvaVlfF2k6fPqaq3n5t6u4fLPQAAAAAAbLyxz04dsz26sr2mMq62l6F/rL24cuW8LXVAV2+PrYxDJk//rGsr43cr42Eu+wAAAAAAsHEW82F/ZTyjMt5l/0I3skH5J5Xt7lvmgB7XhjMq249XxmGTpxvpSGW8a8x42rg2nOsWAAAAAAAA66syLqzeXuplM93MBuXB6u0rt9BBPbuwsv2GidMtbFJ+unr7xam3u02rs71uBwAAAAAAcPIs5sOu6u3Uyviaynjz0a8e2rPQzezltCePa8MpW+IAH3v7Ur8/qePo3dXb6rg2nO72AAAAAAAAJ8e02i6s3v5dZUz2JnQsTb39wrTaztz0B/diPuyujIdVxsLE6TiaKtvTK2PFLQIAAAAAAJZnMR/2VW9fUT1+vTKutieh4+j3p942/8/1Tb2dUhnfacJ0K7qiMl5RGQ9czAeffAUAAAAAgBM0rg1nj709oTL+8ujPr9mP0PFUlXGnTX+gV8ZZlfFfTJhuZddUxturt2+fevPJVwAAAAAAuJUq48LKeH5lfKIyDtuD0K1pXJs9YAsc7O12le1PTZhO7EdX49LK+P/GjDPHtWGP2wgAAAAAABybqbd9U2/3rYw/9UlXLeF3KL9r0x/01dsFY28HTZiWsiuf8aeVs6/eEj/ACgAAAAAAG6wyzq+Mp1Rvl9ln0FL2anr79U1/4E+9fZXJ0hI7XL29t3r7vqm3CxbzYbfbCwAAAAAA/FPj2nDqmO2+lfHCyrA5qWX23k1/AlTG002UTkIHq7f/Xhn3qwx3GgAAAAAAOGpabadXb99U2V7vk646CV1aGXfe1CdBZfwvE6WT1DWV8Y7K+Hq3GwAAAAAA2LVrMR/OqN5+rjL+rjIO20vQSejKytnXb+aTYHf19rcmSie5j1fGjx06sHL+1JtPvgIAAAAAsONUxt5xbeWLx95eVRlX2TvQyXyBbOzthzbtyXDowMqK7xprnbquevs/lfGVU2+nLeaDuxEAAAAAANveYj7snno7pzKeWBkfsl+gdejwmPHri/mwZ1OeFFNvX/eZ1zxNltatd1TGd41rw7luSwAAAAAAbGdTb7un3i46+knXskegdeytU2/nb8oTozKeXRnXmiStcwert+eNfXYPtycAAAAAALaryvjqyvh9ezHagD5QGV+5WU+M11XGEZOkDeiKyvid6u2Ri/mwz20KAAAAAIDtYlwbbjdmPK0y3mU/QBvUWNmeuBlPjgsq4+0mSBvY9ZXxobG3p1XGOZXhrgUAAAAAwJa0mA+7ptXZnmm1RfX20so45CUxbWBXjb391GI+bK4TZVptD/VjrNpE/UZl3NXblAAAAAAAbEWVcXb11ivjrz3z1ybp5QdXZ2duqhNl6u2Jn3m90wRp0/SWaXWWU2/nuJUBAAAAALBVVMZQGT9SGQvP+rWJ+sPKuNtmO1meWxlXmxxtoo5Uxocr48em3maL+bDHbQ0AAAAAgM1qMR9OrYwHV8YrKuMqz/m1yXp/ZXzNpjlhKuO8o5/UNDnajC0q4zfHnH3FuGaTEgAAAACAzWfq7azq7Tsr4+2VcY1n+9qEXVa9PWnTnDSVs3tXxhtNjDZx11VvHxj77LHV295N9yOuAAAAAADsSOPasPvg6uz8yviFyjh09OuAnutrc365srcfX8yH0zbHydPb11XGh0yMtkBXVW8vqt5aZZzi1gcAAAAAwEYZ++zMMWcPGzPe4vm9tki/PPX2BZvjBMr4zsq4zKRoi3RNZfx+ZTymMs5wCwQAAAAAYD0t5sPu6u2C6u0Z1dsHvTWpLdQbK+OiDT+JKuP0yvhJE6It2Psq41mHDqyc53YIAAAAAMB6qIw91duXV2//7egnXT2v11ZqrN4evBlOpC+qjFeaEG3RFtXbr0y93d1tEQAAAACAk60ysjL+79Gv/XlOr63W9ZXtcePasG+DT6R278p4mwnRFu7ayviLsbd+6MBw6rg2uEMCAAAAALA0U2+7FvPhnMp4dmV83HN5bel6+5lptZ25YSfUYj7sGnt7eGVcYkK0DTo0ZvvZMWdt7LPdbpkAAAAAAJyIxXzYNfV2WmU8qHr7ncq4zrN4bYP+z9Tb7TbsxJp621cZTzAR2l6111ZvD17MN/j1ZAAAAAAAtrRxbeW8ynhKZfyVZ+/aRn24Mr5ww06syjirMv6DidA27J3V21Mq4/ZuoQAAAAAAHK+xz+5Zvf2nyjjombu2W1NvX7KBJ1e7XWW82kRom1aV8QuV0dxKAQAAAAA4Fov5sK96e3RlvK4yrvSsXdu0r92wk6wy7lAZbzUJ2sZdOWa8certIYv5sMetFQAAAACAm1IZtxl7+zeV8f7KuN4zdm3jfnwDT7T2xSZAO6LeLq/evm/s7TwblQAAAAAAfK7FfNhXGXerjFdWxhHP1bXdG3v79Q074Spn32AStIO6duztlyvbl49rw363XAAAAAAApt5uO63ODlTG2zxH147ZoMx434addJXxDJOgHdY1lfFnle3xY5/d1q0XAAAAAGBnWsyHPdXbXSvj31fGR705qR3WFePacPsNOfkq26+YAO3QPlq9Pe/g6ux8t2EAAAAAgJ1lXBv2jjn7qsr435VxqWfm2oFdNfXZ/TfmBOztnSZAO7jLq7c3VMY93I4BAAAAAHaOsc+eWBkfroxrPSvXDv7i5OPW/eSrjP2VcbkJkOKjlfHE6u2cxXzY7dYMAAAAALD9VMa+aXW2Ur29uDKu9mxcO7zrK+Ol638i9nhQZVxlAqS4oTIurd5ePPV2r6m3vW7VAAAAAADbR2WcWRlfX729sTIOeyYuxZGxt9et+8k49fa4o69vmgTpM11bGb839tYX8+FUt2wAAAAAgK3v4OrsTmPGD1fG33gOLv2T3l4Zt1/XE7IynlsZ1xl86fP64Jjx9HFtuL1bNwAAAADA1jX1dvfq7eLKuMyzb+nz+lDl7EHrelJWb6+tjCMGX7rRFpXt4rHP7uEWDgAAAACwtSzmw6ljb2uV8WYva0k32d9PvX3jup2YB1dnt6mMtxp46WY7XBkfqN6+ZertbLd0AAAAAIDNbeyzPWPOhjHbT1dGeVFLutkuq4x/t24naGX8i8p4v4GXjqmrKuOnK2Pm9g4AAAAAsDkt5sO+6u0hle11nmtLx/iiVm+/uJgP+9blJB17+9bK+KSBl47rbcrfHDMetpgP+93qAQAAAAA2j8q4ffX2pMp4j+fZ0nH1qqm3O6zXifp9n/mNPQMvHUfXV8Y7p96+Z1ptt3fLBwAAAADYeJVx18r4+cqYPMeWjrs3Vca91+tkfdHRzRYDLx1fRypjGnt72bQ6u4tbPwAAAADAxjj6SddHVMYbKuMKz6+lW9X7xt4eddJP2HFt5Y6V8WoDLp3Y25Rjbx8Y12ZfOfbZ6ZYCAAAAAADrYzEfdo+9nVO9Pb16O3T0xRLPraVb16Ex4ztO+ok79XZRZfyJAZeW0sHK9szKuMtiPuy2NAAAAAAAOHnGtWF/9Xa/sbdftTEpLa0fGdeGfSf15K2Mr6mMvzHY0tK6rDJeUb09sDJOsUQAAAAAAFi+sc/OqWyPq4w/q4xrPZuWllV7UeXs9if5BG7fURkLgy0t95OvlfEXlfFkr1ECAAAAACzX1NsFlfH8yvio59HS0ntVZayc1JO4Mn7g6GaKAZeW3zhmPHcxH861ZAAAAAAAOHGVcY/q7Y2VcYVn0NJJ6W2V7T4n8yQ+rzJebKClk9rV1dvvT709uHrbv5gPVhAAAAAAAMdhMR92V29nV8ZTK+Njfm9SOqkdGnt7+Ek7oStnUdl+20BL69IHqrd/M+bKHce1wYoCAAAAAOAYTKvtlGl19mXV20sr4zLPmqV16ZsrY89JOakr4z6feU3TQEvr1GWV7aVjn93TsgIAAAAA4OYdmg/7x96+sXq8vjKu84xZWreeM/V25kk5sau3h1XGZJClde93K+PAYj6cYokBAAAAAPD5xrXhvLG3H66Mv/VMWVr3frF6nHNSTu7K+NrKOGyQpXXvcGX8bfX2rMo411IDAAAAAOAfjX32JZXt4sr4tOfJ0ob0x5XtDks/uSvjtMr4QQMsbWhXV8ZvVcZF49rKPssOAAAAAGCnqoxdU29nVm/fXBnvqYzrPUOWNqYx42/HjDsv/USfejurMv6DQZY2xYn+kcrZv5pWm7cpAQAAAIAdqTJmlfHcyrjKc2Np45t6u8fJONHPq4zXGGBpk9RbVY+fqd4uWsyHvZYjAAAAAMBOsJgP+8eMhx792pxnxdLm2aB89NJP+Mr4gsp4qwGWNlVXVG+vHfvsEePacKqlCQAAAACwnU2r7fypt++pjHf6pKu02WpPW/pJXxlDZVxucKVN13WV8f7KeGZl+F1KAAAAAGDbWcyH3bU6m1VvL62MsTKOeDYsbbqeu/STf+rtvgZW2tRdWRm/cnB19gVTbz75CgAAAABsC2OfnTrm7CvH3t5bGdd6Fixt2v5o6ReAynicgZU2fUeqt3dURq+Msy1dAAAAAICtajEfdlfGBWNvz6iMSz3/lTZ3Y8b7ln4hqB7PNrjSlunDlfEjY85m49qw21IGAAAAANhKpt72T719VWW8ws/PSVumqxfz4YylXgwq268YWGlLdWn19spptd3fcgYAAAAA2Coq45TKeHJlvLUyrvesV9oyXTP1do+lXhDGjDcbWGnLdX1lvLV6+/bFfNhvaQMAAAAAbGbj2vCFY8bzK+OTnu9KW65rK2fzpV0QFvNhj1eopS38u5QZNfb2c+Pa7M6VsccyBwAAAADYLBbzYVf1dsq02h5Uvf1eZVzlua60JbuuMp66tIvDoQMrQ2VcY2ClLd+fVsYjD67OTrXsAQAAAAA22rg27K4+u2P19gOV8THPcKUt3eHK+B9Lu0BUtod/5rVMgyttgz5cvT116u2Olj8AAAAAwEaqjPtVtpdWxmWe3Upb/4uOY29/uMQLRPuOo69lGlxpe3RpZby4Mr7UEggAAAAAWG+L+XBKZaxWxhs8r5W2VX81rg3nLuVCURk/d/S1TAMrbZ+uqozXj9lWx7XhdEsiAAAAAGA9TL3dqXr70cr4kL0Hadv1vsp216VcLMaMiyvjiEGVtuP3oNvfV28/Ur2ds5gPuy2PAAAAAICTYVxb2VsZ96iM36yMKz2flbZlH6+Mx5zwBWMxH/ZVxtsMqLTN6+33q8/uPa4Np1oqAQAAAADLNK22cypnjx8zPup5rLStm6bennjCF42Dq7M7V8ZfG1Bp+79NOWZ7R2V7fGWcb8kEAAAAAJyoxXzYW73ds3r8dPW28BxW2vZdURnPOeGLR2X8y8r4sAGVdkx/XxnPn3q7+2I+7LGEAgAAAABujXFt2D/22SOrt9f6pKu0Y7q+Ml5ywheQqbdvqYxPGVBpR3V59faGqbeHWUYBAAAAAMerMk6vjGdWxvsq4zrPXKUd1f8e14ZzTvQi8qzKuNRgSjuuI5Xxscp46sHVlduMa8NuyyoAAAAA4OZMve05eGDldpXxisq4zHNWaUf2e5XxRSd0MRl7+4XKuNZgSju2K8eMl485u9/YZ6daYgEAAAAAN6Yyzq6M1ert3UdfgPB8VdqZ/VVl/MtbfTEZ14bTKuPXDaS047uuevvz6u2xB1dnZ1lqAQAAAACfNa4Ne8Zss8r44cr4qOep0o7vQ1NvX3+rLyqVswsq43UGUtLRPjb29hOVcYFlFwAAAACwa9euXWOfPbyy/Yafi5N0tE9Xb0+51ReVyvgXlfEXBlLS53R5ZbyyMu5v6QUAAAAAO9diPuyv3r7j6Occr/PsVNLRDlfGs271xWXq7asr4z0GUtLnffI1451Tb487dGDlzKk3qzEAAAAA2CEqY3dl3GXs7fmV8Sm/Nynp82vPH9eGs2/tReaxlfFJgyjpJrq6enthZXzxYj7ssTQDAAAAgO3t4OrsjMp4ZGW8yfNRSTfTf60ed7hVF5rK+NeVcYlBlHQL/UFle+S4NpxpiQYAAAAA29PU2x2n3p5RGR/xTFTSLfRbU2+zW3WxqYwfMoCSjqEjlfGe6rPvH/vsAks1AAAAANg+FvNhX2XctzJeWBlXeh4q6Rh649jbvY77glMZt6mMFxhAScexSVmV7Zem1dm9fPIVAAAAALa+cW04Y8z2TZXx+sq42nNQScfY+yrjgcd90amM8yrjZQZQ0nF2zdjb2yrjaytjtyUcAAAAAGw9i/mwa+yz24599pzK9rHKuN6zT0nH0cfHjIcc98WnchaV7bUGUNKt7HBl/Fhl3GkxH/Za0gEAAADA1lAZ+2t1dq/q7U8955R0As1vzQXoSyrjDQZP0gl0VWW8curtIVNvp1vaAQAAAMDmVhnnV8YTx97e4/mmpBPs8ZWx93gvQvevjL82eJJOsOsr422V8eSpt9tZ4gEAAADA5rOYD3un3u5ZGf+pMj7luaakJfTDlXHGcV2Mxt4e7iIkaYl9Ysx46bg2XGC5BwAAAACby9Tbo6u3P6qMyz3LlLSc2s9Xzm5zXBejyniMH72VtOSurow3jX32YEs+AAAAANh4i/lwemU8qTI+URmHPcOUtMReXhm3P+YL0sHV2b7KeIKBk3SS+mT19qyptztVxh7LQAAAAABYX2OfnTrm7N5jxq8dfbHAc0tJy+4tle3Yv6pYGWdUxo8ZOEknsWuP/vfEAyrDihAAAAAA1sFiPuyaVme3qd7+VfX25sq4zrNKSSep91fGhcd8gaqM21bGCw2cpHXozWPGtyzmw5mWhwAAAABwclXGBdXbT1XGxzyblHSSu7wy4nguULevjIsNnKR16mPV23OmfhyvegMAAAAAx6UyHlgZv1EZV3omKWk9mnr7suO5SF1QGX9p4CStY5dVxm9Vb/dfzAe/SwkAAAAAS7KYD6dXb99ZGe/ySVdJ61we88WqMi6sjPcZNEnr3JHK+MiY7cljn51j6QgAAAAAt96hAyt7q7e7VW8v8takpA16g/Jpx3zRqt6+uDKuMnCSNq72/Ort7ov5sNdSEgAAAACOz7g2nFG9PbIy3uxZo6QN7AXHfOGqbA80YJI2uGuqt9+t3r6hMs60pAQAAACAYzP22Z0r2zMr4/2eM0ra4P7nMV+8Kts3GTBJm6DDlfGBynhWZZxraQkAAAAAN20xH/ZMvd27sv2Pylh4vihpE/SmY76ITb19nwGTtIlajBmvOXRg5c6WmQAAAADw+SpjT/V2oHp7V2Vc7ZmipE1Rb584ngvZfzZokjZZR6q390+9PWbs7ezFfNht2QkAAADATreYD3vGjPMr4zmVca3niJI2WdeNa8Mpx3RBG3t7jQGTtEmbxt5+prJ98bg27LUEBQAAAGCnmno7fVqdPbgyfqcyrvPsUNIm7PpxbeWiY7qoVcZfGjBJm7jLKuNVY7ZHj31mkxIAAACAHWUxH3bV6uwO1dt3V8bbK+OwZ4aSNusG5dTbQ4/p4lYZkwGTtAV6d/X2lMV82G9ZCgAAAMBOMa6trIwZL6mMT3lGKGmTd7h6PP4WL2yL+XCGV8ElbaHG6u0llXFnS1MAAAAAtruxzx5SGX9eGVd5NihpK2xQTr09/RYvbpVxv8q43oBJ2kqviB/9NPXXTr2dvpgPVqoAAAAAbBuVsWdanZ1fvT2zMj5eGUc8E5S0RTpSGS87hgtde4gNSklb+G3KfzuttrtYtgIAAACwHVTG3sq4f2VcXBnXegYoaQtuUP7aMVzs2nf4QV1JW7irq8evjL3dfzEf9lnCAgAAALBVLebDmWPGYyvjzZ77Sdqy9faWW7zgVcZTbVBK2uJdVxlvGvvs8ePacJalLAAAAABbzbTaZtXbT1bGJzzvk7TFe8ctXvQq28/4frWk7fDDu5Xx95XtZ8c+O9+SFgAAAICtYDEf9lZvX1EZr66Myzznk7QNeu+4NnzBzV78KuMXbVBK2kZdWxlvmXq7T2WcYokLAAAAwGY15uycMWdPqd4+7kuHkrZRH6yMe9zsBfDoD+3aoJS03b5xPVbGt1fGHS11AQAAANhMFvNhb2XcvbK90LM8Sduwv6uML7/ZC2H19hYDJWmbdkll/Jfq7csW82GfpS8AAAAAG60yzqreHlMZr6+M6z3Dk7QN+2Rl5C1dDN9hoCRt466q3v5wWm05rbZTLYEBAAAA2CiVccfKeHZlfMAnXSXt2A3Kyhgq428MlKRt3uHK+MjY2w8v5sPplsIAAAAArLeDq7MYM1519KtfntlJ2s59ujKefpMXxMq459EfqjRYknZCV469/daYs4vGPjvFshgAAACAk2kxH3aPvZ0xrbas3rw1KWmndHllPPsmL46V8eVHf6jSYEnaSb27sn3b1Nu5i/lgpQwAAADA0o1rw97qs7uOvT2vMhaeyUnaUT+9lvGzN3mBrIw8+h1YgyVppzVWbz9XGc1yGQAAAIBlGvvslDHboyrbayrjas/iJO3ALr7Ji+TU27dWxmiQJO3Qrq2M11TGwyybAQAAAFiGxXzYXxlPr4x3ef4myQbljaiMZ1bGpQZJ0g7uSGW8a8z4rsV8ONMSGgAAAIBbqzIurN5eUhmHPHeTtMN7XWXc6aYulj969IcqDZSknb5JeUn19rLq7a7T6myv5TQAAAAAx2IxH3ZVb/sr42sq481Hv9rlmZuknd4fVsZwoxfOMeP5lXGNQZKkf+gvq7dvGNeG0y2vAQAAALgl02q7sHr7ocooz9Yk6R9609TbvW70wlkZFxsgSfq8qrI9ozJWLLEBAAAAuDGL+bBv7O3Lq8fFlXG1Z2qS9E/6q8r4lzd28Ty9Ml5pgCTpRru8Ml5RGQ9YzAeffAUAAADgH4xrw9ljb0+ojD87+vNBnqdJ0j/tPVNvX/15F9Cptwsq4/cMkCTdZNdUxturtydMvZ1m6Q0AAABAZdylPvPzaZ+ojMOeoUnSjfbxyvjmG7uIrhz9gUqDJEk33ZHKuKwy/vOYcda4NuyxDAcAAADYeabe9k293bcy3uiTrpJ0i42V8fgbu5jerzL+wgBJ0rFtVI4Zf1I5++pptZ1pSQ4AAACwc1TG/8/enb9bmpWF3T81dFc33Q3dNA1IMzy1183UDoB5EZBZCRhQ2HXWfYwxCAEiDmiMIoREBaNRXtSgQkCFRBQUiBEENYCMggQFhDQtDSLN3II8967aQDc9VVe97w+UCMpQwxn2Pufzva7PP7Ce6zpnrXvt/ewLKuP7q7fPmJMBHJfPjBmP+1J/UO977AcqLRLA8TlSvb23evvRWW8XzqfDLttzSZIkSZKk7du4Npw+ZvvGynh2ZbicBDgxT/4nf1gr27dXxgcsDsAJO1i9/daY+7/WNl2SJEmSJGl7NlttZ1Rv31nZ3uiVrgAn5Wfm02HPF/1xrYyHV8bfWRyAk3JtZbyjMr7ddl2SJEmSJGl7NZ8ON6jefrEyPlwZR8zCAE7Kr1XGeV/0B7Yy/s2xH6i0QAAn728r4ycPrk5uNOvNK18lSZIkSZKWuMrYM67tv93Y28sq42qzL4BT8rzKuOkX/6Ht7T9UxmGLA3DKDldvf1wZ96qM02zlJUmSJEmSlqv5dNg16+3cyni0n0YDWDd/OOtt8kV/cCvjyRYGYF29a8x41Lg2nGtbL0mSJEmStBzNeluZ9fa11dsvVUaZcQGsmzdUxkWf/4M7nw57KuNnLAzAujtYvT1tttrC9l6SJEmSJGnxq4xvrYzXVsZ1ZlsAG3hBWRnnHvthSosDsP6urIxXVG8PnE+Hvbb5kiRJkiRJi9e4Ntx4zPiRyvgr8yyADfHmWW/f8Pk/vJVxQWX8poUB2DDXV8YHx5w8dlybnFPpC5WSJEmSJElb3Xw6rMxWJ7tnqy2qt+dWxqHKOGqWBbAhLquMe3/+j3Bl3LQyfsvCAGyK36+M286nw2mOAZIkSZIkSVvXuDacWb31yniPmRXAhvtQZdz383+EZ70NlfEHFgZg0/zFrLec9Xauo4AkSZIkSdLmVxlDZfvxypibVQFswQVlZVx07IcpLQ7A5jhaGR+pjJ+e9bZ/Ph12OxZIkiRJkiRtfPPpcPqst/tUxosq4ypzKoBN86nKePDn/yC7oATYMvPK+IMxJ/cY14ZdjgiSJEmSJEkb16y3s6q3f1sZF1fGtWZTAJsuP/9Heeztn1XGOywKwJY4XL1dNvbJw6u3PfPp4LQgSZIkSZK0jo1rw66Dq5MLKuOZxz4wftRMCmCLLygr477H3vtqYQC2ztXV269Vb1EZpzk6SJIkSZIknXpjn5w95uRbxoy3mj8BbLnvHteO/eSZC0qAhXFtZby2Mh5aGTdwhJAkSZIkSTq55tNh16y3C6u3J1RvH/CtSYBF0J40rk3OXFlZWVkZe3tAZXzCogAsjPdVxpMOHdh/vuOEJEmSJEnSiVUZu6u3u1Zvz6uMg2ZNAAvjKZVx1t//sZ5WxnUWBWChzKu3F8x6u4NjhSRJkiRJ0vFXGb0y3nHsbVXmTAALekGZFgRgIV1XGX9eGd9+6MD+fePa4IQhSZIkSZL0JZr1tjKfDudVxpMr43JzJYAF1ONXZ6vtRivj2rCrMv6VRQFYaIfGbE8dczIZ+2SXI4ckSZIkSdLnmk+HlVlvZ1TGPau3V1XGYbMkgIX1e5Vxwcq4Njmzsj3JggAsvGurtz+u3u49nw57HT8kSZIkSZJWVsa1/edXxvdXxiXmRwBLckFZGWcde9+rRQFYDu8ae3t0ZZzvCCJJkiRJknZyY5/csXp7emUcNDMCWAp/MOvtpi4oAZbP0cr4RGU8ozKao4gkSZIkSdppzafD3urt2yrjVZVxlXkRwNJ4W2XcygUlwPK6qjJeP+vtnvPpsNvRRJIkSZIk7YQq45yxtx+ujPdXxvVmRABL5dLKGFZmq+286vHrFgRgSfX22ert34+93cRFpSRJkiRJ2q7Np8Peyrh9ZbzUTAhgyS8oK+OCYz9IaVEAltd1Y28vqGx3HdeGfY4skiRJkiRpOzXr7Uaz1clqZbzTHAhgqX2sMpoLSoDt49rK+D+V7ZFjn9zQ0UWSJEmSJC178+mwe9bb5NjPlH2sMo6aAQEsvYtcUAJsx0+g9PaLB1cnN3GMkSRJkiRJy9q4NuwZc3KvynhJZczNfABcUAKw2K6s3t5YGXdwnJEkSZIkScvY2CePqoyPVMZ1Zj0A2++C8jaV8W6LAbBt3+f9mOrt3Pl02OVoI0mSJEmSFrnK2DtbnUyqt9+ojGvMdgC2pW9cqYyhMi61GADb1meqt1+f9fb1s972OOpIkiRJkqRFrDLOqozvqN7eXBnXm+kAbFuPdEEJsDNcVxmvGXtbnU+H0x15JEmSJEnSInVwdXLzMeMnK+NvzHEAXFACsL1cNmY8flwbznf0kSRJkiRJi9CstztUby+qjCvMbgB2yAXl2FuMvX3cYgDsCEcrY17ZXjT2yR0dgSRJkiRJ0lY1nw6nj71lZby1Mg6b2wDsrG9QXnRsYG1BAHaOI5VxafW2NuvtHEciSZIkSZK0WY19snvMyTBme2plzMynAXbuBaXFANiZrq6Mn6uMWzseSZIkSZKkjW4+HfZWb/etbK80lwHYsR7jghKA6yvjxWPGt8ynwz5HJUmSJEmStBFVxvnV2/dWxnvMYwB2tKe4oATg/zv2Ow+XVG/fN+vtRo5MkiRJkiRpPauM21bGM4690tUsBmBne9bKrLf7WggAjv3ewzj29pzZ6uSWjk6SJEmSJOlUO/ZK1wdUxp9VxmfNXwCojGetVMYjLAQAX/jK1zHj4jEn9x775ExHKUmSJEmSdKLNp8Ousbdzq7fHV2/zYx+MNncB4PMXlI+0EAB8CbPK9sTKuNV8OuxytJIkSZIkScfTuDbsq2z/bOztdyvjiBkLAC4oATgRV1TGi6q3e1TGXkcsSZIkSZL0lRr75NzK9ojKeEtlXGe2AoALSgBO6pWvlfH2ynisY5YkSZIkSfpyzVYnX1O9Pa0yPmqeAsBX8LsuKAE4XuOY8Qvz6XCeI5ckSZIkSfrCKuOO1dubj72NyRwFgK/kzS4oATgR11Rvr63e7lurk33z6eAEJkmSJEnSDm0+HXZVb+dUxg9UxuWVcdTsBIDj8LaVyvg+CwHACbqsevt3Y+6/2bg2OJFJkiRJkrTDmq22vbPVdqfq7Tm+NQnAiV9Q9vh5CwHASbiisj137JM7OpZJkiRJkrRzmk+H08fevrN6/GllXGdGAsDJfIPyWRYCgFPwJ5VxYD4dTnNEkyRJkiRpezeuDTcZe/uJyviQmQgALigB2CpHKuND1duTKuM8RzVJkiRJkrbp5WSffF1le1FlfNo8BAAXlAAsgmsq4w8r42sPTYc9jm2SJEmSJC1/lbEy6+3s6u27KuO9lXG9GQgAp6S3T7mgBGBdjRkfna1OprPV5tuUkiRJkiQt/wXl/sp4WmVcbe4BwHpxQQnARnwCZqwePz/2dvv5dNjtOCdJkiRJ0nI1nw77xoz7V8bLzToAcEEJwLK4onr7o7FPHjCuDac72kmSJEmStBzNVttNZr39UGVc4pWuAGzIBeXY2/+0EABskMOVcdnY2+PGPvG7lJIkSZIkLXDz6bBSq5P91dtzK2OsjKNmGwBs1Dco/8JCALDBrqqMFxxcnXzNrLe9jnySJEmSJC1WY5/sG3Nyz7G3v66M68wyANjoC8q3WQgANsGR6u3iyuiVcY6jnyRJkiRJW998OuyqjAvH3p5QGZ82vwDABSUA29FHKuMnx5xMxrVhl6OgJEmSJElbU2WcXr3dozJeVBlXmlkA4IISgO3sM9XbS2er7ZscByVJkiRJ2pLLyb2V8dhj8+HrzSoAcEEJwE5wfWW8s3p71Hw67HM0lCRJkiRpc5pPh/PGjKdXxt+ZTwDgghKAneZoZczG3n5pXJvcsjJ2OyZKkiRJkrQhl5Ir1dtps9V2r+rt1ZVxtbkEAC4oAdjp/qwyHnhwdXK6Y6MkSZIkSevXuDbsqj65WfX2+Mq43AwCABeUAPAPPlK9ff+st5s5PkqSJEmStD5VxjdWtudUxhVmDwC4oASAf+rTlfHrlfENjpCSJEmSJJ188+lwWmUcqIw3mjcA4IISAL6yqyvjjWO21XFtOMORUpIkSZKkE2vW282rt6dUxgcr44hZAwAuKAHgqztS2f6uevup6u3c+XTY5XgpSZIkSdJXblzbv6cy7lgZf1AZV5kvAOCCEgBORm+vrj65y7g2nO6oKUmSJEnSl2622s6tnDxizPiYeQIALigB4BS/TTlmu7iyPbIyLnDklCRJkiTpH5pPhz3V20XV46nV2yFzBABcUALA+vlEZfzKrLf9XvkqSZIkSdLKyrg27Bv75IHV2yu80hUAF5QAsDGurN7eMOvtfo6hkiRJkqSdXGWcURlPrIz3VcZhMwMAXFACwMY5WhmXV8Zjx2ynj2u+TSlJkiRJ2jnNett98MD+8yvjhZVxhTkBAC4oAWDzXDVm/G71yV1mq+00R1RJkiRJ0navMs6pjAPV27uPfYDXfAAAF5QAsMkOV29vqt7+1cHVydmOqpIkSZKk7di4NuweczKpjJ+sjI+ZBwDgghIAtt7lY28/WxkXOrZKkiRJkrZbs9V2z8r2ksr4jBkAAC4oAWBxXFkZL62Muzm6SpIkSZK2Q/PpsK96e3Rl/N/KuN7ZHwAXlACwiK98zbhk1tsjDh3Yf9asN6dZSZIkSdLSVRm7KuNWY2+/Uhmf9HuTALigBIDFd0319uzKuO18Oux2tJUkSZIkLUsHVyc3qIwHVsZbnO8BcEEJAMvnNZXtgePacJYjriRJkiRp0Zv1drNZbz9eGR91pgfABSUALKejlfHe6pMfG/vkQkddSZIkSdIiNp8OeyvjGyvj1yrjs87zALigBIDlv6Ssyvb82erk6+bTYZejryRJkiRpURrXhhuM2b6zMt5YGdc4xwPgghIAto9rx94urowHV4bfpZQkSZIkbWnz6bAy9smNxj752cp2eWVc7+wOgAtKANierq+Mn66Mm8+nwx5HYkmSJEnSZlcZ+2p18vXV25uc0wFwQQkAO8PVlfHSWW/3m/V2pqOxJEmSJGkTLycvqIzHjL2959jPkjinA+CCEgB20Dcp31kZ33dwdXJjR2RJkiRJ0kY2nw67Z71dVBm/XBmfdC4HwAUlAOxcHx8znjOuDRc6LkuSJEmSNqpZbw+q3t5QGVc6iwPggtJCAMA11dtrxz65d/W2Mp8OTs6SJEmSpFNuXBtW5tPhzMr43sr428o44gwOgAvKjDdaCAD4vL+r3p5Yvd28MnY7SkuSJEmSTvpysk9OH3NylzHjf1bGNc7cAPAPF5TPshAA8EWurIznV8bddzlPS5IkSZJOotnq5IbV27+u3t5aGYedtQHABSUAHI+3VsbqfDqc5WgtSZIkSTreKuPC6u3nK+NyZ2sAcEEJACfqQ9Xbz856u9ARW5IkSZJ0HJeTd6+Ml1TGVc7UAOCCEgBO1hWV8YfV2zfNp4PfpZQkSZIk/ZPm0+HMWW/fUxkXe6UrALigBID1cHTM+NiY7fvGPrmRo7ckSZIkaWVlZeXQdNhdvd2+evv1yrja+RkAvqqrXVACwInq7ZertzvMp8MeR3FJkiRJ2rmNa8MNqrd/XhlvdV4GgOP2NheUAHDirq3e/qR6e1hlnOVILkmSJEk78HKyT25Z2Z5YGX/jnAwALigBYDMcqYzLKuNJlXGuo7kkSZIk7Yzm02H3rLc7Vbbfroy58zEAnNQFZfsFCwEAJ20+ZvzxoQP7L3RMlyRJkqTtXWXsroxp9fbuyrjGmRgATv4blP/GQgDAKTlavb1/1tvDxt7OmU+HXY7tkiRJkrR9mk+H3WPGTSvjZyrjsHMwAJz6BeUjLQQArIsae3tqZbvtuDbscYSXJEmSpOVv1tuZs9XJfSrjVZVxnbMvALigBIBFc0VlvGzs7UFjn+x2lJckSZKk5Ww+HVZqdXJB9fa4yvi/lXG9My8AuKAEgEV2afX2ffPpsM+xXpIkSZKWr3Ft/23GjOdUxiedcQFgXb3YBSUAbJyxevuNyrilo70kSZIkLdHlZJ/ctzL+ojKudrYFgHX3LBeUALCxjlTGn1fGA2e9nTmfDk76kiRJkrSAVcbuWW83rd6eWBl/WxlHnWkBYOMuKKcWAgA25duU/3HW29c49kuSJEnS4l1OVsbdKuPFlXGdMywAbPwF5UUWAgA2xTWV8d/H3u42nw57jQAkSZIkaeubT4ezxox/XRlvdW4FABeUALAdHa6MN4/Z/tW4NpxtFCBJkiRJW9est1tWbz9TGR93XgUAF5QAsJ1d/7nDb3va2CcXGAlIkiRJ0uY2nw57qrdvroyXV8ZnnFMBwAUlAOykb1O+bdbbnSvjNCMCSZIkSdr4xpycO2b73sr4YGUccTYFgE33aBeUALDVevtkZTyqMm5mVCBJkiRJG9N8OuypjDtWtmc7iwLAlnrkyuf+KcdhiwEAW2peGc+u3r5hPh32Gh1IkiRJ0vpVGWdXbw+tjDce+9kN51AA2OILylYZH7EYALDlrq7eXj9bbX222rzyVZIkSZLW53LyppXxU5VxmVe6AsDiXFAOlXGpxQCAhXCkMj429vYT8+lwplGCJEmSJJ18B1cnbcx4eWV8ynkTABbDrLeHuKAEgAX9NuXY28vHnHzt2Ce+TSlJkiRJx9l8Ouwae7vBrLes3nxrEgAWz9etVMZtKuMSiwEAC+ndle17Zr2dN58OJg2SJEmS9BUa14Y91Se3G3v7hco45EwJAAvpopXKdovKeK3FAICFNVZvv1QZE+MGSZIkSfoyl5N9ctqY7UGV7Y8r4xpnSQBY6AvKuKAyfs9iAMBCu64y/qgyvsXYQZIkSZK+uPl02FcZj//cW2icIQFggV1b2e7gghIAlseRynj3mPED8+lwlhGEJEmSJK2sVMatq7fneKUrACyFD1TG/r+/oHyxBQGApXC0Mj5dvf336u32s9XJHuMISZIkSTut+XRYqd72Vca/qIy3VcZh50UAWAqXVsawMlttN6wev2xBAGDpvL16e9i4NpxpPCFJkiRpJzVbbbeu3v5TZZSzIQAs4QVlZZxVGU+xIACwlMbK9vixT25lRCFJkiRpuzefDnvH3u5aPV5UGdc4EwKAC0oAYGt8pjJeUBl3n08Hr3yVJEmStC0b14Zzxt4eWRlvqYwjzoIAsJTeNOvtQheUALA9XFu9XVy9/cvKON3oQpIkSdK2upzsk5tXtqdVxsddTgLAUvv9yrjpyqED+0+b9faDFgQAlt7RY9+mfOaYcc64Nuw2xpAkSZK0zFXG3llvd6mM/+OVrgCwLfxeZVzw9//o04IAwPa5qBwz3lQ5ecBstZ1lpCFJkiRpSS8nb1oZj6jePuWcBwDbxosq4yYuKAFgezpSvb2nevvR2erkFvPpsMt4Q5IkSdIyNK4Np4/ZvrEynn3sLTHOeACwbbRnVLYbuaAEgO3tYPX2W2Puv8iYQ5IkSdKiN1ttZ1Rv31nZ3lgZVzvTAcC285TK+Nxb38Ye31YZhywKAGxL11bGX1bGtxt3SJIkSVrU5tPhBtXbL1TGhyvjiLMcAGzzC8rKuN+xf/wWBgC2r7+tjJ88uDo5d9bbbuMPSZIkSYtQZewd1/bffuztZb41CQDb/hWvjx/X9p/x95uA+1bGhywKAGx7h6u3P66Me1XGaUYhkiRJkraq+XTYNevt3Mp4dGV8wHkNAHaE/MJPKd2jMt5jUQBgx3jXmPGocW24kbGIJEmSpK1o1ttF1dsvVkY5owHAzryg/LrKeJNFAYAd5WD19rTZamtGI5IkSZI2s8r4lsp4bWVc52wGADvGVdXbQ79wQ3BRZbzBwgDAjnNlZbyievvn8+mw15hEkiRJ0kY2rg3njRk/Uhl/5TwGADvO5ZXxLV9wQTm5bWV7hYUBgB3p+sr40JiTx45rkxtWhqmJJEmSpHVrPh1WZquT3bPVFtXbcytjXhlHncUAYMf5UGXc9wsuKOOCyvhNCwMAO97vV0bMp8NuYxRJkiRJ69G4NpxZvfXKuNSZCwB2tMsq494uKAGAL+Ut1dt3zHo71yhFkiRJ0qlUGUNle3xlHHLWAoAd761jb3f5/EZh1ts5lfGrFgYAOPaqpQ9XxlMq40IjFUmSJEkn2nw67KmMb66MF1bGVc5ZAEBlvKEyLvrCDcPuyvhpCwMAfIH5mPGSMSd3G9eGXUYskiRJko6nWW9nVW+Prox3Vsa1zlYAwJe8oFxZWVmpjJ+yMADAP3K4evvAbLVNq7e98+lg2iJJkiTpSzauDbvGjDMr45mVMT/2dhbnKgDg771sttr2/6MLyvZjlXG1xQEAvoSrqrdnV29RGacZvUiSJEn6wmar7QaVk/uPGX/u/AQAfBm/WRkX/KMLynhkZXzS4gAAX8a1lfGaynhoZZxpBCNJkiRpPh12zXq7sHr7kertfb41CQB8Bc+tbOe7oAQATsb7KuNJhw7sv7FxjCRJkrRzq4xd1dv/U709rzIOOisBAF/F08a1Yd8XbShmvT20Mj5ocQCA4zCv3p4/6+32xjKSJEnSjr2gPFAZ7zz2thXnJADgq3nyl9pQ3K8y3m1xAIDjdF197vdlvv3Qgf37xrXBhEaSJEna5s1623XowP4bV8aTK+Ny5yIA4Phnie0/fKkLyvtUxiUWCAA4QQfHbD8/5mQy9skuIxtJkiRp+zWfDiuz3s6ojHtWb6+sjMPOQgDACfhkZTzyS1xQTu5UGX9hgQCAk3Bt9fZH1du95tNhr/GNJEmStL0a1/bfuDK+3xccAICT9InKePiXuKCMoTJeZ4EAgFNw8djboyvjxkY4kiRJ0ja5nOyTO1Zv/7UyDjrzAAAn6f2V7SEuKAGAjXD02KehnlEZE6McSZIkaXmbT4e91duDKuNVlXGV8w4AcAr+qjLu+082HAdXJ2dXxsssEACwDq6qjNfPervnoQP7dxvtSJIkSctTZaxUxjljbz/8uW87xPXOOADAhlxQHtt8vNACAQDrprfPznr7kco4fz4dXFRKkiRJC958OuytjNtVxkudaQCAdfS6yhi+zAVle2ZlXGuRAIB1dE1lPKey3XVcG/YZ+UiSJEmL2ay3G81WJ6uV8Q7nGABgEy8o48mVcaVFAgDW2bWV8abqk4ePfXJDox9JkiRpcZpPh92z3iaV8ZTK+Gh97rflnWMAgPX0R5Vx7pfcjIy9/fvK+JRFAgA2wJHK+HD19gsHVyfnGwNJkiRJW9+4NuwZc3LPynhJZcydWwCADfLiL7shqYzvqoxPWiQAYAN9duztf1fGHYyDJEmSpC2+oOyTR1Rvf10Z1zmrAABbdUH5sMr4hEUCADbBxyrjMbPezp1Ph11GQ5IkSdLmVBl7a3Wyv3r79frcb8Y7nwAAG+nKynjyl92czHq7S2V8yEIBAJvkYPX2zFlvXz/rbY9RkSRJkrThl5NnVcZ3VMbrfGsSAFiIC8rKuKgyPmChAIBNdF1lvHrs7cB8OpxuZCRJkiRtTAdXJzetjCdWxvucQwCATXSoMn7wK11Q3qgyLrVQAMAWeP+Y8fhxbTjf6EiSJEla32a93aF6+91jA0LnDwBgM/1dZeRX3KxUxrssFACwBY5WxryyvWjskzsYIUmSJEmn3nw6nD72lpXxVq90BQC2yOWz1fatX+WCsv2phQIAtvii8tLqba16O8dISZIkSTrxxj7ZPeZk/5jtqZUxc84AALbQByrjoq9yQRm/eWwwaMEAgK10dWX8l8q4jfGSJEmSdPzNp8Pe6u2+le2VzhUAwAJ4X2Xc6qtdUP6qC0oAYEFcXxkvHjO+ZT4d9hk1SZIkSStfbbZ3fvX22Mq41HkCAFgQ7zqeTczjK+OIxQIAFsThynhX9fbYWW83MnKSJEmSvuxc77aV8YzKKOcIAGBh9PbG49nI/IALSgBgwRytjBp7e85sdXKh0ZMkSZL0D82nw57q7Vsr488q47PODwDAgs31XvBVNzSz3u5/7HVqFg0AWDRHxoz/O+bk3mOfnGkUJUmSpB1+Mblr7O286u3HqrdP+dkmAGBBLyh/7atubCrbXVxQAgALrqq3H6/eLpxPh11GU5IkSdppjWvDvsr2z8befsfb0ACARf7CQWX8wPFsbi5wQQkALIF59fb86u0elbHXiEqSJEk75nKyT86tbI+ojLdUxnXOBgDAQl9Q9vie49rkVMZhCwYALIHrK+PtlfFwYypJkiTthGark5tXb0+rjI86DwAASzG/63Gf472gvMSCAQBL5ONjxtPm0+FcIytJkiRt1yrjjtXbn1XGFc4AAMASfcHgrse72XmTBQMAlsy11durqre71+pk33w6mGBJkiRp6ZtPh13V2w0r41GV8ZHKOGrvDwAskcOVsee4Nj6z3p5rwQCAJfX+6u1xY05uapwlSZKkZW7W297Z6uTrqrff8K1JAGBJXXncm5/q8XMWDABYYgcr22+MfXJHYy1JkiQtY/PpcPrYW1bGqyvjOnt8AGBJXXoiF5SPtWAAwDbwJ5VxYD4dTjPikiRJ0rI0rg3nj739RGV8yJ4eAFhyrz/+C8qcHLBgAMA2cKQyPlS9/YfKOM+oS5IkSQt/OdknX1vZXlQZn7afBwC2geecwAVl3KH84DYAsH1cWxl/WBlfO58Oe4y9JEmStEhVxsqst7Ort39ZGX9dGdfbwwMA28QvncCmqE0q28yiAQDbyZjx0dnq5GGz1ebblJIkSVqkC8r9lfG0yrjavh0A2GYefiKboltVxrstGgCw7fT2yerx82Nvt59Ph93GYZIkSdqq5tNh35hx/8p4mb06ALBN/fMTuaC8WWW82qIBANvUFdXbH4198q3j2nCa0ZgkSZI2u9lqu8mstx+qjEu80hUA2MZudyIXlOdXxostGgCwjR2ujMvG3h439olvUkqSJGlTmk+HldnqZKjenlMZVRlH7c0BgG3q42OP/cf/Ca7ezq6M/9fCAQA7wFWV8YLZ6uQWlbHHyEySJEkb1dgn+8acfPPY2/sq4zp7cQBgm7ukMm55IheUZ1TGEy0cALBDHKne3l4Z31EZ5xidSZIkaT2bT4ddlXHLyvaEyviU/TcAsEO8bNbbBSeyadoz6+17LBwAsMN8uDIePJ8Ou4zRJEmStF7N+uQmlfH0yrjSnhsA2EGeVz3OO6GNU2X7Dq+aAAB2mE9WtgMuKCVJkrS+F5T7b14ZL7TfBgB2mJ+b9Xb2CV5Qxv0q43KLBwDsIK+f9XaREZokSZLWs/l02DP2eJJvUAIAO8mstx86uDo5/QQvKNvdKuNSCwgA7BBHKuPphw7sP8MITZIkSetd5eTelfFu+24AYIc4Whmr8+lwopumuH1lvMYCAgA7xEcqWzc6kyRJ0kY0nw7nVMbLjn0wzv4bANjuPl3Zvu0kPtXVblUZv2cBAYAd4s2z1TYxOpMkSdJGNfb2hMq4wt4bANgB3l8Z33zCG6aDq5MbVsYzLCAAsANcW9n+23w67DU2kyRJ0kY16/u/oTIut/8GAHaAv6hsdzrhDdN8OuypjCdbQABgB6hZbweMzCRJkrSRzafD6WOPN9h/AwA7wCsrW5zUpql6+6HKuNIiAgDb3GWHDuw/18hMkiRJG92sN18IAAB2gv9R2S44uQvKjO+qjI9bRABgOxt7/LZRmSRJkjajcW1/fO4nBuzDAYDtrP3XcW04++Q2TL09qDLeZxEBgO1s1if/wqhMkiRJm1H1trd6+0v7cABgGztcGT9+8humjDtXxl9YSABgGxsPHdh/nlGZJEmSNuWCMie7K9t/tA8HALaxQ5XxmFO5oNxfGa+1kADANn7dxG9Xtj1GZZIkSdqMxrVhpbJ9U2V82l4cANimPjz2duCkN0yHDuy/QWX8LwsJAGxTR2e9PezQgf27jMokSZK0Wc16u2X19mr7cQBgm7qkMu5zShumynhuZVxvMQGA7Wbs8Vdjj2ZEJkmSpM1sXBv2VbZ/b+YGAGxTb5j1dttTvaD8icq4wmICANvw9a5Pn/XJjYzIJEmStNlVbw+ojI/YkwMA29AfVsb5p3pB+b2VMbOYAMA2c0X1+O75dPD7k5IkSdr0Zr3drjJeZV8OAGxDv3Pqn+bK9pDKuNxiAgDb7l34vd3DaEySJElbdEF5RmV7mte8AgDbzFWV8dT1uKD8+sp4vwUFALbZ612fV7n/AqMxSZIkbVVjb99ZGR+zNwcAtpFPVbYfPfWN0trwNZVxqQUFALbVRqm3xxmJSZIkaSub9ba/Mv7U/hwA2Eb+tjIeui6bpcr4PxYUANhGLp71dncjMUmSJG11le2XK+Mae3QAYJv44Ky3b1qfjVJvL6qMoxYVANgGrq9s/3NcG842DpMkSdKWX1D2Nq2MT9qnAwDbxHtnvd16XTZKs95+uvxgNwCwPXx61tuPGYVJkiRpEZr1dl5lu8Q+HQDYLm8um0+H09fnk1w5+Z7KOGxRAYBt4MOV++9oFCZJkqRFaeztV+zTAYBt4OjY4yXrtkmqjDtVxrUWFgBYer293AhMkiRJi9Sst3vaqwMA28CRyvjVddskzafDeeXHugGAbWDW2/cZgUmSJGmROnRg/w0q4+/s1wGAJXe4ejxiXTdKlXGZhQUAlty1s94mRmCSJElapKq3XdXbc+3XAYAld92st/ut8wVle7WFBQCWW3vL2NsuIzBJkiQtUgcPTFZmvT3Ufh0AWHLXzHr7mnW+oIxnWlgAYKn19qRyQSlJkqQFaz4dVirbpDIusW8HAJb4ywEH59Nh97pulGa9PcbCAgBLvEGaVbbbG39JkiRpEZutthtWj1+ybwcAltjr132TVBkPtLAAwBJ/e/KlY283M/qSJEnSIjafDrsrW1bGZ+zfAYBlNPb2vI24oBwq40oLDAAsocOV7d/Nettn9CVJkqRFrXr7hsr4M/t3AGBJPX4jLigvrIy/sbgAwBL6wNjbfY28JEmStMgdXJ3csDKeZf8OACzpTyw9bN03SLPeLqiMV1pcAGAJvbR6u42RlyRJkha5+XTYNfb4Ya95BQCW9ILyjuu+Qaqc3LCyPdviAgDL93rX+On5dDjNyEuSJEmLXuXkGyvj7fbxAMAyGXtcNva45bpvjma97auMH7PIAMCSuayyPcSoS5IkScvQfDqcVRkvqozr7eUBgCXy5sq42UZsjnbPevsuCwwALJnXzVbbLY26JEmStCyNvT2uMub28gDAEnlu9bjRhmyOKuN+lfFJiwwALImrKtvT5tNhjzGXJEmSlqVZ33+Hyvig/TwAsET+c/W4wQZdULZvqoz3WGQAYEl8fNbbg424JEmStEzNp8Pesccf288DAEvkEQdXJxvzJYHKiMp4lUUGAJbEX86nww2MuCRJkrRsVU7WKuOoPT0AsASuqGwPnE+HjdkYzfrkgsr47xYaAFgCRyvbTxltSZIkaRmbT4cbV8an7esBgCVwaWXcdcM2RuPacEZl/BcLDQAswwXlbLXd2WhLkiRJy1r1eK19PQCw+NprZr3dfkM3RmOP76+MKy02ALDgLptPh9OMtSRJkrS0F5TZfti+HgBYAs+vbDff6I1RVsblFhsAWPBPbj3TSEuSJElLfkH5ddXbIXt7AGDB/ZeDq5MzNnhjFPeojHdabABggR2e9XY/Iy1JkiQtc7PeLqhsL7G/BwAW2NWV7Yfn02HDN0a3row/seAAwAL7y7HHLY20JEmStMyNa8Nple2xlXGdPT4AsKA+WhmrG74xmk+HMyrjhRYcAFjg17v+3KxPzjbSkiRJ0rJXvd2rMi6zxwcAFtTFs97utTkbo4ynfu4rmxYeAFg4n6oeB+bTYbdxliRJkpb+gjInF1a2F9nnAwAL6g2V7XabsjEae/uByjho0QGABfSnle0ioyxJkiRth8a1YU/19oTKuMpeHwBYQL93cHWT3mRWGd9eGR+z6ADAgjlSGU87dGC4gVGWJEmStkuz3h5QGe+13wcAFszhyvbf5tNh0zZFk8q41MIDAAvmE2OP7zbCkiRJ0ja7oLxlZbyyMo7a8wMAC+RQZfzwpm2K5tPhrMp4p4UHABbMWyrb1xthSZIkabtV2X7Oa14BgAXz0erxoE3eFMX/OvYaNQ8AAFiMV0r09lvj2nCm8ZUkSZK23QVlb99WGZfb9wMAC+RvqsedN3VTNOvtJz73blkPAABYjFdKzHr7AaMrSZIkbcdmvZ1d2d5q3w8ALJB3VMbmflmgcvKdlXGtxQcAFsR7xrX9g9GVJEmStmtjb0/xRjMAYEEcGXv8zqZviCrjtt57DwAsiKPV2+8aWUmSJGk7N+vtzpVxtf0/ALAQP7eU7T9vyaaoMj7mAQAAC+D6WZ90IytJkiRt9yrbxfb/AMACuKYyHrZVF5Sv8wAAgAUwjmvDucZVkiRJ2vYXlL39jP0/ALAAPjvr7ZZbdUH5TA8AANhqs95+36hKkiRJO6FZb/dxBgAAtl4b59Nhz1ZdUKYHAABssaOV8d1GVZIkSdoJVbZbVLY/dw4AALbY67byE1t3qIzrPQQAYAs/rfXxynYboypJkiTthGar7azq8bPOAQDAFvvZLf7EVnzcQwAAtkxvL6zebmxUJUmSpJ3QfDrsqmwProyDzgMAwBbO5B6xhReUcX5lvNKDAAC2yHWV7TGz3k4zqpIkSdJOqT73VrPXOg8AAFv4VrM7bdlmaNbbOdXjmR4CALBF3jv2djcjKkmSJO2kDh6YnFUZv+g8AABskY+PPW6xZZuhMfefXtke50EAAFvk+bPevsaISpIkSTup+XRYqWxZGR91JgAANtvY22vG3s7f0g1RZTygMq72QACATfaZyvb9xlOSJEnaic1WW1TG650LAIAteL3rr1ROzt7qC8q7VMYlHgYAsMkurt7uZTQlSZKkndh8OuytjN+ojMPOBgDAJvu3lXHa1n5aq7f91eOPPAwAYJO9dNbbuUZTkiRJ2qmNvT2qMsrZAADYRJ8ae9x/yzdClfvPq2z/zQMBADbRFZXtp4ykJEmStJM7uLp/UhnvcT4AADbRJWNvd9n6T2qtDbsq4/GVccRDAQA2yYdnq+2+RlKSJEnayc2nw+6xxwvN5QCAzdNeXjkZFmIzVBkHKuOjHgoAsAmOVsafzqfDGUZSkiRJ2ulVTh5SGdc6JwAAm+TplXHDhdgIzXq7e2W8w0MBADbB4ert8UZRkiRJ0srKfDqcWxmfcE4AADbBNZXxg4vzSa0+uU1lvNKDAQA2YyN0cHVyR6MoSZIk6dhsLtvznRMAgE3w0bHHgYXZBI1rw+mVYSMEAGzGe+7fMp8Oe42hJEmSpM8165OHOicAAJvgHZWTuy/YJ7XiP1bGZzwcAGAjzXp7ghGUJEmS9AVzuR63Hnt8yHkBANhgr6iMWy/YJ7XaamVc7uEAABvos7PevN5VkiRJ+uK53Lle8woAbLAjlfHsBdwITe5cGX/tAQEAG+h1le0CIyhJkiTpHxrXhr2V7eGVca0zAwCwQT419vjxRdwInVMZb/eAAICN035i1vefaQQlSZIkfXHV210r4z3ODADABrl87G11MTdCGb9TGdd7SADABjhYPR40nw67jJ8kSZKkfzyXm9y0sv2mcwMAsEH+urLdeSE3QrPeHu9VEgDABn178hWVk2b0JEmSJP3TxrVhd/X2g5VxpbMDALAB/rwyTlvUC8q72QQBABvgcPV48nw67DN6kiRJkr7sbO4elfEO5wcAYJ1dP/Z4zsJugubT4dzKOOhBAQDr7MNjj4cZOUmSJElfvnFtuGFle0FlHHGGAADW0TXV2w8u9Eaosv25BwUArLM/mfXJYOQkSZIkfZXZXG8/WhlzZwgAYB1dWX1ytwW/oIxneFAAwHp+Qmvs8fT5dNhr3CRJkiR95Wa93acyPugcAQCso0+Pa8NZi35B+S89KABgHX28MtaMmiRJkqTjuqDcV9neUBlHnSUAgHXypoXfBFXGLSrjWg8LAFgnfzmuDTc3apIkSZKOr7G3HzOfAwDW0ZOXYAMUNxl7XOxhAQDr4Prq7TlGTJIkSdLxN+vtjpXxKecJAGA9zHp7yMJvgKq3c6q33/bAAIB1cHXl5MFGTJIkSdIJzuiy/ZnzBACwDq6Y9TYsweZn/77K9ngPDAA4Zb19ZFwbzjZekiRJkk5wRtfbE5wpAIBT1y6ubDdZ+M3PuDbsqmwPqoxrPDQA4BRfH/E8oyVJkiTpJC4os92usn3WuQIAOMULyv9ROTlnSTZAcZfKuNRDAwBOweExJ/c2WpIkSZJOvLG386q3lzlXAACn6HGVcfqyXFDeqjL+l4cGAJzC610vrd5uarQkSZIknXiz3vZVxo86WwAAp+Cqyrj/Mm2AzqqMn/PgAIBT8IxZb35/UpIkSTqJ5tNhV2W7f2V80tkCADhJl1SPOy3XBqjHv62Mz3h4AMBJuLay9crYbbQkSZIknVyz3iaV8b+dLwCAk3vDWbx0ttpuvVQboLG3f1EZl3mAAMBJeNfY252NlCRJkqST7+CByRmV8Z+dLwCAkzHr7amHDuxfrjeczVbbbSvjNR4gAHCCjlbGs2a9nW+kJEmSJJ188+mwUtm+rTLe75wBAJygefX2iPl0WLoN0JmV7TePDRk9SADg+Dc/2R5hnCRJkiSderPVdpvKeIVzBgBwgt5b2b51KTdAle2nKuNKDxEAOAFvq97uapQkSZIknXrz6bC3Mn6+Mq5y1gAATsCfVO5vS3pBOZlWxkc9RADgOB2pbM+b9Xa2UZIkSZK0Ps16e0hlfMR5AwA4Ac8b14Z9S7n5Gdf2R2W8y0MEAI7TbOztB42QJEmSpPXr4IHJjSvj7c4bAMBxuqIy/tPSbn7GtWGlMl5bfocSADg+7571dpERkiRJkrR+zafDytjj2ZVx2JkDADgOH6qMb1vqDVBl/GxlXOthAgBf/fWu8XLjI0mSJGkjZnSTb62MK507AIDj8I7KuMWyX1A++NhXQT1QAOArubq83lWSJEnakObT4ZzK+IBzBwCwI75EUBnnVcYhDxQA+Co+fXB18v+zd9//tmRlgf9v7OZ2oBsamtQtdfZaBMlgIyJ8EVBQQZl993qOJGUYBFFRQYbg4EhWdERJOhgQBURBFAZJAxJFokTJQUKT66lzd9PddL7X7w99dQA73HDCDu/P6/X+B86pqmetqr1rj9w6kiRJkjbqPl15jn0HAHAlLsxWnrAQi5++1ff7hwIAV6y8fjrudrhtJEmSJG1MQxvdxb4DALgS5wyt3H1BFj/lf/mHAgBXZGjlQW4ZSZIkSRtX3+o1+lY/av8BAFyBnI67UxflAeW9/EMBgCuwb2ilc8tIkiRJ2rgyRnsyylPtPwCAy9XKPy7M4mdtMqoZ9Vz/WADgcl7v+tJs5apuGUmSJEkb13Tc7chW7pFRz7EHAQAu5wHlUxdm8dO3crVs5b3+sQDA5bze9SFrk9Fut4wkSZKkjS1buVlGfb99CABwmffpJgvy+5Pbtm3blpNyXLbybP9YAOAynJlRf2A67twtkiRJkjb6Pl2sXD2j/IF9CABwGd+eXBtaud7CLHym427n0Mq9M+p+/2AA4D+93jVGp7lVJEmSJG18/Wq3PVv5mYw6tRcBAL5d38pr+kX7GaZs5bbZypn+wQDAt7koW33UdNwd41aRJEmStDkNrdwmo77TfgQA+K6fYfr1YVKOXbQHlKNs9XX+wQDAt/l03xbovfaSJEnSHNSvdsdnlD/OqJfYkwAAB50/tHLP6bjbsVALn7W9o6tmq0/3DwYAvs3/GdrK9dwikiRJkja3oZWHZtS0JwEAMuq/ZSsf71u55cIteqbjbke28pCM+i3/aAAgo57Xt/rU6bjb6faQJEmStLllrHxvRv0X+xIA4NIHlPVlOSmnLeTCp2/lrhn14/7RAEBG/UzG6M5uDUmSJElbcJ9utduRrbzYa14BgIx6YGjlN/aNV66ykAufYVJWMupr/aMBwKIno75pOu6u6taQJEmStEX36lp5oLedAQAZ9eyM8jMLu+iZjrurZCt/4JNZALD0LuhbfYpbQpIkSdKWPqAcZdRv2J8AwNL7l4xyp4Ve+PSt/FJG3eefDQBL7ZsZ5Y5uCUmSJElbW0bxtjMA4FUZK9df7EXPpNzl0t+c8g8HgKXVyif71e4qbgdJkiRJW3yvrpWft0cBgKV2SUZ5Tr/a7V7oRc++8co1Muo/+YcDwPIaWvldt4IkSZKkGXhAGeXaGWVqnwIAS6vPKA9ZioVP3+ozMuqF/ukAsJQu7GN0G7eCJEmSpFm4T1dOyFZeYp8CAEvrI8Ok3GIpFj5DK/fOqOf4pwPAUr7e9QPZysluBUmSJEkzcZ9uV0Z5YEa92H4FAJbOgYz6hum4O34pFj5rk1GXUQf/eABYRuVJGaNj3QqSJEmSZqOMcquM8hl7FQBYwjedLdNPMU3H3c6M+jb/eABYOt/MKHftV7vtbgNJkiRJM/KAspXrZNS/tF8BgCW8V9fKPZfsk1n1Cf7xALB03jy0Ut0CkiRJkmanfXtXdmfUR2bUS+xZAGCpfG3f3pWTlu0B5R0tegBgqezPqE/NqCe4BSRJkiTN2r26cueM+jH7FgBYHn2rr17GRc/JGeULDgAAWBqZUVbd+pEkSZJmr2FSrptRX27fAgDLY2jlMcv4gPL4jPLXDgAAWBpvz1Zu6daPJEmSNHtNx93OjPI/M+o59i4AsDQPKG+1dIuefnVld0Z5uAMAAJbCJRnlD4dW9rj1I0mSJM1mQys/nFE/Y/8CAEvhsxn15CV8QNlty1Zun1EHBwEALLyv9a08wC0fSZIkaXbbt3flxIz6lox6wB4GABbeX2TU45Zy0dO3UrLVNzsIAGDhvXdopbjlI0mSJM12GeXRGfU8exgAWGj7M+qDMuqupVzwrE1GV8tWn+VAAICFdnFG+RO3eiRJkqS5uF93RkbdZx8DAIusfC2jnLG0C57puNuZrT4ko57rYACAhXV2trLqVo8kSZI0F/frjsuo/2IfAwAL/YDyHzLKaKkXPdnKXTLqJxwMALCwvjG0crJbPZIkSdKc3K+L8pv2MQCw0A8on7Y2WTlxyRc89bSM+goHAwAs7ILnJW7xSJIkSfPT2mR0m4O/TWU/AwCL55vZyk9Px912n8qK+rSMepGDAgAWzzApzS0eSZIkaX7qWz2xb/Wf7WcAYCG9Z2jltlY827Ztyyg/lVG/5KAAgIXz9aGNrm21I0mSJM1PQxsdk1EeZz8DAAvppUMrp1rxbNu2bWgrN8qo73dQAMCCaeUF2coeqx1JkiRpfpqOu+3Zyl0y6ln2NQCwUM7LqE+ajrudVjyXLnp2Zyt/5932ALBgr3dt5b5re0cWPJIkSdKclVFWMsob7GsAYKF8PqP8pJXOtzW08vCMeq6DAwAWxkcyys2m485CR5IkSZqz9u1d2TO08hsZ9YC9DQAszu9P9qsr17fS+c4HlLfMqOngAIBFeb1r/cNhUk6xypEkSZLms2ylZdTe/gYAFsJF2cqfWuFc1qLH71ACwKL4VkZ90HTc7bDCkSRJkuazoZWbZtS32N8AwEI4J1t5sBXOZT6gLL/lAAGAhfDhjHIHqxtJkiRpfutXuz0Z5ZkZ9SJ7HACYe/0wKTeywrnMT2WNfsgBAgAL4SVrk5VTrW4kSZKkeb9fVx6QUb9mjwMA861v9b3TcbfL6uayFzxXz1a+4UABgPl+XUTf6v/weldJkiRp/stYGWXU99jnAMDce7KVzeXUt7Knb+VvHCQAMNc+mjH6fisbSZIkaUEeUrbyR17zCgBzbX+/unIrq5rLaWhlZ0Z9kAMFAOZ3sZNRXzUddydY2UiSJEkLc89unFGn9jsAMK/Kv2aUE61qrugTWVFvlVG/6mABgLl0bt/Kf7eikSRJkhanfrW7Wkb9pP0OAMypVp6XrVzFquYKH1COviejvNoBAwBz6Rtrk5WbWNFIkiRJC/aQspUX2+8AwHwaWrnf2t7RTiuaK2htsnLc0MrjHTAAMH/6Vt82HXcWO5IkSdKCla3cz54HAObS5zLqLafjzoLmyj+RVX8yo37FQQMAc+eXrWQkSZKkBXxAGeWEjPJ1ex4AmLvfn/zzjNGpVjOH0NDKTTPqWxw0ADBXzu9XV25sJSNJkiQtXn0rx2Yrf27fAwBz5aJs5Zem42631cyhLHhWuz0Z5Q8y6n4HDwDMiVbela0cZyUjSZIkLV5DKzsyympGvcj+BwDmxuezlR+zkjm8T2U9NKMODh4AmJvXRTwmY7TLKkaSJEla2Pt135tRPmbvAwBz4w1DKzeyijmMspUzMuq/OHgAYC5Ms5Uf6Fc7ixhJkiRpce/XXSOj/qn9DwDMhYszytOHVrze9XCajrtjM+rfe80rAMzFtydfObRymhWMJEmStOAPKaPcO6OebQ8EADPvKxnlflYvR7bgeXhGPcdBBAAz7aKM8sh+tTvW6kWSJEla7PpWbptR32sfBAAz75+Hide7HlFDG52RUXsHEQDMtM9nKz9q5SJJkiQtwf26STk1o77YPggAZtolGfWl03G3y+rlCJqOu6v0rb7HgQQAM+01QyvFykWSJElaivt1OzLKIzPqWfZCADCzzsmoj7ByOYqyld93IAHAzLo4o/yvjOrTWJIkSdKSNLRyx4z6MfshAJhZX+9XV25u1XIU9asrt7z05qcDCgBm0Bf6ViZWLJIkSdLyNB13V8mor8yoB+yJAGAGtfLmfrWzaDmaspU92cpHHFAAMHMOZNR/HFr5HisWSZIkacnu2UV5WEY9274IAGbP0MrDrVaOsqGV3UMrz3BAAcDMuSCjPMNqRZIkSVrCe3aT8r0Z9Wv2RQAwcy7MqDe2Wjn6B5TbM8o9Dv5BHVgAMDvWspWftFqRJEmSlq/puNuVUV5rXwQAs6b8c9/KHquVdahv5QYZ5f0OKgCYqcXOJ4ZWjrdSkSRJkpazoZWH2hcBwMz9/uSTspXdVirrs9g5KaM+3YEFALOjb+V3rFIkSZKk5W3f3pVRRr3I/ggAZuknmepth1YsVNarjHrvjHqugwsAZsPQyu2tUCRJkqTlrW/12L7Vt9sfAcDMeEtG6axS1vMBZStnZNT3OrgAYCacmVG9y16SJEla4oY22plRHmF/BACz8nrX+tRhUk6wSlnH1iajq2XUP3eAAcBMvMv+j7zLXpIkSVrupuNuW7Zyu4w62CcBwJb7ekbZOx13261S1nfBsz2j/IIFDwDMxOtd77W2d2SxI0mSJC15GeV6GeWV9kkAsNXK2zNGt7Q62ZAFz+j2GfUjDjIA2FLvyShlOu4sTiRJkqQlb9/e7pihlUdk1EvslQBgy+zPqH+4b2/n9a4b0XTcnZBRX3nwD+2AA4CteZf904dJOcnKRJIkSdK2bdu29a3eNaN+1n4JALbMN/pW/5tVyYYueMqjMuo5DjYA2BL7MspPTcfdDqsSSZIkSdu2bds2tNFpGfVl9ksAsGXeO7TR91qVbOiCZ+VmGfWrDjYA2BJvz1a8y16SJEnSfzQdd7uzladk1AvtmQBg012SrfzNdNwda1WywQuevtW3OuAAYEs8d23vyLvsJUmSJH1HQys/lVG/ZM8EAJvunKGVR1qNbEIZo591wAHApusz6oOn485iRJIkSdJ31K9218mob7ZvAoBN98V+tRtZjWxC+/auXC+jfstBBwCb6v0Zo1tZiUiSJEm6rLKV38uoF9g7AcAmauWVViGb9YmsVnb3rb7OgQcAm/ku+/rS6bg7zkpEkiRJ0mU1tNGPHnzzij0UAGySoZWfsQrZtMXOyo6hlYc48ABg05zVt/ILViGSJEmSLq9+tTsxW/mg/RMAbOI9u1i5tlXIJjUdd9uy1Vtn1K87+ABgU3xpbbJSrEIkSZIkXVFDK79v/wQAm/Z619cMrey2AtnEMkanZpQXOQABYOP1rb5iOu62W4FIkiRJuqL61ZVbZdT99lEAsOH2Z4zu16+u7LAC2cSm4253tvLQjHqhgxAANtqoWX1IkiRJurKyld3ZyiftoQBgw789+bls5cZWH1vxiaxW7phRP+ZABIANNd23d+WaVh6SJEmSDuEB5c5s5X/bRwHARivPH9roGlYfW9DQVq6VUV/sIASADfWqvtVdVh6SJEmSrvx+XdmeUX7cW88AYEOdl1Ee1K927tltRdNxt7Nv9bEZ9VwHIwBs2KexHtqvjrzLXpIkSdIh1bcyyigfsJcCgA3z0aGVO1h1bGEZoztk1I84GAFgQ95l//Vs5eb9amfRIUmSJOmQGlo5KaP+XkY9YF8FAOvuQEb5s3515RSrji1sOu5OzKivyKj7HZQAsO7fnnzJ0Mq1rDgkSZIkHU4Z5V4ZdZ89FQCsu2m28jCrjRmob+VRGfVsByUArKsLM8rP96vdbqsNSZIkSYf1gLKVm2fUt9lXAcC6+9DQRrez2piBhrZy84z6JQclAKyrT2crP2SlIUmSJOnw79eVEzLKMzPqJfZWALBuLskof9OvdsdbbcxA03F3TEZ9tQMTANb19a5/nTG6rpWGJEmSpCOpb+UBGfVr9lYAsG72ZYz+m1XGLH0qa1Lu48AEgHVzbrby6H6122GVIUmSJOkI79fdJqO+3/4KANbNZ/ftXfGFgllq396VkzLqWQ5OAFgXHx9auYsVhiRJkqQj7eBbz17sNa8AsD76Vv/CCmPGylZ2ZpS/dIACwFE7kFFfm1GvYYUhSZIk6Sjv2T3o0tfR2WsBwNEa2ujHrC5mrLXJaPvQyr0z6oUOUgA4KudllN+0upAkSZK0DvfsSkb9gn0WABy1M/ftXTnZ6mLGmo67bdnKDTLKBx2kAHBUvp6t3M3qQpIkSdI63LPbmVFeYp8FAEep1WcPreywupjBhlZOyqjPcKACwNEo7x1aOcbKQpIkSdK63LOblJ+yzwKAo3LJ0Mpd9u1dsbCY1TLKT2bUqYMVAI5M38rjrCgkSZIkrVf79q6cmFG/ab8FAEf8hYK3ZpTTrSpmuL6Vm2fUtzlYAeCIXDS0cjMrCkmSJEnrVUbZkVFear8FAEf8etenDJNyglXFDDe0ckK28rsZ9UIHLQAc9qexPpDhXfaSJEmS1vN+3cr2oZWH2G8BwBHpM8q9puNuu1XF7D+kXM2oZzpoAeBwP41VnpStWOxIkiRJWrem425btnKLjPoN+y4AOGyvG1q5gRXFHJSxcnpGfZODFgAOy/6MesbQisWEJEmSpHW+Xze6Zkb5K/suADi8n2PKKI8fWtlpNTEn9a0+IaOe6+AFgEN+vetbM8ppVhGSJEmS1rvpuNs1tPLgS2+02n8BwCH6VN/K3a0k5qihjW6XUb/k4AWAQ329a32yH9uWJEmStFH1rf5gRv24/RcAHOrbzsrL+9XuJKuI+fpU1nEZ9TUOYAA4JH1G+Uk/ti1JkiRpoxra6FoZ5UX2XwBwSM7OVh5lBTGXi57yEAcwABySNw6tfK/VgyRJkqSNajrudmarj/azTABwSL7gft28PqCclBMyytkOYgC4Qgcy6tP37V3ZY/UgSZIkaSPLGN0po37EPgwArljf6t9Px91Oq4c5rG9le9/KXziQAeCKP42VUfZaOUiSJEna8Pt1q90pGfVVBz8oaT8GAJdjmJQfsXKY209k1W0Z9Z4Z9QIHMwBcrrcNkzKycpAkSZK0KffsWnlyRv2WvRgAXK6vTcedt53N+YLn+tnKBxzMAHCZLsyoz52Ou11WDZIkSZI25X5djH4oo37ZfgwALk95TkaxaJjn1iaj44dWnuRgBoDLlBnl/lYMkiRJkjarfrU7Llt5h/0YAFymCzLKnYbmAeVcNx132/tW75FRewc1APwnn1mbrJxuxSBJkiRpMxtaeaL9GABc5rcn39m34n7dQix4JuV62epLHNQA8J36Vv/cSkGSJEnSZtevdisZ9SL7MgD4DpdklF/uV7tjrRYWoOm425lRH5VRz3VwA8B/ODC00d2tFCRJkiRtRdnK++3LAOA7vj352WzlTlYJi7XguUNG/bCDGwD+Qz8ddydaJUiSJEnakvt1UX7NvgwAvuMB5QuHNrq2VcICNbRyYrbyoox6sQMcAOq/ZZQXWCFIkiRJ2sIHlGdk1AvszQCg/ltGXcsovzAddzutEhZu0VP/a0ZNBzkA1H8b2uheVgeSJEmStqq+ldMyyrvszwCg/ltGfc/Qyi2tEBaw6bi7ekb9gIMcgGXXt/rxvtXrWx1IkiRJ2qqGVo7PqE/IqAfs0wBYchdllD+wOljgMupTLXoAoD43o5xsZSBJkiRpa+/Vlbtl1N4eDYAl99WhlXtYGSxww6TcOKOe72AHYImdn1Ee0K92u6wMJEmSJG3pA8pWbpRR32CfBsCSe3u/2vkywcIvfKK83cEOwBL76NDKD1gRSJIkSdrqhlb2ZJTfyqiX2KsBsKQOZKsPtypYgvoYPdABD8DyKs/PWLmmFYEkSZKkmbhX18pqRv2SvRoAS2r/2t7RdawIlqBspctWPuegB2AJnZWt/Hy/2lkQSJIkSZqJhlZWMuqb7NcAWEZ9Ky+ajt2rW44HlDE6IaP8jgMfgCX0gaGV21kNSJIkSZqt+3XlGRn1Qns2AJbMBUMrzUpgSZqOu+0Z5R4ZNR38ACyRSzLKi/vV7gSrAUmSJEkz9YCylftl1N6+DYAl895s5XpWAsu06IlSM+prHfwALNPrXYdWHmEVIEmSJGnWWpuMTs+on7JvA2DJPH5o5TgrgSVqaGV3tvLYjHqeEwCAJfH5jHqGVYAkSZKkWWs67nZklD/LqAfs3QBYEl/OqHebjrvtVgJLVkb9gYz6AScBAMuhvDGjWvBIkiRJmsmGSfnRS3+awv4NgIV3IFv9q2Hi9a5L2XTcHZ9R/yyjXuRkAGDB7e9bebjpL0mSJGmG79XtyahftX8DYAlMM8rPmf5LXEZZzahfczIAsOC+NbRSTH5JkiRJM36v7o/t3wBYAu8YWrmZyb/EDa2ckq38k/fbA7Dgr3d9u6kvSZIkaQ7u1d3T/g2ABXd+Rn3GdNwdY/IveRn1sd5vD8BCa+UxJr4kSZKk2b9PV66fUT9iHwfAAvvy0Mo9TX1t27d35boZ9ZtOCgAW9NuT+zJKNfElSZIkzf4DytFJGeW59nEALKgDGeUNw6TsMPV1cPFT/tyJAcCCfnvy7/pWrmHaS5IkSZr1puNuZ7Zyv4x6gf0cAAvo4qGV+5n4+o+GVu6eUb/l5ABgAf3y0Ip32kuSJEmai/pWvi+jftBeDoAF9MXpuLuqaa//KFu5VkZ9q5MDgAXzlYxyZ5NekiRJ0rw0tJVTMsqf2M8BsHhvOqvPNun1Ha1NRscOrTzSCQLAgnn10Eox6SVJkiTNS9Nxt6Nv9WEZ9Wx7OgAWRzk/W/k+k17fvfDZllHOyKgfdpIAsCAuyaiP37d3xetdJUmSJM1VGaPvy6jvta8DYFEMrfzt0Mopprz+U0MrV8uozz54Q9cJA8C8+3RG+XETXpIkSdK8NR13x2fUF7lPB8CCOG9o5T7TcbfTlNdllq2sZtQvO1kAWACvHybldNNdkiRJ0jzWt/KLGXXN3g6ABfCubPXmprsut6GV0zLq65wsAMz7p7IyytN8KkuSJEnSvJaxcsuM+hn7OwDm3AXZypOHSTnedNfldumPcJdHZdSznDQAzLEvDc3rXSVJkiTNb/1qd2y28saMesAeD4A59smMeneTXYew+FnpMuqHnTQAzLH37du7coKpLknakD1TGx3bx8rtMuoThsnouv1qt8NfRZK0EQ2tPCKjXmyPB8Cc2p9RX7Jv78rJproOccNdf9+PcAMwpy7JqL9jmkuS1rvpuNuerVw3W/nv2cqXM+rFfStvyih3y6g+GCNJWv97dKvdaRn1m/Z5AMypr/atrJroOuSGSblZRj3byQPAHLpwaKM7meaSpPUso+7OVr4/W3n+Zfwkxmcy6qOGVq4xHXf+WJKk9Z1BrbzVPg+AOXQgo747o17LNNdhbsDL651AAMyhL0zH3XEmuSRpHR9Obs+oDzi4ub7wcubPvmzlRUMrN/EXkySt8z26X7TPA2AOXZytPMYk12E3tLLXCQTA/CnPMcUlSevVdNxdLaM+MaN+9RBfM/7OjHoPfzlJ0vo9oBzdOFvZZ68HwJzdo1tb2zs6zSTXESx+yrUzyjucRADM0+9PDm30Q6a4JOkoH0puy1aOGVq5bbby2ox63mG+xuirfZSnZKxcb5iUHf6ikqSjaWjllGzlFfZ7AMyTvpUXTMfddpNcR7L4OTZbeWRGvdjJBMB8LHzq+/tWr22KS5KOtH6125YxOjVbeVhG/dej+U3kbOXl2cqd9u1d2e0vK0k6itm0O6M8OKPut+8DYE6cuzYZ3cYU1xGXrXxfRvmYkwmAOXl1xFOGNvL7k5KkI78J3EY3ySh/lFHX1mk+fapv5QH9andVf11J0hHfo4vy/2XUr9jzATAnXputnmKC64gb2ujkjPL7B39LxUkFwCw7K1v9yem48yo9SdJhNx13u7OVe2TU/7sBM+rrGfXpGfXG/tKSpCN6QNnKKKO+yr4PgDnwrWzlvw2T4k0yOqpN+va+lcioZzqpAJhx78ioNzO9JUmHfdM36tWzlV/LqJ/ZwA9nfiujvj6j3tGHaSRJh9vQyjEZ5df9FBMAc+Bd7tFpXVrbu3JKRv2bjHrAiQXAjDqQUZ7Zr66cZHJLkg61fXtXdmbUG2bUv86o523CvLokW/latvLIjHqi/4Ak6XDqL/2m/2ft/wCYYZdk1MevTUbHmtxalzLqz2XUdHIBMKOGbOUBJrYk6VAbWrnqMBmN+617W8yf91Fv2K92x/hvSJIOcXadllFf7UsEAMywD/Wt3NHU1nougE7PqO+2AAJgVl8dMbTRrUxsSdKVNR13O/pWbphRH5+t9Fv8yeJ3ZBvdt2+jq/nPSJIOpYzy5IOvDbcPBGDWXJhR/7hf7bwtRuu8AGrlMQcPMCcaALPk4ozyvH61O860liRdUf1qd0wf5S4Z9e8y6jkzMMP2Z9TPZytPGyaj06fjbrv/kiTpSu7P/VhG/aJ9IAAz6CvZ6qpprXVvbe/o9Iwt/YQxAFzm612HVh5qUkuSrvDhZBvt7lt5WEb95Ax+8PLsvpXXZtRb+09Jkq6ooZUTM8o7vOUMgBlzIFv5h2FSTjatte5Nx932oZXnOtEAmDEfyVgZmdSSpMsqo+5Ym4yuma380Yx8a/KKXvn6hYz60xn1WN+mlCRd/mwrT7/0TTL2gwDMjPMzRj9tSmvDWpuMbplRz3ayATAj9mcrLzShJUmX83Dy+Iz649nKB+bomyZnZ9T/PUxGNxla2eW/KEn67oZJudOlN4LtCQGYFeXj07GfX9KGbvDLSRn1r5xsAMyIC4ZW7mtCS5K+vYNvfzk9oz42o/7rfP6+cv2HjHqvtcloj/+oJOm75txVMuqn7QcBmBmt/JoJrQ1+QFl3ZtSWUc9y0gEwA9Yy6rVMaEnStze0cqts5a8X4O0vn+qjPrZf7a7hvypJ+o57dK083X4QgBnx1aGVajpr4xdAk1Ky1dc56QDYan0rrzWZJUn/3nTcHdu3cp+M+p6Dv+m4GB/GaeX5fRvdwn9YkvTvDa3cyZ4QgBnxjIx6vOmsjV8ATcrOjPIrGfUCJx4AW+hAtvIQk1mS1LfR9n515Tp9lCdn1K/M0e9NHqoLM+r7spXxMBldJcOHkyVp2cso18oo77UvBGCLDdnKXTPqdtNZm7QIqrfIqG938gGwhT++/fWMcl1TWZKWu7XJ6JiMcteM8qYlmH9nZdTfzqid/7wkLXfDpOzJVp9kXwjA1n55oP7pMCmnmszatKbjbtfBjfH5TkIAtujHt1/ct3KSqSxJy1tGvXq28vMZ9YtLNgdfnlFvPx13xzoKJGlp781tzyg/mlGn9ocAbJHMKP91Ou52msza3JsBk9HtMuqnnIQAbIGLM8oDh1Z2mciStLQPJ2+RUZ+VUc9ewjm4P6N+YGjloUMrpzgaJGlZZ2G5cUZ5q/0hAFvkH9YmoxuYyNr0puPumIz6lxn1EiciAJvsE30rZ5jGkrSk+5BWfiKjvmXJ3+hyIKN+LaM+a2ilTMed33yRpCVrbbJyckZ5pv0hAFtgmq08ejrufHlAW1NGvWNG/aaTEYBN9sKhleuYxJK0VA8mt+WknDi08rhs5cs+KPkfzu+jvquP0R36NvJqJUlartm4vW/1gRl1n3kIwCb7UB8rvj2pra1v9dVORgA20YUZ9WEmsCQt0Z5jtTsmJ6Nb9K38vTl4ub/NvNa38qhs5VTfppSk5SljdNOM+jazEIBNvjf3RFNYW97Qyj2W/NVKAGyuj2WUu5jAkrQkDyfb6OoZ5f59lA8ffK2pWXj5zslW/iJbuW1GPdbRI0mL33Tc7clW/zijXmwOArBJvpZRr28Ka8vLVk7KVl7rpARgk/yfYVKubQJL0sLfcN0+tDLKqL+bUb9s/h3Wp5nfmVEfkFGv4kiSpMWvb+WBGfUbZiAAm/T2lj81fTUTre0d7RpaecDBjbCTE4CN/WZIlP85HXc7TGBJWuwy6u2zlTdm1HPNvyPypYz629NxdzVHkyQt+L25yUrJqP9i9gGwCaZDK7c0fTUTTcfdtox6o4z6ZicnABvsX4eJ17tK0iLvLfqoOzPqz2bUL2bU/WbfUflWtvLqoZVbZCs7puPOQSZJizk/d/at/lVGvcTsA2CD/U1GPdH01UwthDLqL2XUC5ygAGyQAxn1TdNx53V1krSADZOye5iMbpJRX+A37tfdmdnKL2eMrtmvdtsdbZK0eGWM7pVRv2XmAbCB+qGVH56O7Sk0Y/Wt3DqjvsNJCsAGuSCj/HcTV5IW8eHk6IRsJbKVf8yoF5t5G2JfRnlu30a3csRJ0gLel1vtrp1Rv27eAbCBXphRr2PqauaajrtjM8pTfVoLgI36/clhUm5q4krSwt1QvUbfypMz6ufMuk3xlmzlHtNxt9vRJ0mLVbbyKnMOgA2S2coDp+Nul4mr2VwIRblDRv2UkxWADfA+iyBJWrCHk210q4z6Vxn1XHNuU1+Z/qls5XEZ9ZqOQklapPtyo5825wDYIK/Oyej6pq1meCFUj8mof5JRL3LCArC+ypNNWklaiD3Dtn17V3Zn1MioH/RK1y1zdkZ9UUYdDZORA1OSFuMB5fdkK2nGAbABe4dfm467HaatZrphUu6YUQcnLQDr6MK1yeiWpqwkLcQDylFG/f1Lf1vYjNtqfdQvD63cZ2jleEenJM35PblWThxaeaH5BsA6v4HlXRnVtyc1JzcdWvlbJy4A63bztNV39K1e3YSVpPmtX+2O76PeMaO+yWybMa2cm1F/vW/lBtNxt9PRKklzO2t3ZpT7ZtQLzTcA1skFfatPNGU1Nw2TcoeMeo6TF4B1er3r/xja6FgTVpLmdn9wrWzlVzLqJ8y0mXVeRn15H+WH+9XuKo5aSZrPspVbm7cArKMvDpNSTVjN02LohIzyCicvAOtgLVv9kem4227CStJ8NR13O4ZWbp6tPj+jfuPg64HMthl+pXpG/Wgf5Vf6NjrBESxJc3hPLkbXzCjPM9MAWKe3rfyO6aq5am2ysjOjhN+VAWAdvj35uowyMl0laf7qY+WH+lbeb18wd/ZlK8+fjju/SylJ8zZ7V7sdGeWXM+pF5hkAR3lP7rxsZcV01Vw1HXfbMur1MupLfUoagKNwSbbyuOm483pXSZqfvcD2jHrNjPqEjLrfLJtbB7KVT2TUu2XU4xzZkjRHDylbuXNG/ahZBsBR7QeiPjuj7jFZNY83JnZmlPsdfJWTExqAI3Fm3+p/MVUlaT4aWtkztHL7jPo3vjW5OLM4oz4mWzl9Ou52OMolaS7m8bUy6st8aQCAo/rtyVZ+0E8uaW7LqN+TUf/eyQzAEXpjRrmhiSpJc7H2PyGj/lxG/UBGvcQMWyjnZCt/NbRyu6EVB7skzcVcLr+WUc82wwA4ojeaRX1WRr26iaq5bTrudmQrv5pRp05qAA7TRdnKc/pVr3eVpFmvX+1O66P+YUb9ivm1sC7OqO/rW7mfV69L0hw8oLz0Na+fNb8AOAKfyig/5tuTmvuGyajLqP/spAbgMH19aOUBJqkkzfp6v9w2W3m9V7oujS/1UZ/cr3bXcPRL0gzP51b2ZJQ3es0rAEfgr9cmI+t9zX/Tcbetb+UXM+q5TmwADsN7+tXuuiapJM1e/Wq3PdvomtnKozPqV938XDr7M+pb+1buPLRy7HTcOSkkaRbndSuPzKjnm1sAHIYz+1aaNb4W6SHlyRn1Q05uAA75NXKtPNcElaTZK6Nuz6i3zSh/6kOIbl5kK7+cUU9xZkjS7DW0cpOMOphXABzGb0/+7XTcnWiKaqHqL/0tSic5AIfinKGN7ml6StJsNR13uzPq3oz6brOKgy7IqM/KqLd0hkjS7JVR3mlWAXCIzspWftz01AIuiOooo37BSQ7AlWrls/2qT2tJ0iw1tHK9bOXxGfVzZhXf5cKM+qaMOp6Ou6s4WyRphu7HtfIEcwqAQ/Tq6bjbY3pqER9QHpNRn+gkB+DKDK08z+SUpJlay98ko74so55tTnEFr4P6fLbyuGFSTnbWSNJsNEzKrc0oAA7RT5mcWtSbGtsy6k39FiUAV+JARv1Rk1OStr6+jU7qY/SzGfXzGXW/GcWh/I5038rrcjK6ab/a7XIWSdJW348rJ2WUN5tPAFyJt2dUbzPTQj+kPC6j/o+Mer4THoDLVs7MKKeYmpK0dU3H3c5s5YbZyjOzlfPMJg5X38qnM8q9+za6ujNKkrauYVKOGVp5jNkEwBU4N6PeN6PuNDm16A8pb5tR3+OkB+Byfn/yednK8SamJG3Zev34vpV7ZCuvy6gXmU0chW9k1N/JqDecjrsdzi5J2vym4257RrlTRu3NJQAux2sy6vVNTS3DDY89GfUpB5/KO/kB+HYXZZQYWvGJLUnamrX61TLqYzPqJw/+pqDZxNF/GruV/5ut3CWjekgpSVsx31vpMuqrzSQALsO+jPrgjHqMiallufHxfRn1X5z8AHyXD/et3NyklKTNb9/eldMz6l8f3KCaSayn/Qd/x/QXnWmStPmt7R1dJaP+hnkEwGV4XUatpqWW6QHljoPfovRblAD8uwMZ9Q+H5vcnJWmzuvS1b/W4oZV7ZiufOvggyUxio3yrj/rCtcmoDpOyyxkoSZs277dl1Htl1DPNIgC+TZ9Rfy6jbjcttWwPKVcy6qdcBAA4aJpR7mdCStLm1K92OzNKzahPOvhbgWYRm+GSbOWd2UrLyeiq03HnZJSkTbkPN7pBRn2DOQTAt73l5P9m1OuaklrWh5SPdyEA4KB3ZytnmI6StAkPJ9toZ99Gd8soL8uo55hBbIHP9608uY+V6zgjJWnjm467Y7PVZ2TUi8wgADLqNzPqg0xILfMDyi6jftHFAICM+oKhlRNNR0najBuU5efz0t+Ev9j8YStf+ZpRX9q30W2cmZK08fWt3Dujftn8ASCjviOjXt101DI/oNydUZ/oYgDg9a4Z5REmoyRt+Pr79L6VZ2TUr5s9zMwrX6P+c0a9/3Tc7XaWStLGtTZZOf3gNdf8AeD+JqOW/QbJtox6k4Of3nZRAFheHx8m5ftNRkla/6bjbtvQyrEZ9a4Z9Z98a5IZdCCjfjNb+b2Mev2Mut2ZK0kbsibY3rf6v73mFWDpvTOjeouZlFGPy6iPzajnuzAALKX9GfWV03F3rKkoSevf0Mp1hlYenVG/ZOYwB97WR73TdNwd4+yVpI24Dzf64Yx6lnkDsNQ/s3CfjLrDVJQufUh5RkZ9j4sDwJIujFr5BdNQkta36bjblVFvlVGfl1EvMG+YI/86TMrPDZNyHWeyJK37+uCqGfWTZg3A0nptRj3dRJT+3wPK4zLqkzPquS4QAEtnWJuMqmkoSetXv9qd0Ee5b0Z9s1e6MqevfO2z1edlK7eZjrudzmpJWtf7cH9s1gAspX0Z9WczqreVSN+1OPq+jPohFwmAZVNe68ajJK3jw8k2OjVbeUpG/XxGvcScYY6dn628u4/Rj/er3S5ntySt1z240T3NGICl/fakLwlIl/GAcmdG/c2Mep4LBcDyGFp5kCkoSeuynt41TEY3z1be5JWuLNi3Kc85uFe86nTcbXe2S9JRrhlaOSVb+bIZA7BUMqM+1G9PSpd/U2WUUT/hYgGwNM4ZWrmeCShJR72OvkZGfUDfyplmCwvqkoz6f4ZWzhha2eOsl6Qjb2hlT0b5I7MFYGnsz6ivy6jXNQWlK7658hsuGABL4zUZ5QTTT5KOrOm425Wt3CKjPvPg74mYLSz6jZUPZ9SHZNSruQJI0pHVr3Y7Msp/yajnmy0AS+GsjOoNZtIhPKD8noz6aRcNgKV4veuvDG1lt+knSYff0MruoZWfOPhKVzcYWSZf6aM+q19duYErgSQd4f23Vm6SrXzYTAFYCm/PqKeYftKV3mgZ7Rha+UUXDYCF12erP+i3pCTp8JuOuz19K/8zo37u4LfKzBWWzXnZyluGSfkBVwRJOoIHlDG6WkZ5tnkCsBTuZ/JJh3azZVu2Msqo/+jCAbDIyssyRn5/UpIOo76NdvWrKzfuo744o37LLMErX+sXs5VHDpOVk/tVH3qSpENeU6x227OV+x987Z+ZArC43pVRjzf5pEN/SLk7W3lwRj3XBQRgIV2UrTxiOu6OMfUk6ZDWx9uGyeikbOW+GfVj5gh857cp+yjPzyi3yai7XDEk6dAaWrlNRn2nOQKwuL89ObRyV28vkw6zbOVGGfUNLiIAC+nTfSs/YtpJ0iGujaOWbOW3M+pXzBC4XO/JqPeZjju/by1Jh7a+OCmj/pnXxQMsqFZemK2cauJJh9nBb1H+akbd52ICsHD+bmgrXu8qSYd28/AHM+qrMupF5gdcqS9nK78+tHK6q4ckHco6o/xKRp2aHwAL56vZymQ67naadtKRLJImo9Mzyht8kgtgwV7D1uoTLZAk6Yqbjrvj+6i/kFE/mFEPmB9wyM7OqC/LqLd2JZGkK7n31srtvT4eYOFcklH+YpiMrm3SSUd+U2Z7Rv3pjLrmogKwMD6XUe9hyknSZTdMRjuylS5bec7BbzR4OAmH7+KM+ok+ygOzjU50ZZGky1l3tLI7o7zClwMAFsqnMuqP+e1J6egfUu7JKP/gogKwEA5k1Lf0q901TThJ+s/1q92ebOUnMur7zAxYl9/dOS9beXa2sjIddztcZSTpMtYfrfx8Rj3H3ABYCBdmlD+ejrtjTThpHcqoP+E3dwAWwgXZyu+ZbJJ0WTcHR6dllF/NqF82L2CdPyDVyhv6Nrp7v9rtcbWRpO9saKVafwAsjDMz6g+abtI6tTZZOS6jvN7FBWDu7csY3dVkk6T/13Tc7cxWzsgoz/ftBdjI3+GpH8+oj8qo13LlkaTvLKP8vVkBsAjKn07H3W6TTVq3RdJoe0a5W0Y9ywUGYK5fs/aRfrU7zmSTpH9f59Zjs5X7ZCvvy6jnmxWw4dYy6l8OrVzfFUiSvm1N0sqDzQiAub/vtpZRi6kmrXPDpFwjW/2zg79f5mIDMIeGVn7XRJOkbdum4257H3VPRv3tjDq1xoVNdVG28umhlR/OqLun485FSZIHlFFPPfhtc3MCYH5/1uA3h0nxu+vSRtS3eqeM+ikXG4D5vBnYr67cwjSTtOwNrewZJqMf6KO+zWyALXVWRn1ytjLqV7udrk6SlvsBZdmTUV5tNgDM7bcnP5Wt3MBEkzZssVSvmlH/l9dfAczlQumD2crxppmkZW067rZnK9fOVh6arXw0o+43H2DLfSuj/F3fRj/St9GxrlSSlrVhUnYNrfySuQAwl87LVh83TNx3kzb6IeUPZdSPuugAzJ2nDa0cY5JJWsb61W5bHys361t5Xkb9hpkAM+XijPrhbOXh03F3FVcsScvYdNxtyyi3zahfMRcA5s4/9q3e3DSTNv4B5XF9K7+VUc914QGYGxdklLtl1O0mmaSlfEDZRj+cUf85o15oJsDMGvpWnplRr++qJWkZG1q5Xkb9W/MAYK58M6M+OqN6G4i0Ga3tXeky6mdcfADmRXlP7z34kpasjLp9be/KCRn1cRn1TLMA5uVDVfVtGfWHhlZ2Tsedi5mkpWnf3pVjMuqvZtQD5gHAXDiQUd/ar45WTDFpExtaeYjf7QGYm8XS7wytXNX0krREDyd3Z9Tvz1ZefvD1keYBzJevDq08dpiMrje04qImaYnWMOVOfloJYG70fSv3N72kTW7f3u64jPJhFyGAmZcZZWJySVqederK8X3UB2ZUa1WY/29Tviij3mo67na5uklahoZJuW5GfZkZADAXbyx72XTc+UKAtNll1O0Z5Wcz6kUuRAAz7W3Zyi1MLklLclOvZCtPyahrrv+wMN7SR7lvv9qd6ConadGbjrudGfXxGfU813+Amf8w3R1MLmlrFkzbhlZOyyivcjECmFmXZJRnD63sMbkkLfjadFffyp0z6isz6rmu/7BQ9mfUz2UrT+3b6DRXPEmLXka5Z0b9V9d/gJn+9uRL9+1d2W1qSVvUMCk7spXVjHqWCxLATPpa38rPmFiSFrW+jbb1qyvH9zF6cEb9jN+bhIV1IKOem628dpiMbj60ssMVUNKitm/vyrUy6j+69gPMqFYyWzkjY2RoSVv6kLKVUzPqn7gZBDCT3jO0Uk0rSYvYdNztyKglo7zA9R6WR99Kn1H/a0a9miuhpEWtb/W3M+r5rvsAM+fCbPW3hknx8wPSLJRR73HwE+suUAAz9XrX+iJTStKCrj9PyFZ+PKO+2/UeltK5GfX3MupNpuNul6uipEVraKM7ZtTe9R5g9r4MkFFvbVJJs3OD6KSM+hyf7AKYKd/MVh5oSklawLXnaRn1cRn18wdf++iaD8vpvIz6+qGVe/m9bUmL1nTcHZ9RP+BaDzBj99qi/npGPc6kkmbpRtFkdKuM8gkXKYCZ8ZW1vaPvMaEkLdCNuu1DK7fso74so05d54GMuj+jfjqjPnbf3pWrulJKWqh7bVGe7DoPMFP+aWijG5lQ0uzdMNqZUX/Np9gBZkV5yXTc7TChJC3AOnNb38r2YVLG2conM+pFrvHAd3+avY/64n61u37fRttdOSUtQmuT0a1c3wFmaL3ZyqPda5Nm9+bR8Rnlsy5WAFtvmJSxySRp3utXu53ZRit9K7938HWOrvHA5TmQrXy0b+W+2cpVp+POg0pJ870OanVP3+oHXd8BZuKLAK+fjjs/KyDNctnK/TPquS5YAFuqX5uMTjGVJM33TbnRnj7K3foor8uoF7q2A4fo69nK07KVG2ZUDyklze89tii7Mupvuq4DbLlvZdR7mkzSzN9IqtfMqC930QLY0k91vSBbOcZUkjSvrU1GJ2bUR2XUj7qmA0fgooz66ox6Z1dUSXN7j221255R7nbwxrhrO8BWaeXl03F3rMkkzXgZdWdGbRn1Gy5eAFv0etdW7r02GXknvqS5bGjlRtnK8zPq1DUdOEof6qM+bDruTnB1lTSn66KarbzX9Rxgy5yZrd7RRJLmpLXJ6JSM+icuXgBb4nMZ9WbTcWcgSZq7MuqPZNR3HPz2k2s6cPS/Sxl1yFaeNbRyPVdZSfO3Nlo5MaM8zfUcYMs8PaOeaCJJc9J03G0bWrljRv2QCxjApr/e9c8yRtc0jSTNS8OkbM82un4f5bcy6prrOLBBPpit3Ctj5ThXXknzUr/abctW/ktGTddxgM3+oFt5e9/KzTOqgSTN2UPK3Rnlt70nH2BTXZCtPHQ67naZRJLmZM24K1u5Y7bysox6oes4sMG+mlEe3beRb1NKmpuGVm6SUd/kGg6wqdYyyq/47UlpTsuoN82oH3QxA9g0H+lb8V58SXNRv9pdtW/lARn1w67fwCa6MKM8P1u57XTc7XQ1ljQHa6Y9GeXpXoEPsGkuyaivyai+OinN9UPKVn7x4Antwgaw8f5yaCunmj6SZn6NGLVk1N/PqF85+BtxruHAZr914t3Zys9k1ONdlSXNekMrP33pt8BdwwE2QT+08jM+zCbN/wLqBN+iBNgU5/StPnY67naYPpJmtem42z60cpuM+kY/BQBs/e8K1T6j/lZG9buUkma6jHqTjPpe126ATVkjvnSYFB9ikxZjETW6e0Y918UNYEN9OGN0O1NH0gzfWDt5aOXh2crZvjUJzJD9fdT3rU1Gtxla8RtDkmZ1HbU9o/xFRr3YdRtgQ00z6i1MHmlBGlo5aWjlDzPqfhc4gI25sZZRXzEddyeYOpJmrX61O7aPcvOM+ly/nQTM7CflW/l0tvKQbOXa03H3/7N35/92ldXhx++UiYQwQ5jivnutIqgIUhkEBZWqBaTu7LWOWKWoxS+ORawiVOuEpVYFwalinaoWteJcRaVgVaiiAg44MQgyy7Oem00gZE76/SHX1oEkN7n33HuGz+f1ev8H51n72cPZe5DpTUQdt6cyee74hXPmNgC069uTJv/EEYeoh2qqYjC8fEK4/IIhBwBtsTyZnsURh4g6rVzLgjB5Zrh+O1xXM68BdLgI139OXj46tXhtPhF12L7KZN9wvZlZDQBt86Ns5QEccYh6rPByQbi+gVe9AkBb3BNeHsbRhog6qbG63C1M3jJ+IY03aQDoFg+G61XJymcwyYmo00omFzOnAaBNe0CTl2eTuRxtiHryJqU+MlyvYtgBwBQz+V5qFXwziYg65+JZq1icTL7Cw2kAuthtYfKKpiq4SEVEnXNtzeQk5jMAtOPamn4t1/Lwpio42BD16A3KwXA5LVwTQw8Apk424fWuRDTjbXytv24frs8L19vCdQMzGkCXWxUmXwrXx4TrLCY9Ec38tTWZFy7BfAaAKXVHuLZyLXyHnKjHL1wtDJdP85ovAJi6C2epNSocYYhoJssmw9nkgHA9L1yXMpsB9JjrwvU5Y3W5IxOfiGayZDISJh9hLgPAlFkdrv8arrtxlCHqg8L1CeE6xvADgCl5vevVYcIT/UQ00/u7E8L16+G6htkMoEeNhclbs8m+TH0imqmyyWC4OjMZAKaK3JBMjuIIQ9QnNVUxK0zeyfADgCnZSJ0ZXg5xdCGimSi1il2S69+E6y+YxwD6wMpwvSSZHNtUBQ+IEdGMFC77h+utzGQAmLR14fKmpipGOLoQ9dVmSvcP15sZggAwKU24HJpaBQcWIpr+m5NWHhAmHw7XzDwG0EfWhutPkstfp1Yxn6MBEU132WT3MP035jEATE4y/UV4uQtHFqJ+u6DVGp0dLi8O11UMQwDYZl/OJntzVCGi6SxMFoTJknD9ycYnTpnHAPrOho3fK5J/DRdtqoK3WRDRtLW0Gh0O11N5tT4ATPrNGM5RhahPyyYPC5fPhut6BiIAbLX14XpWuM7jiEJE03Zz0nXfcP2Hjf/gZhYDQLj+NJv8Wbgu4ChBRNO3J5PDw/U6ZjAAbOM1NZMPJ5MdOKIQ9WlNVQyHSStcb2MoAsBWuydcjuNoQkTTtG+bE66PD9dP8HAZAPyRO8cfHHsYRwwimo5yLbuH68eYvwCwLeSX4eXjm6oY5IhC1N8bqp3C9T3jf6lmOALAxF0WJvtzJCGitu/XTHYMk9PC9VpeJQYAm3RfuH4qTA5rqmKYowcRtbOmKobC5eXjs4cZDAATtzxc3xBebs/RhIgGwstDwvUGhiMATNjacPmnbDKbowgRtbOxutw7XC8M13vHv7nGDAaATVsdJj/OtZzMEYSI2l02OSpcr2f2AsBWuTJcH8VRhIgGBgYGBlKrGMomLwvXVQxIAJiQXyeTmiMIEbVtf2bl3OSjRyTXH258KILZCwATtCFcVySTt+W63Cu1+DclEbWnpUtGtwvXL/AQGQBM/HNJyeS54TrEUYSI/remKuaFy7cZkgAwoYte38gmizl6EFEb9mSDYbJXmLwyTO5g5gLAtr/xIplcHi7HJiu34whDRO0oXM8M1/uZuQCwRevC5d+aqpjD0YOI/qhs8sRwDYYlAGzWqnA5n6MGEbXhAtesMDksTD7M94wAYMr8PFxfkU12baqCgw0RTfG1tPLQcL2TWQsAW3RneHkIRw4i2tQNyvnheh7DEgA2K4XJiRw1iGiKb04OhOtfhevV4bqaWQsAU2ppmHw8XEc54hDRVNZUxbwwvZI5CwCbl0zfzFGDiDa3qRoM18eE6/cYmgCwSTdnk+05ahDRFO7BdgrXN4Tr3cxYAGjna8X02+F6PEceIprKwuVVzFgA2Kwf8KAYEW2xsbqcHSYvDdelDE4AeCjyXo4WRDQFNyUHssnsbHJomFwariuYrwDQdhvC9Z4w+fuxutwj1zLEEYmIJtvSJaOj4bqWGQsAD3kdbVmY1GNLRoc5YhDRFssme4Xrp9hcAcAfy7Ucy5GCiCZTahUDycvdw/W08W+jMV8BYHqtDpPPhcmRS5eMjnBkIqJJ7e1Mh5PpVcxWAHiIPZfLReHlHhwtiGjChesJ4XozQxQAfs+dS5eMzucoQUSTu4hVHhAu7w7XMeYqAMyonySTv0qtYiFHJyLa1rKVg+FyOjMVAP7IdeFyJEcKItqqmqqYGy5vDdc1DFIAGGdyURivAiOibd5fzQqT48Plq+yxAKBj3BMub01WlhypiGgb93gDYfJYHj4DgN9zX7i8NrWKeRwpiGirC9c9w+RXDFMAGH+9q8kJY0vKQY4QRLQN+6qdwuSscL0pXNcxUwGgoywP169mk6OaquBhNCLa+r2eyb5h+i3mKQDo/4Tr+jC5Yqwu9+UIQUSTuZjW4gl/AND/CdcfhMtoUxUcHIhowi1dMjocrvuF6yfDdSWzFAA61rowuSdcXxiuCziCEdHWlFqj88Ll78J1A/MUAPS+bPLkpip4yJ+IJnODUhaGyyfDdT2DFUB/v95V35Zr4ftERDThssnCXJfPSK63M0cBoKt8KLnu11TFCEczIprwNTSTp4br3cxQAH3/0Jfr+zkqENGka6piMJscHq4/Y7gC6GP3h2uLV34R0QT3T0PJZL9wfX2Y3MsMBYCuszZcv51rWZJr2YEjGxFNpGylhutXmKEA+txPxupSOCoQ0dRssGqZH65nbvywLUMWQF/6XrgcwhGBiLZUahWzk8sTw/Wz4foA8xMAuvjbSa43h8m5uS734TX/RDSBfeCccDknXFczQwH0qQfHX5c/i6MCEU3dTUqTgqfAAPSxD47VoztzNCCizV6UsnIkmbw0XH/JhSkA6J03aSSTS1NrdD+OdEQ0getnHq63MTsB9KlPh8k+HA2IaEprqmIwXJ8RrrcyaAH0mSaZvoQPexPRpgrXobG63D1M3heuy5mbANCT/6a8JVxPDtc5/JuSiDa9LxzdJ1wvZ24C6EO/TCZ/Hq58HomI2rTRMjk/XNcwcAH0ke+HlwdxBCCiTdycnB+ux4XJteG6gZkJAD1tWbhemE32yyYjHAWJaBPXzt4WriuZmQD66Y0T4fK6pip4tSsRtfUi3L4bv8XG4AXQF9aF68VNVWzHEYCIfremKgazyT7hela43sy8BIC+sTZc/zNcTwxXblIS0R+VTapwvZd5CaCP3jRxWTbZlyMAEU3HRmsJ31UC0CeWJpMXMfmJ6CH2QweFySc3PinKvASAPnRDcj0jtYpdOSoS0R/sExeFy0+ZkwD6RM4mJzL9iWiaNlrlwnD5EMMXQB+4ZaweVSY/Ef22pirmJJOTwvXq8X9ZMysBoH+NhckHci37c4Qkot8tmVzEjATQH+SdTVXMYfIT0TTdoJTBcD0sXG9gAAPoZcn0801V8HFvIhpIVg6m1uieyeWccL2L700CAMatDtdrwqTK9ejc1Co4aBLRQDZ5GvtFAH1w3eyGZLIPU5+IprWmKmZnK08L1zGGMYAedjITn4jG6nJ2mBwTLpczFwEAm3Bfcnl9uC7myElEAwMDA+FyJ7MRQA9rwqWVWsUwE5+IZmCjVe4brp8I1zUMZAA96MHUKvZk2hP1+35Hdw6T03hzBABggj4brkc0VTHCUZSoz/eRJv/MTATQo9aE67vDlW9xE9HMlUyeGq43M5QB9ByTbw0PMueJ+vzm5P7hekG4LmMuAgAmaN34K19PzSY7czQl6ue9pDyNh/oB9Khrw+QIJj0RzewNylYxN1xfH64rGMwAeou8mPuTRP1ZUxWzw+SEcL2cPQ4AYBtsCNd7wvWd4boXR1aiPr1mZrI4XH7ITATQYyKb/E24zmXSE9GMN1aXu4fJdQxnAD3078kIk0cw4Yn67sbkQJhsn01eEyZ3jv8LhpkIANhWK5Prd5KXR+Za+D4TUZ+VTRaOv42DeQigV6wPl6+O1SVviSCizilcjwrXpQxpAD3y78lPZhPeo0/UR6VWMTvq8qBk8kVmIABgqh9+yyYvCZM9mqrgJR1EfVJTFUPhclK4rmQWAugRt2aTg5jwRNRRZZM52eTN4bqKQQ2gy60OlxekVjGL6U7UJzcnrdw5XJ6TXH48/lo+ZiEAYKo9ECYfSVYewj6TqH8Kl4PD9WpmIIAesDZczmayE1HH1VTFYDbZL1y/zrAG0OVuDJPHM9mJ+mb/Uobr28P1TuYfAKD9D8Lpt8P15HCdw5GYqPfLtewcru9n/gHogbeN/ddYPbqIyU5EHVm4zgrXOlx/xcAG0MU+Ha77MtWJ+mLvcniYXBGuy5l9AIBpdEe4vqWpinkcjYl6u/HXvP6/cM3MPgBd7K5wOSG8HGKyE1HHNlaX24fJ+bxfH0CXWhMurw3XYSY6Uc9eJBpIriPhemq43hau65l9AIAZ8GCYfCmbPDpch5qq4CBN1KPlWh4brtcw9wB0qVXZ5A1jdbmAiU5EHV+47huuV3DBD0AXuiGZPI1JTtSzF4dm5bp8RLj+a7iuYOYBADrAzeH6wvByt9QqBjlaE/VeTVXMDtePhes6Zh6ALrMuXL8QXirTnIi66CalnMTrKwB0mQ3hemk22ZMpTtSLNyfLBWHiYfLtcF3LzAMAdJCl4fKuZOVBHLGJevY62fO5TgagC6+T3RiuT2eKE1FXtfHpMHkXgxxAV71my+UcJjhR75Vaxa7J5E3heguzDgDQoVaHyxVhcnxTFbM4ehP1VrkWDdebmHUAusiKcDmHb2YTUXduvkyKcP0ZwxxAl7gzTJ7C9CbqsZuTVh4crp8I1+XMOQBAF/xT4RfJ5JXhuitHcaLeqamK4WT6NeYcgC5yZXi5FxOciLr0BmU5FC4eLnzjCUAXkKuzyVymN1H3F64DS5eMzgpXD9cfhusaZhwAoItuUi4L14+HazlWl3yXkqhn9qjlC8N1PXMOQBdcI1uerXw8k5uIuvwmpSwM13M3vq6G4Q6gY61PJmcztYl65gZlGa7nh+sq5hsAoIvdmE1a2WQ+R3ei7q+pit03flqE+Qago60Kl9eFl7xynoh64SKhHBQu3xx/EpQhD6ATrcsmj2RiE3X9RZ85yfWocL2cuQYA6AkmD4Tra8J1tKmKYY72RN1dMv06sw1AJz/AH65fCdfFTGwi6pWLhcPh8pxwvYMhD6BTn05nWhN1d7mWPbLJi2Pj9695KAoA0EuWh+unksuTU6vgkwRE3bxnNflrZhqADnZTtvJEHooiol7bgC0Ml/fxqjUAHfpk+nlMaqLurKmKoajLA8L0onC9l5uTAIAetTpcrktWviRZyStfibq0MHnE+J6VuQag0zwQrueGlwuZ1kTUgzcpy8XhciPDHkCnySbHMKWJurPko0cnk2vCdSXzDADQ4zaE69Iw+VBTFdykJOrGG5Quu4TLp5hnADrv1a5yxVhdFkxqIurJmqoYyCZPHn8ag8EPoEPIN8NlEVOaqKv2FIPhulu4vmH8GxnMMgBAX92oHH845ynhuh07A6Ku2seOZJPnhetaZhmADnJ7eHlsU3F/koh6uGQyK0zO2/h6GoY/gE54vau+MdfChR2iLimbzMsmjwvXT/OvSQBAn7stXF+ZTfZpqmKIXQJRdxSmR4XrzcwwAB1ibbi+gelMRD3f+L8oNVwvY/gD6AARLsc1VTHIhCbqgos5rgvC9bRwvS5c1zHDAADQpWHy8Wxy+BA7WqIueeCuXBwun2F+AeiQN4t9eemS0V2ZzkTULxcXR8J1Sbj+igMAgBl2WTZ5OJOZqPNLrWKv5PrecL2L2QUAwB/98+GacK2aqpjDroGo4/e1s8Lk78J1FfMLwAy7JVyOySY85kRE/dNYXS4Mk/N5NRuAGfa2sSUlr3cl6vByLYeGyde4iAMAwOZf+Zpc35RaBf+CIOr0/a3J03nNK4AZtjpcXp2tnMdUJqK+qqmKgXBdHK5fDdf1HBAAzIC7wvUkPgBO1JmlVjEYVu4WJq8K17vDdQNzCwCACVxsNPl6Mjk61+Uc9rpEHbvX3TVcv8AeF8AMvn3ho9lkL/YKRNS3ZZOn8KpXADPkyvDyEUxios4rXAfD9dBw+ZdwXc68AgBgq90UJqeF687sLIg6dM9r8kb2ugBmwIZwvS6ZPIFJTER9X9r4zwgODgCm90kx0w80VTGXKUzUWTVVMStcq3C9mlkFAMCkLAvXd4QrD+URdWDZymPC9TZmFYBpdl+YvLipihEmMRFxg7I1uku4XsHBAcA0SsnkFCYwUaddpJG9w+R14XoLcwoAgCmxKly/Hq7PaKpiDrsNok66HlbMD5Nv8ZpXANPs4+G6I1OYiGhg42vckukTxr8vxUECwHT4xVg9upgJTNRR+4EDwvWScL2fGQUAwJRaF663hskrsskCdh1EHfWA3pvG1yizCkD7mcRYXe7P9CUi+p2WLhmdna18Qbjex8ECQJutT6YfaapikOlL1AEXZWrZPnl5arjeGq7rmVEAALTvRmUy+WqY7J9axSx2IUQdcYPyceP/dGZGAWi35eGlhRdDTF8ioj8ovNwnXD4cris5YABoozXh5dOYukQzW1MVw2GyX5j8Y5isYDYBADA9kusPw+WkZOXO7EiIOuF6mPyC2QRgGl75fkG47sTUJSLa9Kbs0HD5Pu/fB9BGdzdVsZCJSzRzpVYxN1n5tDC5NFxXM5cAAJh2vwmTc7OJNBX/pCCa0WthJm9lJgFo55vEwvWKMD2QiUtEtJmaqhgOl2eHa+bgAaBNPsG0JZrJh5F0p3A9M1x/Fq5rmUkAAMyYZWFyaZg8MVy5SUk0Y/tjOZLXvAJoo19lE2uqYoSJS0S05QuX87LJhRw8ALSHPItJSzQzjdXlTuH6qXBdyiwCAKBj/lVxa7iewk6FaGZKJovC5WrmEYA2eDBc3pZr2Y5pS0Q0wZYuGd05mX6fgwiAKWVyR5g8jClLNH01VTEYrvOzyQlh8svxC6HMIwAAOsvy5PqxsbqUbMI/LIimsWyyXbi+gc8dAWjDQ/pXLF0yymeOiIi2ptQqBsLLJ4frnRxIAEzhxuzD2WRHpizRtB3Ph8NFw/WN4fobZhAAAB1tXZh8K0z+IupyYVMVbGaIpqlweVK4BnMIwBS6K1wPYMISEW3T5qycHy6vDtdlHFAATIGV4fKc1OKd+0TTcnPSyuFk5VPC5ZJwfYAZBABA17g1uf59ao0uYkdDNE3XwEz+JFy/zvwBMEWWhclLsskgE5aIaBvLJkW4fDpc13FgATBJP80mj2WyErW/pirmhMkLw/X6cF3L/AEAoAsvbLp+Kll5CDsbovY3VpcLwvU8Zg+AKbAmXD6YXHZhuhIRTe4C51A2OTpcf8zBBcAkX+/6gfDR3ZisRO0tXPdJJhfwSlcAAHrgla+uV4eJNVUxi10OUVuvfw2Gy8nsoQFMwfWv74SXh6dWMcR0JSKaZNlkKFxOD9cxDjAAJvFqi9NSq+DVFkTtuaAykE3mhuuTw/Uq/jUJAEDP2DC+lz4vXBeHK/tponZd/6rlkeH6beYOgMm8pj1cWuElNyeJiKbwwufcMLmIgwyAbXRdNnkc05SobQ8T7ZlNzgzXO5g3AAD0rK8l18c3VTGH3Q9RW659zQrX9/GwH4BttDxc/qGpitlMVCKiKW78ac0fcbABsA1Pff97uO7EJCWa8osoI+F6cLh+IFxXMW8AAOh5N2eTF2STXdkJEbXh2pfJs8L1HmYNgG3wpXBdxCQlImrfTcoTw/UuDjgAtsL9yeRsJijR1JZaxYLk8qxw/QZPeQMA0FcP//0mXN8TJgc2Fd+3IprKxupycbj+lFkDYCvdk02OYIoSEbWxbDIvXF4drqs58ACYoFvC5GgmKNEU3py0crcwefPG71voOuYMAAB9Z0Uy+W7y8s9Tqxhmd0Q0NTVVMRQuH2CPDWDiZGVyOb2pOB4TEbV7ozaQTfYJ14/xbw0AE3vCWy7LJmzSiKagcJ2V6/JRYXIFDwsBAMBeO1yXJ5Ozw3VhUxWD7JaIJl+u5Xg+nwBggtaG6buyyc5MTyKi6dqsmTw2XK8K1/UciABsxppkcjpTk2hKbk7uGq6nJJNfM1sAAMDvXRx1/Xw2+dNwncOuiWhyNVUxL1wTswXAFqwLlyvC5VFMTiKiaS6ZnBx8jxLA5i3LJsrEJJrUBZKRbPLIcD0/XMeYKwAA4CGsD9drw/X54bojOyiiyV7z0kuYKwC24Maw8i94tSsR0Uxs1lrF9mFyDv+iBLCZ9/B/k2lJtO1lk1nZ5Olhclm4LmemAACALbgrub5zrC73YSdFNJl9eNlingDYjPvC5dWpVWzHxCQimqkNWy27JJP/4qAE4CGZ/C2TkmjbGn+11BnhegsPAwEAgK2wIkwuy7UcwY6KaNsKk9FwvZt5AuAhbAiXi8NLvjtJRDTzNynLQ8PkNg5OAP7AmnAVpiTR1pWsHEk+un9yvZh/TQIAgEm88vWWZPKSXJc7plYxyC6LaCtuUHq5MFz+hVkC4CHeFnbHWF3uwaQkIuqEC6mtYla4/FW4Zg5QAH5nw/a1cNmFKUk0sZqqGMh1uUOY/GWYXBuu65gjAABgsv+mTC4fTl4elKzkG1lEE9+bD2eTk8J1NXMEwO+4N1yPY0oSEXVQ4eWu4XpBuK7gQAUgXP8nm7w61zKXCUk00WOpSpj8U7jexQwBAABT7Nvh+symKmax6yKaWMnk4HD9IfMDwLhl4fracJ3PhCQi6rwLq48Ml2/wnSwAG7/VIU9qKl4lRTTBY+iR4fql8VcjM0MAAEA73BEmrwlXXktHNIGyje4SLu9jdgDY+IYj+fds8jCmIxFRB9ZUxVC4/Hm43s5BC+h7/5FNRpmMRFs8ds5Pri8afzKbB3wAAMB0/PvjU+H6GHZiRBO4zmX6wnC9n9kB9L0fZpOjm6rgdelERJ1auI6E60vDdSUHLqBvrQ/Xv1+6ZHQ2U5Hooct1ORQmo2Hy7nBtwnUDswMAAEyTteH6izA5aawueU0d0eb27SZPDNefMjeAvnZPNnluNhlhKhIRdceNyo/wTxCgb90QLk9jEhI9dKlVzAuTE8L1B8wLAAAwY0xWhMmFyWRxUxVD7NKIHnLvvlO4fIJrXEDfWp1M/5FpSETURWUrF4fLlRzEgL70lVzLvkxCooe4wGHlPuHyinC9g1kBAAA64u0nJl9KVj41tYp57NaI/rgwefX465GZGUDfkUubqtiBSUhE1E2bN9eRcHkar8EA+s7KcH0r7+Qn+v2aqhgOkz8Nlw+H6wPMCgAA0EHWhevPwuXlycpd2LkR/eE1rvLwcL2RWQH0neuzyeFMQSKi7tzAzQuXl4brvRzQgL5xZ7jUTECi33toZ06YnBQm1wTfaAYAAJ0rhevHs8lidnBE/1dqFXPD5GvBd+OBfnJ3uD47m8xiChIRdWljdblDmLyHC7JA37h26ZLRRUw/ooGBpioGk+t24fqWcL2PCxoAAKALrAmTG8P1ceHKRVmi8bLJK8N1NTMC6AsrwuV1Y3W5HdOPiKjLS61ij3DlSTOg961Npu9k6hENDGSTebkuH5dcv8nxDwAAdKEmXF+XXPZJLT7fQJRaxb7hOsZsAHre6nD9aLjuweQjIuqRwsvDwvVXHOSAnvZgtvIYJh71c01VDEZdLgqTF4bJ9eG6ntkAAAC6dX8fLp8JkyfmWmaz06O+v7ZlcgVzAehpG8L1u+H6GCYeEVHP3aSU08L1AQ52QM+6qamK+Uw76ueSlwck138Ovr8MAAB65C0p4XpNmJzeVMUcdnvUz2WTVzMTgJ52b7iewLQjIurJjdzoDuFyAQc7oFfJhUw66uubk1Y+OVy/v/F7FcwEAADQUyKZvCO1Cl55R31buBwYLiuZB0CvKs9oqmKEaUdE1IsXblvFYHj58HD5Cq+8A3rvNRjZyicw6aj/LlLo4Fhdbh8mZ4Trr5kFAACgh62Mjd/XPiabDDdVwWaQ+uyBRNk5TL7BLAB6zvpw+Wh4uSuTjoio9zd0R4br1dykBHpHMv1xMmUjR/12c3JWuB4eJp8df/0Z8wAAAPSDu8Pk9GyyKJuwKaS+KZvMCZe/5XoW0HM3J78RLvsz5YiI+qCmKkaSyXPD9Q4OgkDPOD9ctmPCUR8dy+Yn1+eF649Y/wAAoA+tCtePheuj2RlSfz2kKI8Ll7uZAUBvvA0sXH4eVj69qYphJhwRUZ+UWsXCcHlduK7mYAh0vRXhsiS1iiGmG/VDuRYJk3PCdYz1DwAA+twVydVTq9ieXSL1xQ1KkyJcv8jaB3pCCpeXpVbBA/dERH13gddkl3D9AgdDoOtdl00OZKpRrzf+BoBjxi9ILGftAwAA6PpwvSVMXp9rWcSOkfrgWtbscDmbTzwAXW9NNrkw17Izk42IqE8LVw3X6zkoAt1MLgwf3ZGJRr1asnIg+eiC5OULwvVmLkYAAAD84Svy9IEwuTTX5YHhvFmFev38QI4L11+x9oHulUy/n012YKIREfVxTVUMZisfHy43cnAEulIOk+cwzaiHj1ND4Srh8lHWOwAAwJYu+EoKLy1cd2InSb1arkXC9euseaBrH7S/IVtZMM2IiGggtYq54fLCcP0NB0ig6/x3NjmYSUa9WLguCJPjw/W7rHUAAIAJWx6u54frw5uKf1NSTz7EOBKu54XrKtY70HVuD5cTU6sYZpoREdHAwMDAQK5l1zA9P1wf4EAJdI214XIRHxOnHr05uXe4viZcbxl/bRlrHgAAYOJWhOtXsskJ2WQeu0vqufMFk2rjjQ7WO9BFIlzOCi8XMsWIiOj3SiaLk+lXwnU9B0ygOzZ22eT/Mb2ol2qqYjDX5aOT6yXh2rDOAQAAttn6cL0xXM8K1xF2mtRLjS0p9wzXa1jnQNdYmUw/FHW5FxOMiIgeslyXjwqXOzhoAl3hp+F6IJOLeuTG5EAyGcq1PCNMfhmua1jjAAAAU+L+5Prx1CoelmsZZOdJvfJgY7hcwHkD0BU2hMtVuS6lqQqOQ0REtOnC9YnhupSDJ9DpT0PLZ5hY1AulVjEcVo4mk/PD9UHWNwAAQBvOH0x+lE3qbLKQC8TUC+Vajg7X+1nfQMf7VTY5hKlFREQTuUE5J1zP5tV6QGd/UybxelfqhZuTVs5NLk9JLpeG62rWNgAAQFvdEyZvTl4WqcVNSurumqqYG64/Z10Dnf15onB9NhOLiIi24ialLArX9/FPFqBj3ZtNFjOtqJsbq8sF4fqqcL2eNQ0AADBtHgyXz4Tr0exIqeuvX5n8E2sa6FjLwuVN4TKXaUVERBOuqYrBZHJguHwtXNdxQAU6SzL5DyYVdXPZ5OFh8iH+rQ8AADBjrgvXU5uqWMDulLr2vKKWo1jLQEdaGy4fDSv3baqCYUVERFtXahXD2eRJ4XoDB1Wgw/B6V+rO48pAchkI12PD9b/DdQ3rGQAAYMZsCNcUJu/MJntnkwEuIlO3Faa7J9PbWc9Ax/nPcHlkahVDTCoiItr2zZ5rFa73cGAFOoWkcNmN6UTdVK5lMKx8WHI5N1zHWMcAAAAd5bthcnzy0e3YuVJ3XbMq54XL21nDQEc9/PL98PIwJhQREU3Rhk/ODtcHOMgCHfHvyYuTCa9hoq6pqYqRMDkqTC4J19WsYwAAgI50d3h5RrJyb3aw1EXnGkPZ5MRwXcEaBjrCXcmkYjoREdGUNbak3DFM3rfx/eEcbIEZ9txsMsJkom4otYqFyeSUcP0RaxcAAKDjLQuXD4XJoU1VDLObpa445zA5IFyvZv0CM+6BZHoGU4mIiKa0pioGs8l+4fpFDrbAjLotXB7LVKJuKFwlXN8RrneNv+aFNQwAAND5VoXJVcnkWeHKK1+p48s2ukO4nM/aBWbU6nA5P9ejvPGLiIjacqF5OFyODtdrOOgCM/V6V70km+zDRKIueKjlMeF6ebg+yNoFAADoOuvD9d5w/cdwnccOlzr9/COZnhKuDWsXmLHrVZ8PKyW1ikGmEhERtekmZTmYTJ4Rrjfxbxhg2q0J19ObquD1rtTJD7PsmE1ODxO+WwwAAND9NoTrN8fq8k+zyRx2u9TB16seEa7/xZoFpt26cP16uB6Ya2EYERFRe2uqYnYyPT1c7+MgDEyrn4bLMUwh6sRSq5idXA4M1/dtfLULaxYAAKBnblKa3BCup2aT3ZuKf8dQR16rmhcmF43/+5d1C0zfv+1/HC5PYwoREdG03qQMl7dzERqYVp/NtSxiAlGnlWtZECbPDNdvcVwAAADoWfeE67uSlwemVjHELpg6rTB5WbguZa0C0ybC5OSmKmYxgYiIaHo3fj66R5hcwsEYmBb3h8vfNRUXAqizGqvLXcPkLeF6M08rAwAA9LwHw+SKZOWJ7ISp865TlQeH6/WsU2C6yGuaqpjL9CEiomkv1zKYTf40XK/mgAy03U3Z5ElMHuqkUqtYnEy+HK7LWaMAAAB99Uq/X4fJGVyYpg47P5kVJp/jwUlgGph+IEx3ZvIQEdHM3aQ0GQyXY8L1h2wAgTZ+88X18qYq5jF1aKZrqmIwXLcP1+eF623jv0/WKQAAQP9ZkUw+Ha6PCVde70edcp3qVB6gBNpqXTK9NJmM5loYOkRENOMXq0fC9NnheisXqoG2WBmur2faUAec7A9nkwPC9bxwHWNtAgAAIFyvDddnjdXlDuyYaaZLrWLPcL2TdQm05+ZkmP4gmR7JtCEiok66STkvvDwjXO/nYA1MuSZbeQSThma6cD0+XL8ermtYlwAAAPgdd4fJW7LJvuyaacbPW0w+z5oE2vF2L7kxrKybqhhm0hARUUeVWsX2YfoODtjA1EqmP+b1rjTD832X5Po34fpz1iQAAAA28+aXS5LJk5uq4JWvNIMPVpZ/yXoEptyycHlRahXbMWWIiKgjy7UsGv93DQduYMrIm5guNGM3J63cP0w+HK6ZtQgAAIAtWBuuP0kuz0+tYj67aZqhG5R7hQnnL8DUekc2WcCEISKizr1BaTIQLvuFy7fCdR0Hb2DyJ/hjdXkg04Wm/aTeZEGYLAnX65nnAAAA2LrXAOqacPnXMCmbqhhid03T+5ClLEgmX2QtAlNzXSqZfDKZ8NAJERF1fk1VDIXJE8P12vETEw7mwLa/3vU7yXQhk4Wm9eak677h+uZwbViHAAAA2GYm38smfxau/OuGpq1sMhIuL+JBS2DS1ofpFVHLAU1VMFyIiKhrblIOh5fPDJebuUkJTOr1rmdlK2czVWiaZveccH18uF7MyTwAAACmyB3hema47s2Om6bvoUt5TLj8mvUHTOLmpMs14eXR/BOeiIi6rtQqtguTl4frMg7qwDZZGiZPbKpikIlC7S6b7BAmp43/+30N6w8AAABTaCxcLw6TQ5uqGGb3TW2/QWmyd7j+O2sP2GY3hsszUquYw0QhIqLuvOBdyw7hcg4HdWCbfCNchUlC7W6sLvcK1wvD9V7+9Q4AAIA2WR0mP8kmFTtwmoYHMEfC5W94+BLYtgfms8nzwpWbk0RE1N2Fy7xk8kleFwhslQ3hck5qjfIRcmpbycq5yUcfl1yvC9e1rDsAAAC0/zxHH0wmb8tW7pVa/JuS2nm+I8eE609Zd8BWWZFNzs61jDBFiIioRzaFujhML+cCODBhvwmTmulB7aipisEw2StMXhkmt7PeAAAAMN3/pkyuXw6XY5OV27FDp3aUTfYI10/xlhhgwlYmk/OSCQ+PEBFRT10MHworjwyXq8N1PQd8YIuuyFYewPSgqS5cR8LksDD5ULg2rDUAAADMoJ+HyctyXe7MTp3ac/4jZ4br/aw1YIseTKYfT6aLmBxERNRzpVYxJ7w8Plx/zkEf2Kw14XJBahVzmRzUhhuUJ4fr1eG6irUGAACADpDC5KPhWrBbpyk//zF5SrjexDoDNmtduFyaTB7VVMUgk4OIiHr1JuXsMDklXMc4+AObdHc2OZmJQVNZUxU7huvrw/Vu1hgAAAA67+K4fjNcn8TOnaaysSXlruF6FWsM2KT14XJVeHloahV8d5KIiHq7XMtIuL4sXFeyCQAe0ndSa3QfpgVNwU3JgWwyO5scGiaXMncBAADQwTaE691h8vdjdbl7NuFfPDQV50SD4fIGzoWATbop13JsahVDTAwiIuqLkslQMjkvXJezEQD+4PWuJu9lStCk52yrGEhe7h6up/FqbQAAAHSR1WFycZgc0VT8m4em5EH5w3mTF/CQIrz8c6YEERH1XeG6W7h+KFwfZEMA/K/7sskSJgRN/kGQ8oBweRcn4gAAAOhSP04uz0ytYiG7e5pMTVXMCdfvs6aA33NvMnll4t/qRETUpxvEwajlT8LlkvHvTbA5AFx+Ha67MCFoErN1VpgcFy6Xhusa1hQAAAC62G3h8tZkZclOnyb1kLzJa1lPwP9aFiZvDpcdmA5ERNTfNym9PCRcrgzX9WwQ0O+SySeYDLTNJ92uOyWTM8L1Fzz4AQAAgB6xPFy/mk2ObCq+kUbbVq7l0awlQP8nXFeGyXuilkVNVfDvSSIi6u9SqxgK10OCb6QBG7JJzVSgrW3pktHhcN0vXD8ZrivCdQPrCQAAAD1kfZj8JlxfGK4LOAOgrX+YUxaEy7dYS+hza8LlkuSji5uqYDAQERH9tlzL48P1N2wW0Mevd70zXPi+Cm3d7DRZmOvyL5Lr7awhAAAA9IEPJtf9mqoY4WyAtuKa06xscjbrB33u8nDlziQREdEmLrS/JFzvYsOAvmTywTCZyySgidRUxVAy2S9cXx8m97KGAAAA0CfWhuu3ci1Lcs0DnjTh86fBbPJn4foAawh96vpcy0FMAyIiok2UTOYn07PDdRkbB/ThazbqbMI3VWjLs7JVzE4uTwzXz3KCDQAAgL585avrzWHyhqjLvXhVIU3wmpOEK695RT+6MVz/YpgvThIREW2+qGW3ZPoOLrqjz17v+pNkcgATgLZ8Ul0Op43/Nr8hXFezdgAAANDHmmRyaWqNKmcKtKXG6tEF4fIPrBv0mbFk+oJkMocpQEREtIWaqhjIdblTmFwUrivZSKBPvDeb7MwEoE0+vOE6NFaXe4TJP4frctYMAAAA8H//pkxWWrjO5d+UtJnrTYPJtA5XPpGBfhHJ9G9zXc5nAhAREW1FqVUsCpdPjH9fgk0FetnKcD2ZVU+buTk5P1yPC5Nrxi/AsG4AAACA37csXC/IG1/jOcxZBD30uVWp4fpV1gv6YybKPzRVMZuVT0REtO03KS9jU4Eed12YHMGKpz+sqYrBbLJPuJ4VrjezVgAAAIDNWhuuXw7XE7hJSZs4x5oTpueF6xrWC3rY6nB5e2oVu7DqiYiIJlE2OSz4iDl627+N1eWurHZ6iPl3YJh8MlzvZ50AAAAAE3ZDcj29qYrtOaugP3oY3qQVrnewTtC75IOpVezEaiciIprsBfpaRsLkSeH6PTYY6EFNuLy8qYohVjv9tqYq5iSTk8L1u+G6jnUCAAAAbLUcJhflWh7OGQb9bmP16OJw/Q5rBD3J9PNhKqx0IiKiKSq8HEkmFq43husGNhzoIdfnWg5nldPAwMBAsnIw+eheyeWccL2LeQcAAABM9jWH+p0wOT7Xo3NTq+CkgwaaqhgKk4+OvxKYdYJesS5cP5drOSDXwkPwREREU3/xXupwvYVNB3rE+nD9XFMVc1jdNLZkdHaYHBMu/8naAAAAAKbUfcnldcnKvTnzoIGBgYFs8qxwvY+1gR6xNlwvC9eDWd1ERERtqqmK2cn09HDNbD7QA+4Pkxexsilcdw6T/xeuN7AuAAAAgHaRj4frEU1VjHAW0ucPwLeK3cL1JtYEesCGcL0ymRzDyiYiIpqGm5Rhetb4q1rYiKCb3TNWl3/Cqu77m5P7h+sF4bqMNQEAAAC0/RWIPwiT54brQs5G+vxczORjrAn0gJ8lkyNZ0URERNNUtnLncHknNynR5S5vqmKYFd3PD1vI8eF6Rbg+yHoAAAAApu3fRneNPyS4J2cm/fywaHkC6wHd/uB7mCxhNRMREU1jqVUMptbonuM3KVeyIUGXvl7o5azmvrwxORgmC8LkjDC5KzZ+i5T1AAAAAEyvlcn1O2N1+ehcCw+O9ucNyh3C5B7WArr0QYs7w/RZY0vKOaxmIiKimblRuXO4vj9cV7E5QbedDC9dMjrKKu67mTU76vKgZPJ51gAAAADQAUxSNnlJmOzRVMUgZy39UzaZnU0uYh2gO29Oyil8T5eIiGimN5S17Beunxz/lgQbFXSFZPqNZDqXFdxHNyc3vpr6OcnlR/xrEgAAAOgoD4TJR5KVh6RWMYuzl755gHQwXE7goXd02du47g0vz0ytgu/oEhERdchNSgnTz7FJQbfIJi/LVvIaoT6oqYrBbDIarm8P1zv5/QMAAAAdaXW4fjtcTw7X2ZzJ9Edhsn+Y/JzfP7rmYQovX8HNSSIiok67SWlyYLh+l80KukAKk8ObqmDh9sMJr+thYXJFuC7ntw8AAAB0vDvC9dymKuZxNtMXNyh3D9eP8rtHl7yS+t2pVcxn5RIREXXeDcqhMHlCuF43/j52Ni7o1NdxfCa83ItV27s1VTGQXEfC9dRwvY1XugIAAABd5cEw+VI2OShchzjD6fFrSS7P5zWv6HDrwvT9uZZFrFoiIqIOLpkcGa7/HXyTEp1pbZi8rKn4rknPnuDWMivX5SPC9SPhuoLfPAAAANC1bgrX5yYvd06tYpCznZ69jnRYuF7D7x0dalWYvjfXsjurlYiIqAsKl+PC9Xr+SYkOdHMyPZZV2qs3J8v5YWJh8q1wXcvvHQAAAOh6S8PlXbmWR3DG06PncSa7hOuHefMNOtDKcP18Mnk0K5WIiKhLaqpiVjJthevtbGbQYb4YLgWrtPdKrWLXZPLGcL2F3zkAAADQU1aH6aVhchxvw+nZB91fuvFmNL93dNBrXV2/kEwOYoUSERF1303KkTA9KVzvYVODzjmplXNTq5jNCu2xm5NWHhSunwjXB/idAwAAAD1pQ7j+PJmcnlrFDpwF9dgNSpPHjb+Ji986OkIyvSHqkpuTRERE3drYknJOmPwVT8GhQ9yWTYyV2SMnsK4DS5eMzg5XD9cfhusafuMAAABAz9+kvC9cPxauZTbhu5Q9UjaZHS6f5TWv6JCbk7dGLUc1VTHE6iQiIuriUquYH16+PFzuDb5JiZk9kf3P1Cp2Y1X2zA3KMlzPC9dV/L4BAACAvnNjNjkumyzg7KhHrh+ZvChcl/Hbxky+1jWZXhu1HNFUBQ9AEBER9chNyoXh5avC5TdsdjBDVobJ21iN3V9TFXOS61Hhehm/awAAAKCPmdwfrq8J14dxptT95VoODte7+W1jhqwN06vD9NimKoZZkURERL13k/Jvx1/HwsYH0y2Fl8eyErv+hHWPbPLicP0p/8gGAAAAEK7Lw/Xi5HJ0ahVzOGvq6odRZ4frFfymMQPWh+n3w/Qp3JwkIiLq3ZuUCzb+k1JXsvnBND9Ze11qFfNZhV17ojoYdbl/mF4UrrwuGgAAAMDvWh0u14XJqbmWeZxBdW9hcjq/Z0y3ZPrLMHkCNyeJiIh6fbPp5Y7hcgEbIEynbPJ2Vl+XPthg5UDy0Sckk2t5uAEAAADAJmwI1xwmH2iqYkFqFZxMdWFjdVnwW8Y035y8LWo5qqmKIVYgERFRH5Rr2TVM3zH+KhY2RGj/qzpcD2XldVdNVQyG6+7J5FXhuo7fMQAAAICJ3KhMJt8LL58QrttxZtVtD7XLrHD5Cr9jTM9DDXJ7tvI4bk4SERH1303KvcP0neF6P5sitJfcEi58i6Sb5oPJ3GzyuHD9d/41CQAAAGAb3Baur8wmi5qqGOQsq2uuFQ1lk5fw+8U03Jy8Kbw8ObWKuaw8IiKi/tx47hOmF4brKjZHaBuTd4fJCCuuOwrX+eF6Wrhexz8nAQAAAEzC0jD5UDbhjTpdUlMVA9nkMeF6N79ftPHm5C3h5SmpVfAvayIioj6/SbkoTN/DBgltsjpcnppNeGK2C0qtYq/k+p5wvYvfLgAAAIApsDZcfxCuVVMVvFmnG64TmSwK10v47aJNb9lK4eVfplYxj9VGRERE45tPuZhNEtqw8fxBMilZZV3xsMJjw+RrvNIVAAAAQDte+Zpc35haxa6cfXV2S5eMzs0mZ/ObRRuuEa0IL09KrWI2K42IiIgGBgYGBsLLgWRSJpMvbfzHG5smTNVrO/Qt2WR7VllnllrFYFi5W5i8Klzv4TcLAAAAoI3WhMllYXJ0rss5TVVwUtaBNVUxkEyfGq6385vFFL7W9c7w0lKr4BNARERE9BA3K0weFa6f5x9UmCI5XE5kZXXqgwk6EK6Hhsu/hOtyfq8AAAAApslNYXJauO7EmVnHPsj+sHD5PL9VTNHNyZvCy5NTq5jL6iIiIqLN3aQ8aPwm5Ro2UZikb4bJo1hVnVdTFbPC9RnhejW/UwAAAAAzYFm4nh+uB3CG1pHnjLPD9JxwXcVvFZN0Z7icmlrFdqwsIiIimshNygOSyVfZRGGS3p1N2IB2WNlk7zB5Xbj+it8oAAAAgBm0KlwvzSbHNVUxh7O1jrs2dCLnjZik5WF6Zrjy6R8iIiLaqo2oJpMr2UxhG0W4vICV1FmF6/7h+ulwvZ/fKAAAAIAOsDZcbwmTM7LJAs7aOqexenTPcP0Gv1Fsq2zy2lwLNyeJiIhoq29QDiSTMpn8R7iuZmOFrfSDXMuBrKTOKNeyffLy1OT6643ff+A3CgAAAKCjrAvXz4bJw1OrmMVZ3MzXVMVAMn1LuK7g94mtfYVzNjkr18I/o4mIiGhSNyofGRu/SbmSDRa24gnYjzdVMZsVNOMnlMNhsl+YnhsmnFQCAAAA6GjJ9drw0pOVO3NGN/OFl48P13v4bWIr3Bumf5dr2YEVRERERFNxk/Kg8ZuUa9hoYQKWhslzWTkzvG5bxdxk5VPD5FL+BQ0AAACgS2wIl9vC5NxsIk1VDHJ2N6MPvS4I1x/xu8QEpTB9ba5lV1YPERERTeVNykekjTc62HBhS349VpcPY9XMXOG6Y7i+Klx/Nv6PVn6XAAAAALrqFZFh8oUwOTpcuUk5g2WT9/J7xAQ8MP7PyV1YNURERNSOm5SSTK5k04XNk4ubqhhixcxMS5eM7hiunwrXht8iAAAAgC62NlxvDdeTOdObyQdgR5/AbxFbkk3+LteykBVDRERE7bpB+dublF/mlZHY5Ka0lmewWqa3pioGw3V+Nnl6mPwyXNfzWwQAAADQM//Mcr1orC41m4xwBjjdNyjLWWFyC79DbML92eTsXMscVgsRERFNx43KR8bGb1KuZCOGP3Df0iWjPDE3neuxVQyHi4brG8P1N/wGAQAAAPSgdWHyzXA9IZts31QFJ4PTVDYZyibn8xvEH9gQrreFySv55yQRERFN903Kg8ZvUvJPSvyuz4XLMCtkutZhOZSsfEq4fHr8qWJ+gwAAAAB62Q3h+trUGt2DM8Jpeyh2ILx8Uriu4PeH/7s5KTeHl6ekVrEdq4SIiIhm4iblI8df98rmDL/95sDzs40OsjraX1MVc8LktHC9fvzbLPwGAQAAAPSDZWHykWTlIZwZTk/ZpAiT7/Pbw0Zyd3j5bG5OEhER0UzfpJRkciWbM4TrPWF6IK/aaX/huk8yuYBXugIAAADoU6vD9eowqZuqmMVZYrvPQUe3D5dz+d0hXFaEl55aBd+cJCIiohm/QTmQTCRcvxyuq9io9fUm9SPh5a6sivbUVMVANpkbrk8O16v41yQAAAAAXjOpOZm8JVwXhytv82nXtZ9WMRAmJ4brGL+7vn6t6z3hZSu1ihFWBREREXVM4Toarv8SrsvYtPXp06smpzYVm9R2lU0WZZMzw/UOfm8AAAAA8Hu+llyPair+1dXGB9QPDtfv8Fvr25uTN4eXf8k/J4mIiKgzb6DUsk+YXhiuD7J56zvXJ5PHsQqmvqYqRsL14HB9P/9SBgAAAIBNuimbvCCb8Gaf9jw0u0O4vDdc1/Nb67ubkzeFl6fwzUkiIiLq9JuUe4XpO9jA9d3rXT+abXR3VsDUllrFguTyrHD9Bq90BQAAAIAtvvL1N+H6njA5sKmKIc4qp/gc1eSv/z97dxpu2VkWeP+cGlJJJQQykQnJOut5gMgoMqnIJGKL2rhrP/cGh4ZWmWxacUAEWhq7xQG7ZWgcGnEAR5TBqRsRZBRoXmQSASEMHQImwLrXyU7IWElVve+Hqu5XhiRVqXOq9jnn97+u38dApdbKda37XsPOqINzbQtp9R/H1oebk5IkaaPcpDwrW/0tF3JbxlVDq0+bT7rtzv61HPz6s7KVn8uoF2fUfc4zAACAw3LtEPWtQ/TfOszMqWtZtvL1GfW9zrGtYWj1kpyWB8wn3U5nvyRJ2ig3KJfGaTk7W31xRr3ORd2m95GM+lBn/hoNfFF3jtP+7tnKmzPqXucXAADAEdufUa8eWnlGtnLqfNItmzbXYN/TyvaM8jJf+Nn8//0MrX44p+UbL9+z4r8dSZK0IW9UnpOtPj+jrh761IqLvM35CZ2/Gmbd6c74Nbk5eWZGfdzQysXOLQAAgKN2Q7byx2Mr98mou0ydR9/QyuMy6ujc2rRuzFbfna082GeSJUnSxr5J2crZGeVZGcVvFGxOV2cr/8mZfnTNJ92OsZW7ZtRfOXRD37kFAACwdm9TvjejPjajnmoCPeo9zwUZ9WPOq01pX7b6rmz1EX7GR5IkbYqGWXebjP5HM+r1LvY2nX/O6B/oLD+q4W7H2Mp3ZitvyKhXO6cAAADWxSVD1BeuTvvzTaJHV0Z5pfNp8xlafX+28jA3JyVJ0ma7Sbk7o39G+k3KzaWVdwyz7kRn+K1rPulOyqg/llEvPvRUr3MKAABg/Vybrbx+bOWeJtKjetD2B51Lm+7m5CU5Lfdzc1KSJG3GG5RLw2zlNhn9T6bfpNw0xlae4ey+Ff89tH7HECsXDlH/0FuTAAAAx/yTr58aWnnK2PrbDbNu2ZR6ZF2+Z+X0jLrXubQp3JhR3ja2ct/5xH8LkiRpc9+oPGU4+KTdR70xtuFdP8y6C5zVh9980i2N0/622cr3Zivvy6j7nEcAAADHxZVDlJcM0d9raL23xo6gjLKcUV7tHNrwrsuofz60cqGzWpIkbZWbNDuHVr8no17kYnBDf9713dmKp+uOaIirfbbyvIx6qXMIAABgIfxdtvLd80m309R6eI3TsjS28m+dOxv8c8dR/2jwuWNJkrQFb1LuyFb3ZNTLXBRuWM8eW3EyH/7NyW/MqH+ZUW9w7gAAACyUT2Urz8qoZ5teD2unszS28rUZ9dPOnQ3pQLb6ooxqqSNJkrbsBe32bPXRGfViF4cb7/OuGeX+GdWJfMvn+clD1B/OqB/wWWMAAIDF/eRrRv2DjHpXk+wtN7ZyZrb6+86bjfhFrPqb47Sc6SyWJElb/YJ2x9DKgzPqu9282UjKW4dWzncG38y5Pe23ZSsr2cqvZtR5Rj3gvAEAAFhoN2bUj2Yrj16d9rtNtjfd5XtWdmTUH8yo+5w3G8YVGeXZ2eoZzmBJkqRDDa08MKO+xecvN4T9hz7vali7qfN51p2UrXxHRn2P8wUAAGCjvWFWrs1WfmFo5YL5pNtmyv3qZZT7ZdR/cM5sgE+6RvlcRv/jw6w7xZkrSZL0ZY2tfENGfZU3KRfe5zLKI5yxN3Wzvb9DRvmJjPoZ5woAAMCGtS+j/sUQ5VuGWXeSafer7XH68zLKK5wrC++TGeXfD7PuVGetJEnSTV3cTkufrf6Zi8eF9jfZyp2drV/awd9ULffJKL+bUb/oPAEAANgUn3z9YEZ56tB6n8X8yjl4Z7b6zIx6rXNlYV2arU7nk26HM1aSJOmWb1J+bbbyqoy614XkIg5n5efHVnY5U///MuoJ2cqjs5X3ZtTrnCcAAACbypBR/2Bs5WtMwF8+D5dvzagfdY4spIuz1dl80m13pkqSJB3eDcrljP78jPKCjHqNC8qF8umhlT3O0oPNJ93yEPXkjPqLGfXKg7/r4DwBAADYhG7IVi7KqN+YUU8wER/s8j0rZ2TU/2keXij7M+rfD608eGzFm5OSJElH2jDrTsso/yWjXu7icmG8aWzlAmfn0tLYyknjtP/GIepbDGIAAABbxuUZ9T9mK+fNJ9020/HS0tDqz2TUq5wbC2FvRn3T0Mo3OTMlSZKO7ibl6dnKMzNqushcgKdFo/7aVj8n55NuOaf9OdnKk7OVDx16MtH5AQAAsHVck628YpyWB43TsuXfphxbf7+M+mnnxUK8OfnKjHpvG0VJkqS1uSF0wtDqT2bU0cXmcfWFbOUxW/6mefQXDlF/I6N+wTkBAACwZd2YUd87tPLE+aTbtcX3Nidlq29xThxnrb5mnJbeJlGSJGkNG6f9KdnKD2fUj7voPG4uWt3Tn7ulb062/mEZ9e8z6rXOBwAAADLq54ZWnj/MurO38rycUZ6Wfv7keH7W9aVjK3eyQZQkSVrj5pNuKaf9rqGVyKgfc9F7zB3IKL8xn3TLW2/Iqsur0/7UbOXHfbIGAACAr+L6jPrGofXfMLayfT7ptt4DvbPu7hl1n3PhmLs2o7wwoz83oy7bIEqSJK3rDaP+/hn1rem3/47p7xiM0/KwLXhzckdGvW+28upDn+9xLgAAAHBTLs1Wnpqt3H4r3inKVj7sHDiWD5LXIaP8wjDrTrMtlCRJOkaN03KvjPomN42Omc/OJ92JW+kcm0+63UPUx2XUdzv+AAAAHMHblC/NqPfYeg/5lv/s+B8zw9Dqj8wn3Qm2hJIkScf6JmUr98wor8ioN7gwXWet/MYWuwFespX/nFFXHX8AAABuhTcOUffMJ91JW+cGZf+AjHq1Y7/uPp2t/pibk5IkScepYdZtG2Yrdxmi/HZG/aIL1PUztvLtW+Gcmk+6HUMrD86of5lRr3LsAQAAuJX2Z9RPZivPHqfl7C3yIPl52crbHft1dVFG+d7Vab/bZlCSJOk436TM1p81tPp8NynXzccyarepz6PWLw2xcsoQ/RMy6id9OhgAAIA1cCCjXp2tvCan/V0zum2bebbOWDkpozzr0L+347/2N7zfnq08aGjFm5OSJEmL0nzSnZhRn5VRP++ida2VX83ob7uJz51tGbXPKC93rAEAAFgPQytDRr9naJt3vl5aWlrKVr4lo37OMV9TezPKK8dW7mIDKEmStKANrTwlo17i4nXNXJutfO980m3flINT1FOyle/IqO90rAEAAFhnV2aUX8yod5lPNufblGMrJaP+D8d6zXwxo/z+MOvOtvWTJEla7AvhE8ZW/m1G/YCL2DXx3qGVr9+kNyfPz6j/IaN+yudnAAAAOGYPAkd9bbbyiIy6a9M9OD7rdmWU52bUfY71URuz1V9e3dO7OSlJkrQhblJOy4kZ9REZ5e9cEB/1511fsjpdOX0znR/zSbc8Tvt7DlFflVEvd4wBAAA4xvZn1I9m1J/OqJvui0VDK9+bUS9znI/KP2fUnxxbOWM+6Sz7JEmSNkoZdUdG/3UZ5Z2HLvxd3B65K4ZW/9180i1vkhuTS0Mr28ZpeVS2clFGvdExBgAA4Hh+vnOI+vLL96ycPU7L8qbZybRyt4z6Dsf3Vrskoz5uaGW3DZ8kSdLGvSm1e2j1jzLq1S5wj9i7Mvp7bYbzYJh127P1K0Mrv+JcAAAAYKHepmzlA2Mr07GVUzfLQ8IZ5b9l1L2O7xG/WfsP47Q80EZPkiRpE7Q67U/PKM/PqOli97Dty6i/N590G/5pvaH1Jw5RHjFEea3hCAAAgAX1uWzluUP03TDb+Dcph1ZmGfXzjuth25tR3jzMVi60yZMkSdpEDa2ckVGemVE/7aL3sFw+tPojm+Dm9MkZ9acy6occUwAAABbcNRnl1Rn1QRt9Hh9bOTej/INjepjHvZU/zOjvOcy6bbZ4kiRJm6yM/rbZyhMyyicy6gEXwDfrUxn9123s410vyFZ+K6POHU8AAAA2kPdl1B+YT7oTNvjD4v/90GdLHdObfUC8vCCnpWyWz/tKkiTpqzROy0kZ/YMyymdcBN+kA9nKG4ZZt3OjHd/5pFvKVpYz6sMz6tt90hUAAIANOZdH/UK28sKxlfMz6sZ8cLiV78yoNzqeN/3m5NjKfxxauZ2bk5IkSVukIVbuMbT61ox6gwvir7BvbOXJG/Dm8/I47e+QrfzHjLrqOAIAALAJ/K+M+tBhtnLShrxJGeWzjuFX2J9RPzdOyx4bOkmSpC3WfNIt57RcOLT66ox6pYvjL3HlMOvO22DHc8fQyv2z1Vdl1OsdQwAAADaRyzL6p47Tcs4GvEH5csfvy29OlvdllD1jK9tt6CRJkrZoQytdRvkvGTVdJB/Syps21DGcdacOrTwuo77b8QMAAGCTuiJbfUm2cr/5pNswN7bGVqaO3f91fUZ9Q0b/sGG2sX9fVJIkSWtQRn9WRvmxjDK4WK7/b0Z50sY5drXPqC/IqP986Dc6HD8AAAA27w2uVt4xtH7PMOtO3CA3KFcy6scdu3pDRv2LnJZ7zSfdNts4SZIk/Z8L5t0Z/Z6Mcs0Wf3tyNaPcZdGP13zSLY+tfF1GfWNGvcagAwAAwNb5RGj9fEb9+Yx64gbYt9w2W33pVj9uQyt/mFHPcXNSkiRJX9HqtFvOafn6odW/zy37O4blFWMrpy/yccqop42t/Gi2crXBFAAAgC3qQEZ98zjtv3ZsZdcCP2C8LaO0LbpnOZBRc2zlJ8Zp2WnzJkmSpJu/cD74Zt4fZ9SrttiF876M8kPDrFvIi+Zh1p0wRLlHRv2NrXsDGQAAAP7FDbBWLsqoP5RRz1jcB43LPTPqu7bYsbkxo34wozw2o55k4yZJkqTDvHiuNaP+t4w630IXz5/JKA9axOMxTssp2cqjM+rbMupeQygAAAD8X5/LqM8for/bMFu8T4iO03LaoYeNt8rxuCGj/m1Oy7fNJ90JtmySJEk60gvoczL6H80o122RC+i/zFZWFu04rE77M7KV52XUTx76rQ3DJwAAAHypa7KVN43T8vBFm+sPfeb1hzLquEWOxe9llHvMJ9122zVJkiTdqjK63dnKEw49jbjJn+4rzxpb2bFIf//DrLvj0Mr/yKh+bxIAAABu3v6M+r+zlR+bT7oTF2u/0n9TRv3A5v77L9dlK7+eUc+xUZMkSdJRNZ90S5fvWdmRrTw8o75zE39e9GNDK9+2IH/nyxn1Nhn1BzLqJXnwR+UNmgAAAHB4rh1a+cOM/u4ZdeeCzPqnZtRXbNIZf39GvTijf8IQKyeP02KhJkmSpLUro94ro75yE77NdyCj/tXYynnH++94bGX72MrXZtT/mlFXDZUAAABwq70vo37P6rTfvQh7laHVn8io8032d3xjRn330Oqe+aTbYXsmSZKk9bmBNi0lo/xyRr1qE11MX51R/tOC3AR+ZEZ9/cFPzhomAQAA4Chdlq387NjK1xz/h5L7e2XUj2+qv99W/2Ro5ZtszCRJkrTuDbPutGzlJzPqpZvkgvqSbOURx/nv9Iwh6o9m1I8YHgEAAGBtP/maUf80o37zfNIdt0++zifdrqHV126Sz7zuzagvHaelsymTJEnSsbqgXhpb2T208pjN8eRfeefYynH73Ms4LX228psZNdPvTQIAAMB6uCGj/sMQ5QeHWXfy8doBZJQf3gRfTVrNVp49tnJORrUokyRJ0rFtaGXbOC1fl1Ffd+jJuQ36WwnlF47PULKyO1vZk1E/lAd/UN7ACAAAAOvnQEa9Klv5nWyln0+6bcfhoe9zMuqVG/Tvb19G/cDQSlvds3LifNJZjkmSJOk43qicdWdnlJfkxvxdyuvH6bH/rYSMeseM8syMOjcgAgAAwDHWyruylYdl1FOO/QPf9a835gPe9Q0Z9UE2YZIkSVqYLp90Jw6t/lJG/cwGu8D+6HzS7TpWf0/zSbcro35zRv2jQ08eGgoBAADg+LxN+cmM+vSMev6xfWi5f+IG+7u6NqO8YmzlTjZgkiRJWqjmk25pnPa3zSg/kFH/cQM9MfnLx+rvaGzlttnKEzPq+zbB700AAADAZrCaUV8+tnLv+aTbfoxuUN59A33mNbOVX8pYuWCYdRZgkiRJWswy+hMz6kMzyjtzA/yu4tjKA4/F38vqtD83o74oo37h0FOahkAAAABYDNdnKx8cW3nUMXqA+cxs5Y0b4O/lsqGVp46t3G4+6ZZtvSRJkrTgNynrtsv3rJw3tPr7GfWaxb3QLm/PKLdfz7+LofUnDrHyjcPBtyZvNPQBAADAwn7y9ZqM+rNj688bZuv3NuUw607IKE9Z4Ae792fUD4zT8tChlR02XZIkSdpQzSfd7qGVn8uo/7yYn3etzxmn5aR1+ndfzlbOy1aelq1cYtADAACAjfE25RD1r4boHza0fve6Pdzdyjdl1M8s4L//VRnl9cOs+xqbLUmSJG3YMvrdGeVxGfW9C/Zk4JhRvm09PlGSUXdkK/fLVn4no84NdwAAALCh7MsoH8xWfmSc9qetx75kbP3XZJRXLdonXTPqfxlbOcdGS5IkSRu+g58u6b85W31dRr1hQT7v+uaMcpf1uSlbvz+j/j8Z9XpDHQAAAGxYw9DKSzJqtw67kp0Z5ekLsjvYn1E+PLbyxLGV022yJEmStGmaT7ptQ6vd2MqLF+NNyvLC1enKqWv873i7jPqcjHqpIQ4AAAA2xydfM+pbMupD13pXMrbyyIz6ieP873dgaPXtGf23jG19fgZHkiRJOu6NrewaW/nxjHLZcbxROQyt/pu1+LzrfNItja2cMB78pOtrM+p1hjcAAADYVA5k1M9kK09fnfa3H1tZk5+LGWYrt8+of34c/72uGVp52eq0v/0w67bZWkmSJGlTd/AzJv13ZdR3Z9S9x+EC/K0Z/deuyb9L9LfPqE/KqB8xsAEAAMCmtjdb+aOMet/5pNuxFnuFjPJLx+Fh5wMZ9dMZ5acz+lNsqiRJkrRlmk+67Rn1GzLqKzLq1cfwIvzGbPUl80l34lHfnGz9hRnlxRl11ZAGAAAAW8a7hyiPHmbdUf90TLbyrzPqZ4/hn/2GjPrOjH46zI5+NyJJkiRtyDLqSkZ97jG8Sfn5oZXHHuXN1Z3ZyiMzymuP0xugAAAAwPF1cbbyc0PrV45mxzC2cmZGedcx+jPvz6h/nFHvM590222lJEmStKUbW7nt2MoPZtTLjsHF+D+uTlcuOIobqqcNrfx4Rv1oRt1nIAMAAIAt6UBGvTKj/OXYyv3mk1v/G45DK7+SUW9c3z9vuS6j/OLYyvk2UZIkSdKhVvf0O7KV+2bU12fU69fpgnzf0OrL5pPuiH/M/tAnae906JO01x0aRAxkAAAAsLXtG1r5dEZ9QkbdfSsf3H7QOn5Zal9G/fgQ5Yf83qQkSZJ00xfl52eU52fUz6/DTcBrM/rvvBV/plPHaf9dGfVjBi8AAADgJrxoiHqX+aTbcaS7h4zyoXX481yXUV+brTzIJ10lSZKkW2iYdacNrT7l0GdU1/LC/PPDrLv94f455pNuW0btM+qzs5XPG7QAAACAm3FjRn3b2MqjxlaO6G3FbOUX1/jPckVGeXFGf6FNkyRJknT4Nwd3Dq18x6FPvt6wJhfnrfzFEdwk3TlEeUhG/dODF/UGLQAAAOAW7c+oH8tWnj1O+3Pnk+6w9hBjKw/IqHvX6M/wv7OVpw6z7nY2TJIkSdIRNk7L9mz93TPKbx/8POvRXqD333NYNydbv21o5SkZ9aI1HA4AAACArWM+RH3NMOv6w9lFZJSzMsoH1+D/9+0Z5ZGr0/5EmyVJkiTpVjbMuuVx2p+WUX4qo342b+3vUrZyWbZyh5sfBur21Wl/Trby6xn1GsMUAAAAcBT2ZdRPDq2fZisn3tzblOO0nJyt/MpRfdK1lZcMs34lo/d7k5IkSdJaldE/LKO++9a91Vh+d2zlNjdzc/LkjPrIbOU9hz7HYpACAAAA1sJqtvK8sZWaUb/qzcP5pFvOKI/MqFffiv/9j2eUp8wn3S7bI0mSJGkdGmLlztnK72XU1SO4UL8+ozxmmHXbv9oAME77O2TUZ2TUTxiaAAAAgHVwY0b9nxn12zLqtq/68HQrd8mobz2yfUd9c0b/7TZGkiRJ0jo2n3TLY+vPzShPzygXHebbjh/OVu791f73xlbunq28IqN+0bAEAAAArLMPDVF/dD7pvuIrT6vT/tSMerifef1CtvLijP5uw6zbZmMkSZIkHYMy+ttk9P9qaPUth37T4eY+7/qbGf2ZX3aj84Shlcdk1Hfd8j8PAAAAsGbGbOXXxla6L38oO6N8b0b9/M38swcyysezlcdnK2fNJ92yLZEkSZJ0DBtm3fZx2p8/tPI7GfW6gxfpX/Xzrk8ZZgcv2IfWbxti5bwhys9l1Mtu4p8BAAAAWE97M+o7s5XvGNvKicPs4L3KcVrullHfdhP/zA1Dq383zFbuM07LCTZDkiRJ0nFsnJYTxlZ+OKN8LKPe8GUX7/84tPLgpaWlpdU9KzuzlYdklDcYhAAAAIAF8Pkhyn8YWn/e0tLS0nzS7cyov5YHf7PyX7w1WT8/tPKr47Q/yyZIkiRJWpCGWbdraOURGfXPM+rV/+IC/k/HVs7KqKdnK0/MqBcZfgAAAIDFUn4vW7nvfNLtyCjfn1E/93/emsyo789WnjROy6k2QJIkSdICNrZyp4z6Cxl1nlGvzCg/nVEvzKgvzKhXGHgAAACABXRjtvK/spXHja1/QEb9UEa9IVv9i6GVhw+z7iRbH0mSJGmxb1KeNrby2KHVdw1RfimjvimjXmPYAQAAABbYgYx6aUZ9fkb9m4z6nKGVfj7pttv2SJIkSRugQ783ee+M8hd58IfnDToAAADAotufrX5kiPJvMvpTbHgkSZKkDdg4LXfMVl546LcbDhh0AAAAgAV1ZUZ95djKPWx0JEmSpA3efNKdPLT6+Iz6fsMOAAAAsIA+nVGenVFvb5MjSZIkbaLGVh6SUV+dUW8w+AAAAAAL4u8yaswn3U7bG0mSJGmTlVGXM0qXUZ6bUdMABAAAABxH12SU387o753Rb7O5kSRJkjZp80m3lFFPziiTjPrhjLrfQAQAAAAcQwcy6iXZylPH1p85zLplGxtJkiRpizTMuvOzlT/OqFcYjgAAAIBj4LqM8vpxWh5gMyNJkiRt0Vb3rNxmaOWZGfUjGXWfQQkAAABYJ5cOrf765XtWbm8jI0mSJG3xxlZOHFv59oz6uoNPMhqaAAAAgDWzP6O+J6M+fmzlVJsYSZIkSUtLS0tL80m3I1u9c0Z9Xka9yvAEAAAArIG9GfU1GeX+GXWXDYwkSZKkryij3iajtoxyRR780XrDFAAAAHBr3JhRfjqjnjmfdMu2LpIkSZJusvmkWxpbf+eM8pqM+kUDFQAAAHAErs1W3pPRP3yYuTEpSZIk6QjK6M/LKP85o34qo+4zYAEAAAA340BGHbLV38xW7jafdNtsVyRJkiQdccOsO2VoZZpR32rQAgAAAG7Gx8ZW/t04LefYqEiSJEk6quaTbvvQyj0y6m9l1OsNXAAAAMCXedvQ6gPnk26XTYokSZKkNWlsZWls/VnZytMy6mDwAgAAADLqdRn1hWMrZWzFAkWSJEnS+pRR75dRX3doCDGMAQAAwNZzY0Z9f0Z99HzS7bAtkSRJknQsblLeIaO8KKN+3lAGAAAAW8qVGfWPM/p725BIkiRJOqbNJ92ujPLkQ09MGtAAAABg87t4aPU5w6w702ZEkiRJ0nEpoz8hozwko/5pRr3aoAYAAACb0r6M8uZsZc847W9jIyJJkiTpuDbMuu3Z+jsMrfz8oc+8GNwAAABg87g+W/3DsfUXjq34vUlJkiRJi9F80i0NrSyNrXxDRvnHjHqDAQ4AAAA2tP0Z9TMZ9XuGVpfnk84CRJIkSdJiNk77uwyt/kFG/YJhDgAAADakKzPKGzLqN9t0SJIkSdoQZdQzM+qPZdQPH/ydCsMdAAAAbBCXZZRfGlvfzyfdsi2HJEmSpI10k/LkbOWhGeW1hz4LY8gDAACAxXVgaPW9GeX7MvrTbTYkSZIkbcjmk25bRjkvo/xaRrnWsAcAAACLaWjldTktdxtm3Qk2GpIkSZI2fMNsZdcQZZatfiCj7jX4AQAAwELYl1E+m1F+fGzllPmks8SQJEmStHmaT7rtYyv3zai/n1GvMAQCAADAcXVdRn1jtvKo+aTbZXMhSZIkadM2tnJeRnlmRr3EMAgAAADHxTUZ9UUZ9a42FZIkSZK2RPNJd1JG/e6M+k5DIQAAABxTn8goT8mop9tQSJIkSdpSZdTtGfWe2crLDj25aUgEAACAdVXeklEeujrtfdJVkiRJ0pa9Sbm8umdld0Z5Ukb9eEbdZ1gEAACANXUgo146tPLcYbZydka/bCMhSZIkSUtLSxn9gzLKX3ubEgAAANbMvoz690Mr3zufdN6alCRJkqQvb4iVPlt9QUb9jCESAAAAjspVGeVPxlbuY+MgSZIkSTfRfNItr077M8ZWHptR3pdR9xsoAQAA4IhdnFGfmdPyNfNJ55OukiRJknRLja3sGlt/34z6Zxn1RoMlAAAAHJb92cr/k1EfmVFPtmGQJEmSpCNoPumWM+qujPrMjLrqbUoAAAC4SQcy6hczym+t7lk5PaNus1mQJEmSpFtZRt2RrXxXtvK2jHqtoRMAAAC+xN6M8sGM/t9n9LtsEiRJkiRpDZpPum0Z5R4Z5b9n1OHQk6GGUAAAALa6L2arrxxa+ZZh1rk5KUmSJElrXUZ/bkb/pIz6CUMoAAAAW1u5PKM+e2ylzCfddlsDSZIkSVqnhll3Yrby4Iz6JsMoAAAAW9THx9ZPx1ZuY1MgSZIkScegy/esLI+tnJdRnpdRM6PuN5wCAACwyR3IqFdn1Fdk1Dtdvmdlmw2BJEmSJB3j5pNuZ0aNjPqujHqjYRUAAIBNan9G/Vi28rSMeoaNgCRJkiQd5zLq/TLqyw49SWpwBQAAYDO5IaO8IaN853zS7bQFkCRJkqQFaYiV22crP5NRP2N4BQAAYJO4PKP8akZ/D5O/JEmSJC1Y80m3NLb+lGzlX2eUv8uo+wyyAAAAbGAXZStPztbffph1yyZ/SZIkSVrQxmnZPsRKGVp9aUadG2gBAADYYK7NKK8bW7nP2MrO+aQz7EuSJEnShrlZ2crjM+rHM+p+Ay4AAAAbwKUZ9efnk+40U70kSZIkbcwblNvGVh6eUf4io15l0AUAAGBB7c2ob8+oj82o2030kiRJkrSBm0+65YzaZ9RfzKhfMPQCAACwYK7MKC/L1n/9MOt2mOQlSZIkaZOUUU/LKN+drXzU8AsAAMBiKJdmKz+SUc6dT7pl07skSZIkbbKGWbd9nPZdRnldRr02ox4wDAMAAHA8Puk6tPq+IVa+cZyWE0zskiRJkrTJG6fl1GzlpzLqJzLqjQZjAAAAjpEDGfULYysvHls5y4QuSZIkSVuoYdbtHlp5VEb964x6vSEZAACAdXZjRn1vRnnC2MppJnNJkiRJ2qKNrdw1o77ATUoAAADW2Z9k1G+aT7odpnFJkiRJcpPyjIzy+Iz6aQMzAAAAa+yKjPKcjHpHE7gkSZIkaWlpaWlpPumWxlZ2ZpT7ZZTXZtS9BmgAAADW4JOuH8xWpmNb2T3MOgO4JEmSJOkrG2bdGdnKz3mbEgAAgKMwZpTfHqflTiZtSZIkSdItNp90JwytTDPquw898Wq4BgAA4HB9fGj1qcOsO8OELUmSJEk6osZWviFb+d2M+kUDNgAAAIfxSdc3jK189/ZlM7UkSZIk6VY0n3TLOS3nZqtPy6ifNWwDAABwE+YZ9YVjKxeOrewwUUuSJEmSjqqxlRMz6gMzynsy6j6DNwAAAIfsz6iXZNQfyKgnzyeddyclSZIkSWvXfNLtzqgvy6iDIRwAAGDLuypbecMw6y4wMUuSJEmS1q2MfndGeXJG/YdDvy9iKAcAANh6b01+KqM8b2z9uSZlSZIkSdK6N8y6Xdn6h2Yrr8yo1xjOAQAAtowbstW3ja20cVpONSFLkiRJko5Z80m3bWjlgmzlZzLKVYZ0AACALfDmZCsvHVq963zS7TAZS5IkSZKOS+O07B6n/XcNrX7i0Gd+DO0AAACby4GMMs+oTx5bua1JWJIkSZK0GDcqW+kz6u9n1PnB4dUQDwAAsAlcnVH/dmzlAfNJt830K0mSJElaqDLqGRnlJzPqx9ykBAAA2OhvTdbLMsp/zehXTLySJEmSpIVtPul2ZtRHZpS/MdADAABsWO/PVh43zLpTTbqSJEmSpA1RRn/XjPLijHqVwR4AAGDD2JutvGZo5Zvmk26H6VaSJEmStGEaZt3y2PrTspUnZNRP+OQrAADAwn/SNbOVn12d9ueP0+L3JiVJkiRJG7exlQszyisz6tWGfgAAgIVzQ0Z9x9jKvzLBSpIkSZI2TfNJd7uh1edl1P9t+AcAAFgY84zyexm1M7lKkiRJkjZdGXVXRn1MRn17Rt1nEQAAAHBcfSSj/tTqtL+diVWSJEmStJlvUu7MKPfOKL+VUb9oIQAAAHA8PulaXp9RHpHR7zapSpIkSZI2ffNJt5xRTsso/97vUgIAABxT1w2tvHCc9hcMs267CVWSJEmStOUaYuXeQ6tvzqjXWBQAAACs61uT/zROy8wkKkmSJEna0s0n3XJO+5KtvDCjfjajHrA4AAAAWFPzbPVV47TcZz7ptplEJUmSJElaWloaWzltbOXfZtQPZNT9FggAAABH7UBGvSSj/oexlTuaPCVJkiRJ+rLmk+6EodX7Z9Q/sUgAAAA4au/LKI/MqKeYOCVJkiRJupky6rkZ9bkZ9XoLBQAAgFuj/GFGvZNPukqSJEmSdHg3KJfmk257RvnWjPr2jLrXcgEAAOAW3ZhRPzy08gPDrNud0RswJUmSJEk68puV/d0yyu9k1LRsAAAAuEnXZNQ/G1r5lvmk22GalCRJkiTpKBpm3elDq0/NqJ+wdAAAAPgKqxnlF8dW7miClCRJkiRpjVrds3JitvIdGeW1hz5bZAkBAAAQ9b1Dq49b3bNyqslRkiRJkqQ1bmxl+9j6mlFflFGvsIgAAAC2sH0Z5a8y6n0z6k4ToyRJkiRJ69R80i1l1G0ZdZJR/8nblAAAwBZ0SUb5icv3rOzOqAZFSZIkSZKOVRn17tnKn2XUuQUFAACwBVybUd+d0T/SRChJkiRJ0nFoPumWxtafl1F+NqN8MqPut7AAAAA2qWFo9b8P0d99mHXLJkJJkiRJko5jGf1tM/o9Q9S3+eQrAACwyRzIKB/NVp6crZw7n7g5KUmSJEnSQjTMup05LReOrbzUAgMAANgshlbfNbb+AWMrJ5r8JEmSJElasA5+8rWcMLbyxIzyaW9TAgAAG/etyXp5Rv3lodWTvDUpSZIkSdLi36jcMbbykIz6Vxn1KssNAABgA7k+o7wno3x/Rj3JhCdJkiRJ0gYqo9aM+ryMepklBwAAsAFck1FellHuN5902011kiRJkiRtzJuUt8tWZhn1nyw7AACABfa5jPKTGf3XmOQkSZIkSdrgXb5nZXtGeUBG+cuMutfiAwAAWDDvz1YeNcw6n3SVJEmSJGmzlNEvD7OVM4dWnplRL86o+y1BAACA4+hARl3NKL82tnLBOO23zSed4U2SJEmSpM3WfNKdMLbyyIz6xox6o6UIAABwnLwvoz5hPulOMalJkiRJkrQFGlu5U0Z5WUYdLUYAAIBj6NqM+tqM+kCTmSRJkiRJW6j5pFtanfZnZ9QfyagfsyQBAACOgcuylZ/PVu6UUQ1mkiRJkiRtxTLqSRn14dmKT74CAADrZX9G+WBG+f6xldvOJ92yaUySJEmSpC1cRt22Ou1Pzyi/nFHnGfWABQoAALBGrh5a/eNhtnKnjH67CUySJEmSJH1JYyuPySjvy6jXW6QAAABH99Zk/dTYyjPmk263aUuSJEmSJH3Vhlm3Y4jygGz15Rn1cksVAADgVrgmo/zt2MqjxlZ2mbQkSZIkSdItNrZyh4z69Izyz5YrAADAEbgio75gbOVu80m3w3QlSZIkSZIOu7GVU8bWPzCj/qMlCwAAcIta+VxGfWxGPcNEJUmSJEmSblXzSbecUe+QUX83o16VUQ9YvAAAAP/CgYx6XUZ549j6e2VUb01KkiRJkqSjb5h1J2frfyijfiij3mgJAwAAZNR9GfXijPILGf25JidJkiRJkrSmzSfdjozy8Iz6yoNPSFvIAADAFrY/o75laOX7hll3GxOTJEmSJElat8ZpuSCjPC+jpqUMAABsSXsz6svHVr5uPul80lWSJEmSJK1/Q/S3y1YfnVE/aDkDAABbyqVjK88YWznfZCRJkiRJko5pYyvbx1bumVFelVGvtqgBAIBN7YaM+o6M+i1jKyfMJ52hSJIkSZIkHZ/mk25XRv2pjHqxpQ0AAGxKQ7by3zLqHU1AkiRJkiRpYcqo04z65ox6vQUOAABsCvsy6vszyo/MJ90uU48kSZIkSVqohlm3LaO/W0b5jYy6apkDAAAb2tUZ5TXZysPGadlh4pEkSZIkSQvZfNItZ5TbZytPzCifyKgHLHYAAGDDGbOV5wytXDDMuu0mHUmSJEmStPCN07Jzdbpy4dDqWzPqXgseAADYKJ90LZ8YW3nk2MqJJhtJkiRJkrThGlvZPbbyvIz6z96mBACAhXZ5Rn3F6rQ/xyQjSZIkSZI2dBl1d0Z5dEZ9p7cpAQBgEd+arP+UUZ+eUc80wUiSJEmSpE3RfNJtz6j3zSgvyajXWwIBAMBCuDGjvD5b/+3DrDvJ5CJJkiRJkjZdGf3ZGeVHs5XLLYMAAOB4KtdlK7+SUe40n3TbTSuSJEmSJGnTlrGyK1v51oz6joNPbFsOAQDAMf6k66eGKI/P1p9qQpEkSZIkSVumcVouyFZemFE/l1EPWBQBAMC6+2JGffXYyj1NJJIkSZIkaUs2n3QnD60+IaN+wLIIAADW1SUZ5TljK3cwiUiSJEmSpC3f2MpDM+qrM+oNFkcAALDm3p1RZ/NJt9P0IUmSJEmStLS0lFGXM8pKRnluRk0LJAAAWBPXZJTfySj3y6jbTB6SJEmSJEn/ovmkW8qouzPKJKN+JKPut1ACAIBb5UBGvTSjPH1s/ZnDrFs2cUiSJEmSJN1Mw6y7Q7byJxn1CsslAAA4ItdllDeN0/IAk4UkSZIkSdIRtLpn5dShlWdl1I9l1H0WTQAAcIsuHVr99WG20pkoJEmSJEmSbkXjtOweW/mubPVvMur1Fk4AAPBV7c+o782ojx9bOdUkIUmSJEmSdBTNJ92ObPXO2eqLMuo1lk8AAPAl9mbUP8so98+ou0wQkiRJkiRJa9TYyqkZdZZR5hn1gEUUAABb3IGMekNGeUZGPWM+6ZZNDZIkSZIkSWvcfNItja2/S0Z5TUb9oqUUAABb1LXZynsy+m8dZm5MSpIkSZIkrXsZ/XkZ5ecy6qcO/d6OJRUAAFvlrckhW/3NbOXu80m3zXQgSZIkSZJ0jBpm3SlDK9OM+jaLKgAAtoiLxlb+3Tgt55gIJEmSJEmSjkPzSbd9aOWeGfW3Mur1FlYAAGxibxta/eb5pNtlEpAkSZIkSTqOja0sja0/K1t5Wkb9wqHPXllgAQCwWVyXUV84ttKPrRgAJEmSJEmSFqmMev+M+rpDSxzLLAAANrIbM+r7M+pj5pNup6t9SZIkSZKkBS2j3iGjvCijft5SCwCADerajPqKjP7rXeFLkiRJkiRtgOaTbldGeXJG/YDlFgAAG8zF2covDLPuLFf2kiRJkiRJG6iM/oSM8pAh6isz6tUWXQAALLh9GeUd2UqM0/4280nnol6SJEmSJGmjNcy67dn684dWfj6jXmnpBQDAgro+W/2j1Wn/teO0+L1JSZIkSZKkzdDYygMyyocy6g0WYAAALIj9GfWzYyuPd8UuSZIkSZK0CRun/YVDq3+QUb9gGQYAwHF2dUZ5Y0Z9sCt1SZIkSZKkTVxGPSuj/lhGvSijHrAYAwDgOLgso/7XsZU7zSfdsqt0SZIkSZKkTV5GPTmjfGtG+Ws3KQEAOKZa+UhG+b6M/nRX5pIkSZIkSVuo+aTbllHOyygvsSgDAOBYGFp5/Tjt7z7Mup2uyCVJkiRJkrZow2xl1xBllq1+IKPutTgDAGCN7cson80oPz62cvJ80rkIlyRJkiRJ2urNJ932sZX7ZtQ/yKhXWKIBALBGrsuob8xWHjWfdLtceUuSJEmSJOlLGls5L6M8M6NeYpkGAMBRujajviij3tWVtiRJkiRJkm6y+aQ7KaN+d0Z9p6UaAAC30icyylMy6umusCVJkiRJknSLZdTtGfWe2crLMuo1FmwAABy+8taM8tCx9T7pKkmSJEmSpMMvoy5dvmdld0Z5Uka9KKPus2wDAOAmHMiolw6tPHeYrZyd0S+7opYkSZIkSdKtLqN/UEZ5nbcpAQD4KvZl1PcMrXzffNJ5a1KSJEmSJElr0xArJVt9QUb9jCUcAACHXJVR/mRs5b6umCVJkiRJkrSmzSfd8uq0P2Ns5bEZ5f0Zdb+FHADAlnZxRn1mTssd55POJ10lSZIkSZK0Po2t7Bpbf5+M+ud+lxIAYKv+3mT5UEb99ox6sitkSZIkSZIkrXvzSbecUU/IqM/KqKO3KQEAtowvZpTfXp2unJ5RvTUpSZIkSZKkY1tG3ZGtfFe28raMeq2FHQDAprU3o340ozw1oz/RlbAkSZIkSZKOW/NJty2j3DOjvCSjDgc/+WWJBwCwiVydrf750MrDh1m3yxWwJEmSJEmSFqKM/tyM/klD1E9a4gEAbBZlnlGfM7Ry5/mk2+6qV5IkSZIkSQvVMOtOzFYeklHfbJkHALCxDa1+dmx9jK3cxpWuJEmSJEmSFrbL96wsj62cm1Ged+iTr/st+AAANowDGfXqjPqKjHrn1T39Nle4kiRJkiRJ2hDNJ93OjDrLqO/KqPss+wAAFt7+jPqxbOWnMuoZrmglSZIkSZK0Icuo98uoL8+o11j6AQAsrBsyyt9mlO+cT7qdrmIlSZIkSZK0oRti5exs5Wf+v/bu/enXsy7s/fOsQ1aOhhDAHRByr+/1IVKhHLRAdnSLCjpAi3zzXJ8vsFFrWyM4U5U9G2ixOu0eQQs4I4cyFS0Cot3UWKybvQtoFEcB3VQKsVSBBMohxsD9ude6gbCStZK1nu4fyO6gHMxK1uE5vF4z73/g+d6Ha67PXPdTGZ+y+SdJkrTlOlzZXlO5+NtWrgAAAADsCPNyWJv64sLq7WmV7V0++SpJkrRluqF6+5HqiweMq2HdyhUAAACAHWXaaHvG1cHF2OOXKmO2IShJknTWuq2yvX3q7Vum3vbNy8FiFQAAAICdbertmsq4oTJO2CCUJEk6o91cGT8zL4dLrEoBAAAA2DWm3vZOvT2xsv1WZdxqo1CSJOm0d6wy/rgyfrAy9lmRAgAAALDrzMthvTIWlfGzlfEZm4aSJEmnrc9XtjdWb4+vjHOsRAEAAADY1Srjksr29OrtwzYPJUmSTnXt05XthZXtsnk5rFt9AgAAAMDa2tq4GvZOG4uDle1tlXFbZWzaTJQkSbp3n3Qde7x/zINXVS6cmgQAAACAr2TaaBdXby+ojBsr404bi5IkSSfdZmV8Zurt1Yc2FsO8HCwyAQAAAOBrGVfD+WNv31sZb6+MYzYZJUmS7nZ3Vsb7K9uPTL1dYmUJAAAAACdh6u2bKuMVlXHUZqMkSdLd6tcr49vm5XDAahIAAAAA7oGpt0sr2w9VxidtOEqSJH3VPlsZL62Mh1hBAgAAAMC9MC+Htam3/ZVxVWVc55OvkiRJX/ZJ1z+t3jam3i6oDAtIAAAAADhVxtVwafX24sr4hM1ISZKkmCrbGysXj7BSBAAAAIDTZF4OB8besjLee9eJAZuTkiRpN3bD2ON542q4nxUiAAAAAJxm00Zbm3q7snp7fWV83galJEnaZZ90vW7q7elTb+tWhgAAAABwhszLYU9ttMuqxwsq4y9sVkqSpF3QZyvjFVNvD5t622dFCAAAAABnwdTbuZXxrZXtfZVx3MalJEnagZ2ojE9Wxj+ojAvm5eDkJAAAAACcbfNyOL8yfqUyPmMTU5Ik7aBurd6uG1fD5VZ8AAAAALDFVC4uqGzPrYzr7/r/TDY1JUnSdj41+bHK9tKpLy6z0gMAAACALWpcDQeqL76jeru2Mo7Y3JQkSduwOyrj3ZXtWdNG+zorPAAAAADY4ublsGfs7fLq7acq2xdsckqSpG3UZvX2S2OPh4+r4YCVHQAAAABsI9NGO2/aaH9v7HFDZRy34SlJkrb0YDLb4cr2/Kk7NQkAAAAA29rUW6uMN1XG/MXNP5ugkiRpS3WkMn536u3KeTnssXoDAAAAgB2gMi6tbP97ZXzEkFKSJG2h/rIyfr4yrrBiAwAAAIAdZl4O+yvjKZXtt22GSpKkLdCHqre/P64Gn3QFAAAAgJ2scvFNle3VlXGrjVFJknQWOla9vaWyPWFeDvuszgAAAABghxtXw/rUF5dUb9dUxo0++SpJks5Qm5VRY7afrVw8ZNpo/t8kAAAAAOw200Z7dGV7S2UcsWkqSZJOY3dWxh9NvT3ZCgwAAAAAdrl5Odxn7PGyyvhvNk8lSdJpaK5svzr19jArLwAAAABgbW1tba0yDlTGMyvj3ZVx3EaqJEk6Rf1ZZbxg6u0SKy4AAAAA4K+ojHMq22Mq2+sq41YbqpIk6V50R2X7ncr23ZWL8620AAAAAICvaF4O65Xtksr2jyvjC5WxaYNVkiSdZLePvb1i2lhcPq6GvVZYAAAAAMDdMubBbx57vLMyjtholSRJd/PU5J9PG+0ZVlIAAAAAwEmbl8N6bSxaZbyiMm5ymlKSJH2N5urxG7XRvmVeDnuspAAAAACAe2zq7ZKptx+sjA9UxgkbsJIk6UvarIxPVcY/m3p7iJUTAAAAAHBKzMvhnLHH4yrj123ESpKkL+kDle3JlXGhFRMAAAAAcMpVxmWV8eLKuN2GrCRJu/3kZPu1yrjCJ10BAAAAgNNqXg57K9t3V8a7KuOYDVpJknZVd1bGDdUXzxlXw/lWRgAAAADAGVO5eHhl++XKmGzWSpK0K7qtMt469vZd83LYZzUEAAAAAJxx42q479jjeZVxo01bSZJ2dIeqt385bbSwAgIAAAAAzqpDVx88t3p7amV7212ffbOJK0nSzuqD1eMfHrr64NdZ+QAAAAAAW8LU296pL6J6vLYyjtjIlSRpR3S8sv3flfG4qbdzrHgAAAAAgC1lXg5r1WO9MpaV8aHKOGFjV5KkbdtNlfGTh68ezqv0VVcAAAAAYIurjEfe9cnX2QavJEnbqmOV8d7Kxd+1ogEAAAAAto15OaxNffGgyvYvKttHnaaUJGlbNFZvr6tcPGpcDetWNAAAAADAtlO5uLhycfWY8QeVcaeNX0mStmSble3D1dtzq7fL5qXhJAAAAACwjY2rYX9ttIdNvf0bG8CSJG29xh7vnfri8VNv51q5AAAAAAA7whc/+drOmXr74cr2CacpJUnaCqcm41BlvKwyznNqEgAAAADYkeblsH/q7QmV8dbKuNXmsCRJZ6Wjle1PKtv3V8Z5VigAAAAAwI5XGVEZL62MW2wSS5J0Rrutsr2hsj1uXg57rUoAAAAAgF2jMu5TvT2jMv7cZrEkSWekWyrb8ysXD7YSAQAAAAB2pcNXH9xX2a6sbP9XZRyzcSxJ0mnr/dXb946rg+dbgQAAAAAAu1rlYn1cHbzf2NuLKuPjlXHCJrIkSaekzco4XNleM/V2eW0s9szLweIDAAAAAGBtbW1tXg7nTL09pTJ+rzLutKksSdK97vqxx4/Oy+FCKw0AAAAAgK9i6u2KyvaGyphsLEuSdI+6ozLeVhnfZmUBAAAAAPA3mJfD2qGNxddXxo9WxodtMkuSdFLdUtleVtmuqAwLCwAAAACAu6syzquMJ1ZvPvkqSdLd64bK9n1TbxfPy2HdagIAAAAA4CRVxp5DG4tLvngSJD5XGZs2nyVJ+rJuG3v8n+Pq4EMrF3utIAAAAAAAToHKxT+qbP+5Mo7aiJYkKf57ZZyojI+Nvf30vBzOt1oAAAAAADiFxtWwb+ztqurxa5Vx2Ka0JGmXd7SyvXPq7Xun3g5YKQAAAAAAnAbzctgz9XZ5Zbywsv2FzWlJ0i7tc5XxqurtkfNy2GeFAAAAAABwmk29XTj1xVWV8V9tUkuSdlft1sr4gcq41IoAAAAAAOAMmpfDemV8Q2W8vjI+XxmbNq0lSTu0zcq4vbJdN/XFoytjr5UAAAAAAMBZMq6GC6ovfqgyPlgZd9rEliTtsE5Uxscr289ULh7ozQ8AAAAAsAXMy2FfZXtSZVxbGUdtZkuSdtDJyd8fe3v2uBou8sYHAAAAANhipo12eWV7WWWUTW1J0jbvWGX8ytTbo+flsM9bHgAAAABgixpzcZ/q8YzK+C82tyVJ27Sbp97+6dTbg7zZAQAAAAC2gam3vVNvj6xsv1EZX7DRLUnaRqcm310Z3zX1ds68HLzUAQAAAAC2k3k5nFsZL6iMj9v0liRt8ap6e3VlPMQbHAAAAABgm6uMXhnvrIyjNsAlSVus45Xxwcr24/NyOOCtDQAAAACwA4yrYU/1xSMq2y9UxiGb4ZKkLdIXKttbKhffU7k4xxsbAAAAAGAHmZfDemV7QPX2w5Xto5WxaWNcknQWO1S9vbh6i3E17PWmBgAAAADYoaaNtn9cHfzmsccfVsYxG+SSpDP/Sdf20am3p0y9nTsvh3VvZwAAAACAXWDq7cKpt5dVxl86TSlJOkMdrow3H9pYhDcxAAAAAMAuNPV2UWX7/sp4j9OUkqTTe2oyPlIZL6qM+3sDAwAAAADsYvNy2FsZf6cy3lAZd9hElySdhk+6/nb19tTKuNCbFwAAAACAtbW1tbXKeGBl+/Hq7bDNdEnSqandXtl+obI9dF4Oe71tAQAAAAD4KyoPHqjenlQZ73aaUpJ0Lz/p+rEx2zWVi/t4wwIAAAAA8DVNG+3y6u2VlXFLZWzaaJcknUS3Vsa/n3p7nFOTAAAAAADcbfNyuGDscU1lXG+zXZJ0N/tkZfvnU2/f4E0KAAAAAMA9MvX2nZXxFp98lST9Df2nynjGvBz2e3sCAAAAAHCPVcZ6ZTtY2V5SGWUDXpL01zpS2X65sj22MnzSFQAAAACAe29eDmuVcX5lW1bGn1XGCRvykrTr26yMmyvbP5n64tJxNax7YwIAAAAAcMqNq+Ebqrdfr4zZ5rwk7dpur2y/N220x3szAgAAAABw2h26+uDFY28/URkfrozjNuolaVd189jjNePq4EFvRAAAAAAAzphpo50/9fa06vGOyjhqw16SdnwnKuP6qbfnTr1d7E0IAAAAAMAZNy+HfdXjiurtlZVxm817Sdqx3VEZvzn1duXU23negAAAAAAAnFVTbxdVxjMq2+HK2LSRL0k7ps3KOFYZL6mM+87LYd1bDwAAAACALWFeDutTbw+vjP9YGZ+3qS9J276j1dv7KhffPa6GPd50AAAAAABsSZWLB1W2n66MTzpNKUnb9tTkWBmvn3p79Lw0nAQAAAAAYIsbV8OF1dszK+NdNvoladt1Y2V73rTR/idvNAAAAAAAto15Oewde3tkZbyuMo7a8JekbdEfjD3+l3E1nO9NBgAAAADAtjP1tjb1xf2rt+dXxqd98lWStmy3VbbXTr09dOpt3RsMAAAAAIBtrzIeXxnvqIzbDQIkact0Z2W8vzKeNS+H/d5WAAAAAADsKJXx4Mr2qrtOUxoMSNJZPzUZ/65y8c3eUAAAAAAA7FiHrz54bmV7bmV8wHBAks5aH6/efmZcDQ/wZgIAAAAAYMerXByobE8YM66tjCMGBZJ0xjpe2d5Tva2mjcXXzcvBSwkAAAAAgN1hXA17qy8eNPb2ksr4nKGBJJ32jlaPf3toY/GwaaP5f5MAAAAAAOxeU29XVrYPVsYdBgiSdMo7URk3Tb1d440DAAAAAABra2vzclibNhZ/a+zxq5XxGcMESTplfaGy/W5lPKEyvHAAAAAAAOBLVcb9K+N5lXFDZWwaLEjSveqWyvi5qbeHzsth3VsGAAAAAAC+gsq4oLI9sbK93ZBSku5hvf15ZXt25eJSbxYAAAAAAPgbzMthT2W7rLL9okGDJJ1cY2/XTRuLR4yrYb83CgAAAAAAnIRxNRwYs62qx/WVcYfBgyR91Y5Xtpum3n5i2mgXzcvBSwQAAAAAAO6JeTnsHXu7qjLeXBmfNYSQpC/raGX8fvX29Hk5HPDmAAAAAACAU2Dq7YGV7UWV8SnDCEn6H91eGa+aenu0NwUAAAAAAJxi83I4rzKWlfEeQwlJik9Vth+rjPt6QwAAAAAAwGlSGXsr45HV2xsr4zYDCkm7s/YHle27pt580hUAAAAAAE63ylg7fPXB8yrbcyrjI5Vx3LBC0i5oszI+Xb393Lg6+IDKxbo3AgAAAAAAnGGVi2+vbO+ojCOGF5J2cMcr40/G3p49LwenJgEAAAAA4GwacxHV4+e/+P/YDDIk7bhurWz/burtsZ74AAAAAACwBczLYf3QxuLSqbcfqGzvr4wTBhqSdkifqIwX1UZ7yLwcfNIVAAAAAAC2kqm3A1NffEtl/Jb/Sylp+/+/yfZfK+PJlXGBJzwAAAAAAGxR83JYr4z9lfHPKmNymlLSNuxzle2XD20cvKQynJoEAAAAAIDtoDL2V29Pq97+oDJuM/CQtA06Vhl/Xtl+vHJxnic5AAAAAABsM/Ny2FPZHlnZXlsZo+GHpC3ckerxH8benjiuhgOe4AAAAAAAsI1VLi6rXDxnzPiYIYikrVf7bGX887G3b5yXw15PbQAAAAAA2AHG1XBu9fYdlfFOwxBJW6Wxx19MfbGaervIkxoAAAAAAHaYQxuL9am3yyrbyyqjKuOEAYmks/ZJ14w3V8YVh65e7PGEBgAAAACAHWxeDudXxrMr448r47hBiaQz2InKuLGy/WRlXOqJDAAAAAAAu0hlPPauE0xHDE0knaF+t7L93Xk57PcUBgAAAACAXagyHly9/VRlfMrgRNJp7HBle23l4lGevAAAAAAAsIvNy2Ft6osLq7enVbZ3++SrpNPQJ6q3H6u++PpxNax78gIAAAAAAGvTRtszrg4uxh6/VBmzgYqkU9Dtle3tU2/fUr3tm5eDhy0AAAAAAPDlpt6eUxk3VMYJAxZJ97Cbxx6vnJfDJZ6qAAAAAADA1zT1tnfq7UmV7bcq41aDFkkn0bHK+H8r4wcrY78nKgAAAAAAcLfMy2G9MhaV8bOVMRq6SLobfb6yvbF6e3xlnONJCgAAAAAAnLTKuKSyPb16+4jhi6SvXvtMZXthZbtsXg7rnp4AAAAAAMA9Nq6GvdPGYlHZ3lYZRypj0zBG0v//Sdexx38e8+C3Vi6cmgQAAAAAAE6daaNdXL29sDJurIw7DWakXd1mZXx66u3VhzYWg1OTAAAAAADAaTGuhgvG3r63Mt5eGccMaaRd2fHKeH9l+5Gpt/t6MgIAAAAAAKfd1Ns3VcYrK+OoYY206/qNyvi2eTkc8DQEAAAAAADOmKm3SyvbD1XGJw1spF3RZyvjpZVxuScgAAAAAABwxs3LYW3qbV9lXFUZ1zlNKe3Y7qyMP63e+tTbBZXhAQgAAAAAAJxd42q4tHp7SWXcZJgj7agOVbY3Vi7+ticdAAAAAACwpczL4UBl+4HKeO9dJ64Md6Tt3Q1jjxeOq+F+nnAAAAAAAMCWNG209am3K6u3N1TG5w14pG37Sdfrpt6efvjqgwc82QAAAAAAgC1tXg57aqNdVj1eUBk3G/ZI26rPVrZ/PfXFI6be9nmiAQAAAAAA28bU24HKuKqyva8yjhv8SFu6E5Xxycr4B1NvF8zLYd1TDAAAAAAA2Jbm5XBBZfxKZXzGEEjakt1avV1XGQ/3xAIAAAAAAHaEysWFle25lXH9Xf/fzlBI2hqnJj9R2V4+9cUD5+XgYQUAAAAAAOwc42o4UH3xndXbtZVxm+GQdFa7szLeU7n4vsrFJZ5QAAAAAADAjjQvhz1jb5dXbz9V2Y4YEklnpc3q7d+MPR4+roYDnkwAAAAAAMCON22086aN9rSxxw2VcdzASDpTn3RthyrbC6bevs6TCAAAAAAA2HWm3qIy3lQZhytj0wBJOm0dqYzfnXr7n+flsMfTBwAAAAAA2LUq49LK9vzK+IghpXRauqUyfr4yvtETBwAAAAAAYG1tbV4O+yvjKZXtdwyTpFPah6u3vz+uBp90BQAAAAAA+OsqFw+vbP+qMm41WJLuVceqt9+sbE+Yl8M+TxcAAAAAAICvYFwN61NfXFK9XVMZN1bGCYMm6aTarIwas/1s5eIh00bz/yYBAAAAAADujmmjPaay/WZlHDF0ku5Wd1bGH0+9PcUTBAAAAAAA4B6Yl8N9xh4vr4z/Zvgkfc3myvarU29/y5MDAAAAAADgXqiMcyvjmZXx7so4bhAlfVk3VMY/nXq7rycGAAAAAADAKVAZ51S2x1S211XGrQZSUvz3yrijsl1X2Z5cGRd4UgAAAAAAAJxC83JYr2z3qWz/uDK+UBmbBlTaxR2tbL84bSweMq6GvZ4QAAAAAAAAp9GYB//O2OOdlXHEoEq78NTkh6fenuVJAAAAAAAAcIbMy2G9NhZRGa+ojJucptQu6bPV49oxF982roZ9ngQAAAAAAABn2NTbJVNvP1gZ11fGCQMs7dA2K+MvKuNfTL1d7s4HAAAAAAA4i+blcM7Y47GVca1BlnZo10+9PWXq7WJ3PAAAAAAAwBZRGQ+sjBdXxm0GWto5Jyfbr1W2K+blsMddDgAAAAAAsMXMy2FvZfueynhXZRwz4NI27c7KuKH64rnjajjfnQ0AAAAAALDFVS4eUdleXxmTYZe2WbdVxlvH3p44L4f97mYAAAAAAIBtYlwN9x17/G+VcaOhl7ZJh6q3l04bLdzBAAAAAAAA29C0sTiventqZXvbXZ/NNATTVu2D1eMfHrp6cbE7FwAAAAAAYBubets79UWrHr9YGUcMwrTFOl7Z/p/KeNzU2znuWAAAAAAAgB1gXg5r1WOtMpaV8SGnKbVFuqkyfnJeDudW+qorAAAAAADAjlQZj6re3lIZswGZzlLHKuO9lYu/544EAAAAAADY4eblsD71xYMq2/9R2T5aGScMzHQGq+rtdZWLR42rYY87EgAAAAAAYJeoXFxcubh6zPjDL/4fQMMzndY2K9uN1duPVW+Xzcth3V0IAAAAAACwy4yrYX9ttG+cevtlAzSdzsYefzJtLB4/bbTz3XkAAAAAAAC72Lwc1qbezpl6++HK9vHKuNNATafu1GQcmnr7V9Xb+fNycMMBAAAAAADwRfNy2D/19h2V8dbK+ILhmu5lxyrj/ZXt+yvDqUkAAAAAAAC+ssp4aGW8tDJuMWTTPez2ynhTZXzrvBz2uqsAAAAAAAD4mirjPtXbMyvjQ4ZtOsnmyvbCysWD3UkAAAAAAADcbYevPrivsl1Z2d561+c6Dd/0N/WB6u3qMQ/6pCsAAAAAAAAnr3KxPq4O3m/s7UWV8fHKOGEIp7/WZmUcrmyvmXp7SG0s1ufl4OYBAAAAAADgnpuXwzlTb0+tjHdWxp2GcvqSrh97/Oi8HC50pwAAAAAAAHBKTb09rLK9oTImg7ld352V8bbK+HZ3BgAAAAAAAKfFvBzWDm0svr4yfrQyPmJIt2u7pbK9rLJdURnr7gwAAAAAAABOq8o4rzKeWL355Ovu68bK9n1TbxfPy8FwEgAAAAAAgDOjMtYPXX3wksr28sr4bGVsGt7t6G4be7x5XB2MysVedwAAAAAAAABnReVivXLxjyrb+yrjqEHejutEZXxs7O2nDy+HC1zxAAAAAAAAnHXjatg/9vat1ePXKuOwod6O6WhlvHPq7elTb+e60gEAAAAAANgy5uWwZ+rt8sp4YWW72XBv2/f5ynhV9faoeTnsc4UDAAAAAACwJU29XTj1xVWV8WeGfNu1dqQyfqAyLnVFAwAAAAAAsOXNy2G9Mh5cGa+/6yTepqHftuj2ynbd1BePqYy9rmQAAAAAAAC2lXE1XFB9cU1lfLAy7jQA3LKdqIybKtvPVS4e6MoFAAAAAABg25qXw77K9qTKuLYyjhoGbrk2K+M9Y2/fN66Gi1yxAAAAAAAA7AjTRru8sr28MiZDwS3Tscp409jbY+flsM9VCgAAAAAAwI4y5uKS6vGMyvgvhoNnval6+6mptwe5MgEAAAAAANixpt72Tr09srL9RmXcalB4Vk5Nvrsynlgb7Zx5ObgoAQAAAAAA2Pnm5XBuZbywMj5haHjGqurt1ZXxEFcgAAAAAAAAu1JlZGX8XmUcNUA8bR2vjA9WtufNy+GAqw4AAAAAAIBda1wNe6svHlHZfqEyDhsmnvKOVLa3VC6+p3JxjisOAAAAAACAXW9eDuuV7QHV2w9Xto9VxqbB4inp0NTbi6u3GFfDPlcaAAAAAAAAfIlpo+0fVwcfM/Z4V2UcM2C8x91Z2T429fbkqbdz5+Ww7uoCAAAAAACAr2Lq7aKpt5dXxl86TXnSHa6MNx/aWDzUlQQAAAAAAAB309TbRZXt+yvjj5ymvFsdr4yPVMZPVMb9XUEAAAAAAABwkublsLcyHlsZb6iMOwwhv9Zwsv1O9fbUyrjQlQMAAAAAAAD3QmU8sLI9r3o7bBj512u3V7ZfrGwPnZfDXlcLAAAAAAAAnALVDx6o3p5UGe9ymvJ/fNL1o2O2ayoX93GFAAAAAAAAwGkwbbShentlZXy6MjZ36XDy1sr491Nvj3dqEgAAAAAAAE6zeTlcMPa4pjKu34XDyZsq24un3h7sSgAAAAAAAIAzaOrtuyrjLbvok6//qTKeNS+HC/z6AAAAAAAAcIZVxp7KdrAyXlIZ0w4eTN5WGf+2Mq6sDJ90BQAAAAAAgLNlXg5rlXF+ZVtWxp9VxokdNJjcrIybK9s/mTYW96uMPX5xAAAAAAAA2CLG1fAN1du1lTHvgOHk7ZXt9ysX3+mXBQAAAAAAgC3q0NUHLx57+4nK+PA2Pk35l2OP14x5cOEXBQAAAAAAgC1u2mjnT709rXr8dmUc3UaDyROV8adTb8+dervYLwkAAAAAAADbxLwc9lWPK6q3V33xc6lbfjh5R2X8h6m3K6fezvMLAgAAAAAAwDY09XZRZTyzsh3aop983bzrlOfPVMZ95+Ww7lcDAAAAAACAbWxeDutTb4+ojP9YGZ/fQsPJo9Xb+yoX3zOuhj1+KQAAAAAAANhBKhcPqmw/XRmfvOvk4tk8NTlWxuun3h4zLw0nAQAAAAAAYEcaV8OF1dszK+PdZ3FA+dHK9rxpo13mFwEAAAAAAIAdbl4Oe8feHlXZXnfX/388k8PJPxx7fPu4Gs73SwAAAAAAAMAuMfW2NvXF/au351fGp0/zJ183K+NIZXvt1NtDp97W/QIAAAAAAACwS1XGlZXxjtN0mvJ4ZVxfGf/rvBz2+2sDAAAAAAAAa5Xx4Mr26rtOU56q4eRtlXFtZVzlLwwAAAAAAAD8FYevPnheZXtuZXzgFAwnb67e/uW4Gr7eXxYAAAAAAAD4iioXByrbE8Yvnnw8cs8+6dr+qHp71tQXF8/LwR8VAAAAAAAA+OrG1bC3NhYPGnt7SWV87iSGk7ePPa6tXDxq2mj+3yQAAAAAAABwcqberqpsH6yMO77GYPJEZdw89fYcfzEAAAAAAADgHpuXw9q0sfimscebKmP8CsPJL1S266benjz1tu4vBgAAAAAAANxrlfGAynheZdxQGZt3DSdvqYyfm3q7Yl4OhpMAAAAAAADAqVMZF1S2J1a2d1RvH6psz65cXOovAwAAAAAAAJwW83LYU9kumzYWDx9Xw35/EQAAAE7G/wf6HVW5tuYWiQAAACV0RVh0ZGF0ZTpjcmVhdGUAMjAyMS0wMS0zMFQwOToyMzoxNyswMDowMKIP79QAAAAldEVYdGRhdGU6bW9kaWZ5ADIwMjEtMDEtMzBUMDk6MjM6MTcrMDA6MDDTUldoAAAAAElFTkSuQmCC;" vertex="1" parent="1">
          <mxGeometry x="468" y="30" width="102.87" height="115" as="geometry" />
        </mxCell>
        <mxCell id="Cq7W1oHklH4ihJ6Y_qpz-28" value="" style="edgeStyle=orthogonalEdgeStyle;rounded=0;orthogonalLoop=1;jettySize=auto;html=1;" edge="1" parent="1" source="Cq7W1oHklH4ihJ6Y_qpz-21" target="Cq7W1oHklH4ihJ6Y_qpz-13">
          <mxGeometry relative="1" as="geometry" />
        </mxCell>
        <mxCell id="Cq7W1oHklH4ihJ6Y_qpz-21" value="Handler Service" style="sketch=0;outlineConnect=0;fontColor=#232F3E;gradientColor=none;fillColor=#ED7100;strokeColor=none;dashed=0;verticalLabelPosition=bottom;verticalAlign=top;align=center;html=1;fontSize=12;fontStyle=0;aspect=fixed;pointerEvents=1;shape=mxgraph.aws4.ec2_aws_microservice_extractor_for_net;" vertex="1" parent="1">
          <mxGeometry x="617" y="225" width="113" height="113" as="geometry" />
        </mxCell>
        <mxCell id="Cq7W1oHklH4ihJ6Y_qpz-31" value="Notes Metadata Record" style="sketch=0;aspect=fixed;pointerEvents=1;shadow=0;dashed=0;html=1;strokeColor=none;labelPosition=center;verticalLabelPosition=bottom;verticalAlign=top;align=center;fillColor=#00188D;shape=mxgraph.mscae.enterprise.database_generic" vertex="1" parent="1">
          <mxGeometry x="425" y="471.96000000000004" width="74.8" height="101.08" as="geometry" />
        </mxCell>
        <mxCell id="Cq7W1oHklH4ihJ6Y_qpz-33" value="Notes Document" style="outlineConnect=0;dashed=0;verticalLabelPosition=bottom;verticalAlign=top;align=center;html=1;shape=mxgraph.aws3.bucket_with_objects;fillColor=#E05243;gradientColor=none;" vertex="1" parent="1">
          <mxGeometry x="621.5" y="669" width="104" height="90" as="geometry" />
        </mxCell>
      </root>
    </mxGraphModel>
  </diagram>
</mxfile>
